<?xml version="1.0" standalone="no"?>
<!DOCTYPE svg PUBLIC "-//W3C//DTD SVG 1.1//EN" "http://www.w3.org/Graphics/SVG/1.1/DTD/svg11.dtd" >
<svg xmlns="http://www.w3.org/2000/svg">
<metadata></metadata>
<defs>
<font id="heart_breaking_badregular" horiz-adv-x="1625" >
<font-face units-per-em="2048" ascent="1638" descent="-410" />
<missing-glyph horiz-adv-x="508" />
<glyph unicode="&#xd;" horiz-adv-x="508" />
<glyph horiz-adv-x="0" />
<glyph horiz-adv-x="0" />
<glyph unicode=" "  horiz-adv-x="508" />
<glyph unicode="&#x09;" horiz-adv-x="508" />
<glyph unicode="&#xa0;" horiz-adv-x="508" />
<glyph unicode="!" d="M40 1528h1448q40 -5 40 -40v-1448q-5 -40 -40 -40h-1448q-40 5 -40 40v1448q5 40 40 40zM40 1488v-1448h1448v1448h-1448zM1432 1448q25 0 28 -40q0 -11 -48 -52h48v-16h-80q0 22 56 64q4 7 4 16q0 6 -12 12q-24 0 -24 -24h-20v4q0 36 48 36zM308 1436h12q48 0 48 -76 t-48 -76h-12q-48 0 -48 76t48 76zM420 1436h12q48 0 48 -76t-48 -76h-12q-48 0 -48 76t48 76zM548 1436q44 -8 44 -44v-4q0 -30 -56 -64l-8 -12h64v-24h-104v4q0 27 72 84q4 7 4 16v4q0 6 -16 16q-28 0 -28 -36h-28v4q0 56 56 56zM664 1436h4q40 -5 40 -40h-20 q-14 16 -28 16h-8q-12 0 -20 -36v-4q16 16 44 16q36 -10 36 -56q0 -42 -52 -48q-56 0 -56 76t60 76zM764 1436h12q48 0 48 -76t-48 -76h-12q-48 0 -48 76t48 76zM892 1436q44 -8 44 -44v-4q0 -30 -56 -64l-8 -12h64v-24h-104v4q0 27 72 84q4 7 4 16v4q0 6 -16 16 q-28 0 -28 -36h-28v4q0 56 56 56zM152 1432h24v-88h20v-24h-20v-32h-28v32h-60v28q61 84 64 84zM288 1372v-24q0 -40 28 -40q24 0 24 40v24q0 40 -28 40q-24 0 -24 -40zM400 1372v-24q0 -40 28 -40q24 0 24 40v24q0 40 -28 40q-24 0 -24 -40zM744 1372v-24q0 -40 28 -40 q24 0 24 40v24q0 40 -28 40q-24 0 -24 -40zM112 1344h36v48q-8 -3 -36 -48zM636 1348v-24q0 -6 16 -16h16q16 7 16 28q0 22 -16 28h-16q-6 0 -16 -16zM212 1320h32v-32h-32v32zM264 1092h136v-236h248v236h136v-616h-136v268h-248v-268h-136v616zM1064 932q148 0 204 -160 q8 -38 8 -60v-40h-320v-4q0 -90 80 -108q5 -4 28 -4h8q88 18 88 60h108q0 -42 -68 -108q-53 -44 -144 -44q-190 0 -224 216v24q0 169 180 224q34 4 52 4zM956 748h200q-23 88 -76 88q0 4 -24 4h-8q-92 -16 -92 -92zM148 236q44 -8 44 -44v-4q0 -30 -56 -64l-8 -12h64v-24 h-104v4q0 27 72 84q4 7 4 16v4q0 6 -16 16q-28 0 -28 -36h-28v4q0 56 56 56z" />
<glyph unicode="&#x22;" horiz-adv-x="672" />
<glyph unicode="#" horiz-adv-x="1630" d="M40 1528h1448q40 -5 40 -40v-1448q-5 -40 -40 -40h-1448q-40 5 -40 40v1448q5 40 40 40zM40 1488v-1448h1448v1448h-1448zM1432 1448q25 0 28 -40q0 -11 -48 -52h48v-16h-80q0 22 56 64q4 7 4 16q0 6 -12 12q-24 0 -24 -24h-20v4q0 36 48 36zM140 1436q56 0 56 -72 q0 -80 -60 -80h-4q-40 8 -40 40h28q2 -16 12 -16h4q32 0 32 44q-16 -16 -44 -16q-36 12 -36 52q0 42 52 48zM308 1436h12q48 0 48 -76t-48 -76h-12q-48 0 -48 76t48 76zM548 1436q44 -8 44 -44v-4q0 -30 -56 -64l-8 -12h64v-24h-104v4q0 27 72 84q4 7 4 16v4q0 6 -16 16 q-28 0 -28 -36h-28v4q0 56 56 56zM764 1436h12q44 -7 44 -44q-7 -20 -20 -20q24 -19 24 -40q0 -48 -52 -48h-4q-43 0 -52 40v8q5 32 24 32v8q-20 0 -20 28q0 27 44 36zM892 1436q44 -8 44 -44v-4q0 -30 -56 -64l-8 -12h64v-24h-104v4q0 27 72 84q4 7 4 16v4q0 6 -16 16 q-28 0 -28 -36h-28v4q0 56 56 56zM424 1432h24v-144h-28v92h-36v24q40 0 40 28zM656 1432h24v-144h-28v92h-36v24q40 0 40 28zM116 1384q0 -16 16 -24h16q6 0 16 16v20q0 6 -16 16h-16q-16 -6 -16 -28zM288 1372v-24q0 -40 28 -40q24 0 24 40v24q0 40 -28 40q-24 0 -24 -40z M748 1400v-12q4 -12 24 -12q20 3 20 12v12q0 6 -12 12h-20q-6 0 -12 -12zM744 1340v-16q0 -6 16 -16h20q6 0 16 16v16q-6 16 -28 16q-16 0 -24 -16zM212 1320h32v-32h-32v32zM1432 1312q25 0 28 -40q0 -11 -48 -52h48v-16h-80q0 22 56 64q4 7 4 16q0 6 -12 12q-24 0 -24 -24 h-20v4q0 36 48 36zM280 1092h256q152 0 196 -48q36 -41 36 -112q0 -69 -80 -120v-4q92 -37 92 -80q16 -24 16 -72q0 -131 -144 -172q-51 -8 -96 -8h-276v616zM416 988v-144h136q84 0 84 68v8q0 68 -96 68h-124zM1048 932q148 0 204 -160q8 -38 8 -60v-40h-320v-4 q0 -90 80 -108q5 -4 28 -4h8q88 18 88 60h108q0 -42 -68 -108q-53 -44 -144 -44q-190 0 -224 216v24q0 169 180 224q34 4 52 4zM940 748h200q-23 88 -76 88q0 4 -24 4h-8q-92 -16 -92 -92zM416 752v-172h140q104 0 104 76v16q0 61 -72 80h-172zM152 232h24v-88h20v-24h-20 v-32h-28v32h-60v28q61 84 64 84zM112 144h36v48q-8 -3 -36 -48z" />
<glyph unicode="$" d="M40 1528h1448q40 -5 40 -40v-1448q-5 -40 -40 -40h-1448q-40 5 -40 40v1448q5 40 40 40zM40 1488v-1448h1448v1448h-1448zM1432 1448q25 0 28 -40q0 -11 -48 -52h48v-16h-80q0 22 56 64q4 7 4 16q0 6 -12 12q-24 0 -24 -24h-20v4q0 36 48 36zM148 1436q44 -8 44 -44v-4 q0 -30 -56 -64l-8 -12h64v-24h-104v4q0 27 72 84q4 7 4 16v4q0 6 -16 16q-28 0 -28 -36h-28v4q0 56 56 56zM252 1436h12q48 0 48 -76t-48 -76h-12q-48 0 -48 76t48 76zM664 1436q56 0 56 -72q0 -80 -60 -80h-4q-40 8 -40 40h28q2 -16 12 -16h4q32 0 32 44q-16 -16 -44 -16 q-36 12 -36 52q0 42 52 48zM424 1432h24v-144h-28v92h-36v24q40 0 40 28zM492 1432h100v-24q-48 -53 -48 -120h-28q0 50 44 116h-68v28zM732 1432h100v-24q-48 -53 -48 -120h-28q0 50 44 116h-68v28zM232 1372v-24q0 -40 28 -40q24 0 24 40v24q0 40 -28 40q-24 0 -24 -40z M640 1384q0 -16 16 -24h16q6 0 16 16v20q0 6 -16 16h-16q-16 -6 -16 -28zM328 1320h32v-32h-32v32zM1420 1312q36 0 36 -32l-12 -20q16 -6 16 -28q-12 -28 -36 -28h-4q-36 0 -36 36l12 20q-12 13 -12 20q0 32 36 32zM1404 1284v-12l20 -4q8 4 12 4v12q0 6 -12 12h-8 q-6 0 -12 -12zM1404 1240v-8q0 -6 12 -12h12q6 0 12 12v8q0 6 -12 12h-12q-6 0 -12 -12zM264 1092h132q17 -17 256 -412h4v412h128v-616h-132q-16 12 -256 412h-4v-412h-128v616zM1064 932q148 0 204 -160q8 -38 8 -60v-40h-320v-4q0 -90 80 -108q5 -4 28 -4h8q88 18 88 60 h108q0 -42 -68 -108q-53 -44 -144 -44q-190 0 -224 216v24q0 169 180 224q34 4 52 4zM956 748h200q-23 88 -76 88q0 4 -24 4h-8q-92 -16 -92 -92zM252 236h12q48 0 48 -76t-48 -76h-12q-48 0 -48 76t48 76zM140 232h24v-144h-28v92h-36v24q40 0 40 28zM232 172v-24 q0 -40 28 -40q24 0 24 40v24q0 40 -28 40q-24 0 -24 -40z" />
<glyph unicode="%" horiz-adv-x="1620" d="M40 1528h1448q40 -5 40 -40v-1448q-5 -40 -40 -40h-1448q-40 5 -40 40v1448q5 40 40 40zM40 1488v-1448h1448v1448h-1448zM1432 1448q25 0 28 -40q0 -11 -48 -52h48v-16h-80q0 22 56 64q4 7 4 16q0 6 -12 12q-24 0 -24 -24h-20v4q0 36 48 36zM148 1436q44 -8 44 -44v-4 q0 -30 -56 -64l-8 -12h64v-24h-104v4q0 27 72 84q4 7 4 16v4q0 6 -16 16q-28 0 -28 -36h-28v4q0 56 56 56zM264 1436q44 -8 44 -44v-4q0 -30 -56 -64l-8 -12h64v-24h-104v4q0 27 72 84q4 7 4 16v4q0 6 -16 16q-28 0 -28 -36h-28v4q0 56 56 56zM424 1436q56 0 56 -72 q0 -80 -60 -80h-4q-40 8 -40 40h28q2 -16 12 -16h4q32 0 32 44q-16 -16 -44 -16q-36 12 -36 52q0 42 52 48zM536 1436h12q44 -7 44 -44q-7 -20 -20 -20q24 -19 24 -40q0 -48 -52 -48h-4q-43 0 -52 40v8q5 32 24 32v8q-20 0 -20 28q0 27 44 36zM656 1436q56 0 56 -72 q0 -80 -60 -80h-4q-40 8 -40 40h28q2 -16 12 -16h4q32 0 32 44q-16 -16 -44 -16q-36 12 -36 52q0 42 52 48zM904 1436h4q40 -5 40 -40h-20q-14 16 -28 16h-8q-12 0 -20 -36v-4q16 16 44 16q36 -10 36 -56q0 -42 -52 -48q-56 0 -56 76t60 76zM1008 1436q56 0 56 -72 q0 -80 -60 -80h-4q-40 8 -40 40h28q2 -16 12 -16h4q32 0 32 44q-16 -16 -44 -16q-36 12 -36 52q0 42 52 48zM1132 1436q44 -8 44 -44v-4q0 -30 -56 -64l-8 -12h64v-24h-104v4q0 27 72 84q4 7 4 16v4q0 6 -16 16q-28 0 -28 -36h-28v4q0 56 56 56zM1236 1436h12q44 -7 44 -44 q-7 -20 -20 -20q24 -19 24 -40q0 -48 -52 -48h-4q-43 0 -52 40v8q5 32 24 32v8q-20 0 -20 28q0 27 44 36zM720 1432h100v-24q-48 -53 -48 -120h-28q0 50 44 116h-68v28zM400 1384q0 -16 16 -24h16q6 0 16 16v20q0 6 -16 16h-16q-16 -6 -16 -28zM520 1400v-12q4 -12 24 -12 q20 3 20 12v12q0 6 -12 12h-20q-6 0 -12 -12zM632 1384q0 -16 16 -24h16q6 0 16 16v20q0 6 -16 16h-16q-16 -6 -16 -28zM984 1384q0 -16 16 -24h16q6 0 16 16v20q0 6 -16 16h-16q-16 -6 -16 -28zM1220 1400v-12q4 -12 24 -12q20 3 20 12v12q0 6 -12 12h-20q-6 0 -12 -12z M876 1348v-24q0 -6 16 -16h16q16 7 16 28q0 22 -16 28h-16q-6 0 -16 -16zM516 1340v-16q0 -6 16 -16h20q6 0 16 16v16q-6 16 -28 16q-16 0 -24 -16zM1216 1340v-16q0 -6 16 -16h20q6 0 16 16v16q-6 16 -28 16q-16 0 -24 -16zM328 1320h32v-32h-32v32zM1420 1312q36 0 36 -32 l-12 -20q16 -6 16 -28q-12 -28 -36 -28h-4q-36 0 -36 36l12 20q-12 13 -12 20q0 32 36 32zM1404 1284v-12l20 -4q8 4 12 4v12q0 6 -12 12h-8q-6 0 -12 -12zM1404 1240v-8q0 -6 12 -12h12q6 0 12 12v8q0 6 -12 12h-12q-6 0 -12 -12zM1420 1172h16v-104h-20v68h-24v16 q28 0 28 20zM264 1092h132q17 -17 256 -412h4v412h128v-616h-132q-16 12 -256 412h-4v-412h-128v616zM1064 932q192 0 192 -136v-228q0 -68 16 -92h-120q-12 3 -12 32v8h-4q-62 -52 -144 -52q-152 16 -152 108q-4 6 -4 24q0 101 108 128q188 20 188 56v16q0 56 -80 56 q-80 -7 -80 -68h-120q0 91 96 128q56 20 116 20zM960 604v-4q0 -56 76 -56q78 0 96 76v72q-19 -11 -140 -36q-32 -21 -32 -52zM140 232h24v-144h-28v92h-36v24q40 0 40 28zM256 232h24v-144h-28v92h-36v24q40 0 40 28z" />
<glyph unicode="&#x26;" horiz-adv-x="1620" d="M40 1528h1448q40 -5 40 -40v-1448q-5 -40 -40 -40h-1448q-40 5 -40 40v1448q5 40 40 40zM40 1488v-1448h1448v1448h-1448zM1432 1448q25 0 28 -40q0 -11 -48 -52h48v-16h-80q0 22 56 64q4 7 4 16q0 6 -12 12q-24 0 -24 -24h-20v4q0 36 48 36zM148 1436q44 -8 44 -44v-4 q0 -30 -56 -64l-8 -12h64v-24h-104v4q0 27 72 84q4 7 4 16v4q0 6 -16 16q-28 0 -28 -36h-28v4q0 56 56 56zM252 1436h12q44 -7 44 -44q-7 -20 -20 -20q24 -19 24 -40q0 -48 -52 -48h-4q-43 0 -52 40v8q5 32 24 32v8q-20 0 -20 28q0 27 44 36zM420 1436h12q48 0 48 -76 t-48 -76h-12q-48 0 -48 76t48 76zM536 1436h12q44 -7 44 -44q-7 -20 -20 -20q24 -19 24 -40q0 -48 -52 -48h-4q-43 0 -52 40v8q5 32 24 32v8q-20 0 -20 28q0 27 44 36zM624 1432h80v-24h-60q0 -10 -4 -32q15 12 28 12q44 0 44 -56q-11 -48 -48 -48h-12q-48 11 -48 44h32 q0 -20 24 -20h8q16 7 16 28q0 22 -16 28h-8q-20 0 -20 -12h-28q0 13 12 80zM736 1432h80v-24h-60q0 -10 -4 -32q15 12 28 12q44 0 44 -56q-11 -48 -48 -48h-12q-48 11 -48 44h32q0 -20 24 -20h8q16 7 16 28q0 22 -16 28h-8q-20 0 -20 -12h-28q0 13 12 80zM236 1400v-12 q4 -12 24 -12q20 3 20 12v12q0 6 -12 12h-20q-6 0 -12 -12zM400 1372v-24q0 -40 28 -40q24 0 24 40v24q0 40 -28 40q-24 0 -24 -40zM520 1400v-12q4 -12 24 -12q20 3 20 12v12q0 6 -12 12h-20q-6 0 -12 -12zM232 1340v-16q0 -6 16 -16h20q6 0 16 16v16q-6 16 -28 16 q-16 0 -24 -16zM516 1340v-16q0 -6 16 -16h20q6 0 16 16v16q-6 16 -28 16q-16 0 -24 -16zM328 1320h32v-32h-32v32zM1420 1312q36 0 36 -32l-12 -20q16 -6 16 -28q-12 -28 -36 -28h-4q-36 0 -36 36l12 20q-12 13 -12 20q0 32 36 32zM1404 1284v-12l20 -4q8 4 12 4v12 q0 6 -12 12h-8q-6 0 -12 -12zM1404 1240v-8q0 -6 12 -12h12q6 0 12 12v8q0 6 -12 12h-12q-6 0 -12 -12zM1420 1172h16v-64h12v-16h-12v-24h-20v24h-44v16q19 31 48 64zM1412 1144q0 -8 -20 -32v-4h24v36h-4zM660 1104q180 0 236 -136l8 -60h-132q0 92 -124 92q-81 0 -92 -64 v-12q0 -52 168 -80q200 -43 200 -188q0 -121 -136 -172q-52 -20 -124 -20q-163 0 -236 116q-24 44 -24 100h132q0 -78 80 -104q30 -8 56 -8q120 9 120 68v8q0 73 -200 104q-119 37 -152 96q-16 43 -16 80q0 128 168 172q43 8 68 8zM956 1092h124v-100h-124v100zM956 920h124 v-444h-124v444zM140 232h24v-144h-28v92h-36v24q40 0 40 28zM268 232h24v-88h20v-24h-20v-32h-28v32h-60v28q61 84 64 84zM228 144h36v48q-8 -3 -36 -48z" />
<glyph unicode="'" horiz-adv-x="346" />
<glyph unicode="(" d="M40 1528h1448q40 -5 40 -40v-1448q-5 -40 -40 -40h-1448q-40 5 -40 40v1448q5 40 40 40zM40 1488v-1448h1448v1448h-1448zM1432 1448q25 0 28 -40q0 -11 -48 -52h48v-16h-80q0 22 56 64q4 7 4 16q0 6 -12 12q-24 0 -24 -24h-20v4q0 36 48 36zM144 1436h4q44 -8 44 -40 q0 -14 -16 -32v-4q20 0 20 -28q0 -48 -52 -48h-4q-52 6 -52 48v8h28q0 -27 16 -32h20q6 0 16 16v16q-5 16 -36 16v20q32 0 32 12v12q0 6 -12 12h-16q-13 0 -16 -28h-28q0 52 52 52zM660 1436h4q44 -8 44 -40q0 -14 -16 -32v-4q20 0 20 -28q0 -48 -52 -48h-4q-52 6 -52 48v8 h28q0 -27 16 -32h20q6 0 16 16v16q-5 16 -36 16v20q32 0 32 12v12q0 6 -12 12h-16q-13 0 -16 -28h-28q0 52 52 52zM224 1432h80v-24h-60q0 -10 -4 -32q15 12 28 12q44 0 44 -56q-11 -48 -48 -48h-12q-48 11 -48 44h32q0 -20 24 -20h8q16 7 16 28q0 22 -16 28h-8 q-20 0 -20 -12h-28q0 13 12 80zM436 1432h24v-88h20v-24h-20v-32h-28v32h-60v28q61 84 64 84zM508 1432h80v-24h-60q0 -10 -4 -32q15 12 28 12q44 0 44 -56q-11 -48 -48 -48h-12q-48 11 -48 44h32q0 -20 24 -20h8q16 7 16 28q0 22 -16 28h-8q-20 0 -20 -12h-28q0 13 12 80z M396 1344h36v48q-8 -3 -36 -48zM328 1320h32v-32h-32v32zM1420 1312q36 0 36 -32l-12 -20q16 -6 16 -28q-12 -28 -36 -28h-4q-36 0 -36 36l12 20q-12 13 -12 20q0 32 36 32zM1404 1284v-12l20 -4q8 4 12 4v12q0 6 -12 12h-8q-6 0 -12 -12zM1404 1240v-8q0 -6 12 -12h12 q6 0 12 12v8q0 6 -12 12h-12q-6 0 -12 -12zM1372 1172h72v-4q0 -9 -28 -56q-8 -28 -8 -44h-20q0 33 32 84h-48v20zM680 1104q191 0 256 -176q8 -34 8 -44h-132q0 74 -108 104q-15 4 -32 4q-114 0 -152 -136q-8 -32 -8 -76q0 -146 104 -192q32 -12 68 -12q81 0 120 84 q14 52 20 52h124q0 -135 -136 -216q-64 -32 -132 -32q-227 0 -296 236q-8 50 -8 84q0 235 216 308q35 8 88 12zM996 1092h124v-616h-124v616zM140 232h24v-144h-28v92h-36v24q40 0 40 28zM208 232h100v-24q-48 -53 -48 -120h-28q0 50 44 116h-68v28z" />
<glyph unicode=")" horiz-adv-x="1634" d="M40 1528h1448q40 -5 40 -40v-1448q-5 -40 -40 -40h-1448q-40 5 -40 40v1448q5 40 40 40zM40 1488v-1448h1448v1448h-1448zM1432 1448q25 0 28 -40q0 -11 -48 -52h48v-16h-80q0 22 56 64q4 7 4 16q0 6 -12 12q-24 0 -24 -24h-20v4q0 36 48 36zM144 1436h4q44 -8 44 -40 q0 -14 -16 -32v-4q20 0 20 -28q0 -48 -52 -48h-4q-52 6 -52 48v8h28q0 -27 16 -32h20q6 0 16 16v16q-5 16 -36 16v20q32 0 32 12v12q0 6 -12 12h-16q-13 0 -16 -28h-28q0 52 52 52zM256 1436q56 0 56 -72q0 -80 -60 -80h-4q-40 8 -40 40h28q2 -16 12 -16h4q32 0 32 44 q-16 -16 -44 -16q-36 12 -36 52q0 42 52 48zM424 1436q56 0 56 -72q0 -80 -60 -80h-4q-40 8 -40 40h28q2 -16 12 -16h4q32 0 32 44q-16 -16 -44 -16q-36 12 -36 52q0 42 52 48zM652 1436h12q44 -7 44 -44q-7 -20 -20 -20q24 -19 24 -40q0 -48 -52 -48h-4q-43 0 -52 40v8 q5 32 24 32v8q-20 0 -20 28q0 27 44 36zM552 1432h24v-88h20v-24h-20v-32h-28v32h-60v28q61 84 64 84zM232 1384q0 -16 16 -24h16q6 0 16 16v20q0 6 -16 16h-16q-16 -6 -16 -28zM400 1384q0 -16 16 -24h16q6 0 16 16v20q0 6 -16 16h-16q-16 -6 -16 -28zM636 1400v-12 q4 -12 24 -12q20 3 20 12v12q0 6 -12 12h-20q-6 0 -12 -12zM512 1344h36v48q-8 -3 -36 -48zM632 1340v-16q0 -6 16 -16h20q6 0 16 16v16q-6 16 -28 16q-16 0 -24 -16zM328 1320h32v-32h-32v32zM1420 1312q36 0 36 -32l-12 -20q16 -6 16 -28q-12 -28 -36 -28h-4q-36 0 -36 36 l12 20q-12 13 -12 20q0 32 36 32zM1404 1284v-12l20 -4q8 4 12 4v12q0 6 -12 12h-8q-6 0 -12 -12zM1404 1240v-8q0 -6 12 -12h12q6 0 12 12v8q0 6 -12 12h-12q-6 0 -12 -12zM1420 1176q36 0 36 -32l-12 -20q16 -6 16 -28q-12 -28 -36 -28h-4q-36 0 -36 36l12 20 q-12 13 -12 20q0 32 36 32zM1404 1148v-12l20 -4q8 4 12 4v12q0 6 -12 12h-8q-6 0 -12 -12zM1404 1104v-8q0 -6 12 -12h12q6 0 12 12v8q0 6 -12 12h-12q-6 0 -12 -12zM528 1092h136q10 0 112 -292q8 -12 124 -324h-136q-8 0 -52 136h-232l-44 -136h-140q232 606 232 616z M596 940l-76 -228h156l-76 228h-4zM1176 932l24 -4v-112l-48 4q-112 -15 -112 -108q-4 0 -4 -28v-208h-124v444h116v-84h4q46 96 144 96zM252 236h12q44 -7 44 -44q-7 -20 -20 -20q24 -19 24 -40q0 -48 -52 -48h-4q-43 0 -52 40v8q5 32 24 32v8q-20 0 -20 28q0 27 44 36z M140 232h24v-144h-28v92h-36v24q40 0 40 28zM236 200v-12q4 -12 24 -12q20 3 20 12v12q0 6 -12 12h-20q-6 0 -12 -12zM232 140v-16q0 -6 16 -16h20q6 0 16 16v16q-6 16 -28 16q-16 0 -24 -16z" />
<glyph unicode="*" d="M40 1528h1448q40 -5 40 -40v-1448q-5 -40 -40 -40h-1448q-40 5 -40 40v1448q5 40 40 40zM40 1488v-1448h1448v1448h-1448zM1432 1448q25 0 28 -40q0 -11 -48 -52h48v-16h-80q0 22 56 64q4 7 4 16q0 6 -12 12q-24 0 -24 -24h-20v4q0 36 48 36zM252 1436h12q48 0 48 -76 t-48 -76h-12q-48 0 -48 76t48 76zM420 1436h12q48 0 48 -76t-48 -76h-12q-48 0 -48 76t48 76zM660 1436h12q44 -7 44 -44q-7 -20 -20 -20q24 -19 24 -40q0 -48 -52 -48h-4q-43 0 -52 40v8q5 32 24 32v8q-20 0 -20 28q0 27 44 36zM152 1432h24v-88h20v-24h-20v-32h-28v32h-60 v28q61 84 64 84zM492 1432h100v-24q-48 -53 -48 -120h-28q0 50 44 116h-68v28zM232 1372v-24q0 -40 28 -40q24 0 24 40v24q0 40 -28 40q-24 0 -24 -40zM400 1372v-24q0 -40 28 -40q24 0 24 40v24q0 40 -28 40q-24 0 -24 -40zM644 1400v-12q4 -12 24 -12q20 3 20 12v12 q0 6 -12 12h-20q-6 0 -12 -12zM112 1344h36v48q-8 -3 -36 -48zM640 1340v-16q0 -6 16 -16h20q6 0 16 16v16q-6 16 -28 16q-16 0 -24 -16zM328 1320h32v-32h-32v32zM1420 1312q36 0 36 -32l-12 -20q16 -6 16 -28q-12 -28 -36 -28h-4q-36 0 -36 36l12 20q-12 13 -12 20 q0 32 36 32zM1404 1284v-12l20 -4q8 4 12 4v12q0 6 -12 12h-8q-6 0 -12 -12zM1404 1240v-8q0 -6 12 -12h12q6 0 12 12v8q0 6 -12 12h-12q-6 0 -12 -12zM1420 1176q36 0 36 -32l-12 -20q16 -6 16 -28q-12 -28 -36 -28h-4q-36 0 -36 36l12 20q-12 13 -12 20q0 32 36 32z M1404 1148v-12l20 -4q8 4 12 4v12q0 6 -12 12h-8q-6 0 -12 -12zM1404 1104v-8q0 -6 12 -12h12q6 0 12 12v8q0 6 -12 12h-12q-6 0 -12 -12zM540 1104q191 0 256 -176q8 -34 8 -44h-132q0 74 -108 104q-15 4 -32 4q-114 0 -152 -136q-8 -32 -8 -76q0 -146 104 -192 q32 -12 68 -12q81 0 120 84q14 52 20 52h124q0 -135 -136 -216q-64 -32 -132 -32q-227 0 -296 236q-8 50 -8 84q0 235 216 308q35 8 88 12zM1432 1040q25 0 28 -40q0 -11 -48 -52h48v-16h-80q0 22 56 64q4 7 4 16q0 6 -12 12q-24 0 -24 -24h-20v4q0 36 48 36zM1064 932 q192 0 192 -136v-228q0 -68 16 -92h-120q-12 3 -12 32v8h-4q-62 -52 -144 -52q-152 16 -152 108q-4 6 -4 24q0 101 108 128q188 20 188 56v16q0 56 -80 56q-80 -7 -80 -68h-120q0 91 96 128q56 20 116 20zM960 604v-4q0 -56 76 -56q78 0 96 76v72q-19 -11 -140 -36 q-32 -21 -32 -52zM148 236q44 -8 44 -44v-4q0 -30 -56 -64l-8 -12h64v-24h-104v4q0 27 72 84q4 7 4 16v4q0 6 -16 16q-28 0 -28 -36h-28v4q0 56 56 56zM252 236h12q48 0 48 -76t-48 -76h-12q-48 0 -48 76t48 76zM232 172v-24q0 -40 28 -40q24 0 24 40v24q0 40 -28 40 q-24 0 -24 -40z" />
<glyph unicode="+" d="M40 1528h1448q40 -5 40 -40v-1448q-5 -40 -40 -40h-1448q-40 5 -40 40v1448q5 40 40 40zM40 1488v-1448h1448v1448h-1448zM1432 1448q25 0 28 -40q0 -11 -48 -52h48v-16h-80q0 22 56 64q4 7 4 16q0 6 -12 12q-24 0 -24 -24h-20v4q0 36 48 36zM424 1436q56 0 56 -72 q0 -80 -60 -80h-4q-40 8 -40 40h28q2 -16 12 -16h4q32 0 32 44q-16 -16 -44 -16q-36 12 -36 52q0 42 52 48zM768 1436q56 0 56 -72q0 -80 -60 -80h-4q-40 8 -40 40h28q2 -16 12 -16h4q32 0 32 44q-16 -16 -44 -16q-36 12 -36 52q0 42 52 48zM1008 1436q44 -8 44 -44v-4 q0 -30 -56 -64l-8 -12h64v-24h-104v4q0 27 72 84q4 7 4 16v4q0 6 -16 16q-28 0 -28 -36h-28v4q0 56 56 56zM152 1432h24v-88h20v-24h-20v-32h-28v32h-60v28q61 84 64 84zM268 1432h24v-88h20v-24h-20v-32h-28v32h-60v28q61 84 64 84zM508 1432h80v-24h-60q0 -10 -4 -32 q15 12 28 12q44 0 44 -56q-11 -48 -48 -48h-12q-48 11 -48 44h32q0 -20 24 -20h8q16 7 16 28q0 22 -16 28h-8q-20 0 -20 -12h-28q0 13 12 80zM624 1432h80v-24h-60q0 -10 -4 -32q15 12 28 12q44 0 44 -56q-11 -48 -48 -48h-12q-48 11 -48 44h32q0 -20 24 -20h8q16 7 16 28 q0 22 -16 28h-8q-20 0 -20 -12h-28q0 13 12 80zM884 1432h24v-144h-28v92h-36v24q40 0 40 28zM400 1384q0 -16 16 -24h16q6 0 16 16v20q0 6 -16 16h-16q-16 -6 -16 -28zM744 1384q0 -16 16 -24h16q6 0 16 16v20q0 6 -16 16h-16q-16 -6 -16 -28zM112 1344h36v48 q-8 -3 -36 -48zM228 1344h36v48q-8 -3 -36 -48zM328 1320h32v-32h-32v32zM1420 1312q36 0 36 -32l-12 -20q16 -6 16 -28q-12 -28 -36 -28h-4q-36 0 -36 36l12 20q-12 13 -12 20q0 32 36 32zM1404 1284v-12l20 -4q8 4 12 4v12q0 6 -12 12h-8q-6 0 -12 -12zM1404 1240v-8 q0 -6 12 -12h12q6 0 12 12v8q0 6 -12 12h-12q-6 0 -12 -12zM1428 1176q23 0 32 -44v-8q-5 -56 -40 -56q-22 0 -32 20v8h20q0 -12 8 -12h8q12 0 12 28q-13 -8 -20 -8q-32 0 -32 36t44 36zM1404 1136q6 -16 12 -16h8q6 0 12 12v16q0 6 -12 12h-8q-12 -4 -12 -24zM520 1104 q180 0 236 -136l8 -60h-132q0 92 -124 92q-81 0 -92 -64v-12q0 -52 168 -80q200 -43 200 -188q0 -121 -136 -172q-52 -20 -124 -20q-163 0 -236 116q-24 44 -24 100h132q0 -78 80 -104q30 -8 56 -8q120 9 120 68v8q0 73 -200 104q-119 37 -152 96q-16 43 -16 80 q0 128 168 172q43 8 68 8zM1432 1040q25 0 28 -40q0 -11 -48 -52h48v-16h-80q0 22 56 64q4 7 4 16q0 6 -12 12q-24 0 -24 -24h-20v4q0 36 48 36zM1032 932q161 0 204 -144q0 -18 4 -24h-124q0 76 -92 76q-63 0 -92 -80q-8 -32 -8 -68q0 -107 80 -136h28q58 0 84 64 q5 28 12 28h112v-4q0 -80 -92 -152q-60 -28 -128 -28q-167 0 -216 180l-4 48q0 184 168 232q23 8 64 8zM148 236q44 -8 44 -44v-4q0 -30 -56 -64l-8 -12h64v-24h-104v4q0 27 72 84q4 7 4 16v4q0 6 -16 16q-28 0 -28 -36h-28v4q0 56 56 56zM256 232h24v-144h-28v92h-36v24 q40 0 40 28z" />
<glyph unicode="," horiz-adv-x="1620" d="M40 1528h1448q40 -5 40 -40v-1448q-5 -40 -40 -40h-1448q-40 5 -40 40v1448q5 40 40 40zM40 1488v-1448h1448v1448h-1448zM1432 1448q25 0 28 -40q0 -11 -48 -52h48v-16h-80q0 22 56 64q4 7 4 16q0 6 -12 12q-24 0 -24 -24h-20v4q0 36 48 36zM424 1436q56 0 56 -72 q0 -80 -60 -80h-4q-40 8 -40 40h28q2 -16 12 -16h4q32 0 32 44q-16 -16 -44 -16q-36 12 -36 52q0 42 52 48zM540 1436q56 0 56 -72q0 -80 -60 -80h-4q-40 8 -40 40h28q2 -16 12 -16h4q32 0 32 44q-16 -16 -44 -16q-36 12 -36 52q0 42 52 48zM664 1436h4q40 -5 40 -40h-20 q-14 16 -28 16h-8q-12 0 -20 -36v-4q16 16 44 16q36 -10 36 -56q0 -42 -52 -48q-56 0 -56 76t60 76zM108 1432h80v-24h-60q0 -10 -4 -32q15 12 28 12q44 0 44 -56q-11 -48 -48 -48h-12q-48 11 -48 44h32q0 -20 24 -20h8q16 7 16 28q0 22 -16 28h-8q-20 0 -20 -12h-28 q0 13 12 80zM256 1432h24v-144h-28v92h-36v24q40 0 40 28zM768 1432h24v-144h-28v92h-36v24q40 0 40 28zM400 1384q0 -16 16 -24h16q6 0 16 16v20q0 6 -16 16h-16q-16 -6 -16 -28zM516 1384q0 -16 16 -24h16q6 0 16 16v20q0 6 -16 16h-16q-16 -6 -16 -28zM636 1348v-24 q0 -6 16 -16h16q16 7 16 28q0 22 -16 28h-16q-6 0 -16 -16zM328 1320h32v-32h-32v32zM1420 1312q36 0 36 -32l-12 -20q16 -6 16 -28q-12 -28 -36 -28h-4q-36 0 -36 36l12 20q-12 13 -12 20q0 32 36 32zM1404 1284v-12l20 -4q8 4 12 4v12q0 6 -12 12h-8q-6 0 -12 -12z M1404 1240v-8q0 -6 12 -12h12q6 0 12 12v8q0 6 -12 12h-12q-6 0 -12 -12zM1420 1176q36 -3 36 -28q-8 -25 -8 -28q6 0 12 -12v-4q0 -36 -36 -36q-40 4 -40 36h20q3 -20 12 -20h12q6 0 12 12v8q0 12 -24 12v16l20 4v12q0 6 -12 12h-8q-11 0 -12 -20h-20q5 36 36 36z M1336 1172h16v-104h-20v68h-24v16q28 0 28 20zM620 1104q191 0 256 -176q8 -34 8 -44h-132q0 74 -108 104q-15 4 -32 4q-114 0 -152 -136q-8 -32 -8 -76q0 -146 104 -192q32 -12 68 -12q81 0 120 84q14 52 20 52h124q0 -135 -136 -216q-64 -32 -132 -32q-227 0 -296 236 q-8 50 -8 84q0 235 216 308q35 8 88 12zM1420 1036h16v-104h-20v68h-24v16q28 0 28 20zM1196 932l24 -4v-112l-48 4q-112 -15 -112 -108q-4 0 -4 -28v-208h-124v444h116v-84h4q46 96 144 96zM148 236q44 -8 44 -44v-4q0 -30 -56 -64l-8 -12h64v-24h-104v4q0 27 72 84 q4 7 4 16v4q0 6 -16 16q-28 0 -28 -36h-28v4q0 56 56 56zM268 232h24v-88h20v-24h-20v-32h-28v32h-60v28q61 84 64 84zM228 144h36v48q-8 -3 -36 -48z" />
<glyph unicode="-" d="M40 1528h1448q40 -5 40 -40v-1448q-5 -40 -40 -40h-1448q-40 5 -40 40v1448q5 40 40 40zM40 1488v-1448h1448v1448h-1448zM1432 1448q25 0 28 -40q0 -11 -48 -52h48v-16h-80q0 22 56 64q4 7 4 16q0 6 -12 12q-24 0 -24 -24h-20v4q0 36 48 36zM424 1436q56 0 56 -72 q0 -80 -60 -80h-4q-40 8 -40 40h28q2 -16 12 -16h4q32 0 32 44q-16 -16 -44 -16q-36 12 -36 52q0 42 52 48zM544 1436h4q44 -8 44 -40q0 -14 -16 -32v-4q20 0 20 -28q0 -48 -52 -48h-4q-52 6 -52 48v8h28q0 -27 16 -32h20q6 0 16 16v16q-5 16 -36 16v20q32 0 32 12v12 q0 6 -12 12h-16q-13 0 -16 -28h-28q0 52 52 52zM652 1436h12q44 -7 44 -44q-7 -20 -20 -20q24 -19 24 -40q0 -48 -52 -48h-4q-43 0 -52 40v8q5 32 24 32v8q-20 0 -20 28q0 27 44 36zM764 1436h12q48 0 48 -76t-48 -76h-12q-48 0 -48 76t48 76zM108 1432h80v-24h-60 q0 -10 -4 -32q15 12 28 12q44 0 44 -56q-11 -48 -48 -48h-12q-48 11 -48 44h32q0 -20 24 -20h8q16 7 16 28q0 22 -16 28h-8q-20 0 -20 -12h-28q0 13 12 80zM268 1432h24v-88h20v-24h-20v-32h-28v32h-60v28q61 84 64 84zM896 1432h24v-88h20v-24h-20v-32h-28v32h-60v28 q61 84 64 84zM968 1432h80v-24h-60q0 -10 -4 -32q15 12 28 12q44 0 44 -56q-11 -48 -48 -48h-12q-48 11 -48 44h32q0 -20 24 -20h8q16 7 16 28q0 22 -16 28h-8q-20 0 -20 -12h-28q0 13 12 80zM400 1384q0 -16 16 -24h16q6 0 16 16v20q0 6 -16 16h-16q-16 -6 -16 -28z M636 1400v-12q4 -12 24 -12q20 3 20 12v12q0 6 -12 12h-20q-6 0 -12 -12zM744 1372v-24q0 -40 28 -40q24 0 24 40v24q0 40 -28 40q-24 0 -24 -40zM228 1344h36v48q-8 -3 -36 -48zM856 1344h36v48q-8 -3 -36 -48zM632 1340v-16q0 -6 16 -16h20q6 0 16 16v16q-6 16 -28 16 q-16 0 -24 -16zM328 1320h32v-32h-32v32zM1420 1312q36 0 36 -32l-12 -20q16 -6 16 -28q-12 -28 -36 -28h-4q-36 0 -36 36l12 20q-12 13 -12 20q0 32 36 32zM1404 1284v-12l20 -4q8 4 12 4v12q0 6 -12 12h-8q-6 0 -12 -12zM1404 1240v-8q0 -6 12 -12h12q6 0 12 12v8 q0 6 -12 12h-12q-6 0 -12 -12zM1420 1176q36 -3 36 -28q-8 -25 -8 -28q6 0 12 -12v-4q0 -36 -36 -36q-40 4 -40 36h20q3 -20 12 -20h12q6 0 12 12v8q0 12 -24 12v16l20 4v12q0 6 -12 12h-8q-11 0 -12 -20h-20q5 36 36 36zM1336 1172h16v-104h-20v68h-24v16q28 0 28 20z M180 1092h192l140 -420h8q12 45 132 420h192v-616h-128v432h-4q-144 -432 -152 -432h-96q-8 0 -152 428h-4v-428h-128v616zM1432 1040q25 0 28 -40q0 -11 -48 -52h48v-16h-80q0 22 56 64q4 7 4 16q0 6 -12 12q-24 0 -24 -24h-20v4q0 36 48 36zM1176 932q113 0 148 -88 q12 -55 12 -112v-256h-124v260q0 100 -72 100h-4q-96 0 -96 -112v-248h-124v444h116v-60h8q45 72 136 72zM148 236q44 -8 44 -44v-4q0 -30 -56 -64l-8 -12h64v-24h-104v4q0 27 72 84q4 7 4 16v4q0 6 -16 16q-28 0 -28 -36h-28v4q0 56 56 56zM224 232h80v-24h-60 q0 -10 -4 -32q15 12 28 12q44 0 44 -56q-11 -48 -48 -48h-12q-48 11 -48 44h32q0 -20 24 -20h8q16 7 16 28q0 22 -16 28h-8q-20 0 -20 -12h-28q0 13 12 80z" />
<glyph unicode="." horiz-adv-x="1630" d="M40 1528h1448q40 -5 40 -40v-1448q-5 -40 -40 -40h-1448q-40 5 -40 40v1448q5 40 40 40zM40 1488v-1448h1448v1448h-1448zM1432 1448q25 0 28 -40q0 -11 -48 -52h48v-16h-80q0 22 56 64q4 7 4 16q0 6 -12 12q-24 0 -24 -24h-20v4q0 36 48 36zM420 1436h12q44 -7 44 -44 q-7 -20 -20 -20q24 -19 24 -40q0 -48 -52 -48h-4q-43 0 -52 40v8q5 32 24 32v8q-20 0 -20 28q0 27 44 36zM108 1432h80v-24h-60q0 -10 -4 -32q15 12 28 12q44 0 44 -56q-11 -48 -48 -48h-12q-48 11 -48 44h32q0 -20 24 -20h8q16 7 16 28q0 22 -16 28h-8q-20 0 -20 -12h-28 q0 13 12 80zM224 1432h80v-24h-60q0 -10 -4 -32q15 12 28 12q44 0 44 -56q-11 -48 -48 -48h-12q-48 11 -48 44h32q0 -20 24 -20h8q16 7 16 28q0 22 -16 28h-8q-20 0 -20 -12h-28q0 13 12 80zM552 1432h24v-88h20v-24h-20v-32h-28v32h-60v28q61 84 64 84zM624 1432h80v-24 h-60q0 -10 -4 -32q15 12 28 12q44 0 44 -56q-11 -48 -48 -48h-12q-48 11 -48 44h32q0 -20 24 -20h8q16 7 16 28q0 22 -16 28h-8q-20 0 -20 -12h-28q0 13 12 80zM404 1400v-12q4 -12 24 -12q20 3 20 12v12q0 6 -12 12h-20q-6 0 -12 -12zM512 1344h36v48q-8 -3 -36 -48z M400 1340v-16q0 -6 16 -16h20q6 0 16 16v16q-6 16 -28 16q-16 0 -24 -16zM328 1320h32v-32h-32v32zM1420 1312q36 0 36 -32l-12 -20q16 -6 16 -28q-12 -28 -36 -28h-4q-36 0 -36 36l12 20q-12 13 -12 20q0 32 36 32zM1404 1284v-12l20 -4q8 4 12 4v12q0 6 -12 12h-8 q-6 0 -12 -12zM1404 1240v-8q0 -6 12 -12h12q6 0 12 12v8q0 6 -12 12h-12q-6 0 -12 -12zM1324 1172h16v-104h-20v68h-24v16q28 0 28 20zM1420 1172h16v-64h12v-16h-12v-24h-20v24h-44v16q19 31 48 64zM1412 1144q0 -8 -20 -32v-4h24v36h-4zM324 1092h432v-112h-296v-144h256 v-104h-256v-256h-136v616zM1432 1040q25 0 28 -40q0 -11 -48 -52h48v-16h-80q0 22 56 64q4 7 4 16q0 6 -12 12q-24 0 -24 -24h-20v4q0 36 48 36zM1004 932q148 0 204 -160q8 -38 8 -60v-40h-320v-4q0 -90 80 -108q5 -4 28 -4h8q88 18 88 60h108q0 -42 -68 -108 q-53 -44 -144 -44q-190 0 -224 216v24q0 169 180 224q34 4 52 4zM896 748h200q-23 88 -76 88q0 4 -24 4h-8q-92 -16 -92 -92zM148 236q44 -8 44 -44v-4q0 -30 -56 -64l-8 -12h64v-24h-104v4q0 27 72 84q4 7 4 16v4q0 6 -16 16q-28 0 -28 -36h-28v4q0 56 56 56zM264 236h4 q40 -5 40 -40h-20q-14 16 -28 16h-8q-12 0 -20 -36v-4q16 16 44 16q36 -10 36 -56q0 -42 -52 -48q-56 0 -56 76t60 76zM236 148v-24q0 -6 16 -16h16q16 7 16 28q0 22 -16 28h-16q-6 0 -16 -16z" />
<glyph unicode="/" horiz-adv-x="1630" d="M40 1528h1448q40 -5 40 -40v-1448q-5 -40 -40 -40h-1448q-40 5 -40 40v1448q5 40 40 40zM40 1488v-1448h1448v1448h-1448zM1432 1448q25 0 28 -40q0 -11 -48 -52h48v-16h-80q0 22 56 64q4 7 4 16q0 6 -12 12q-24 0 -24 -24h-20v4q0 36 48 36zM252 1436h12q44 -7 44 -44 q-7 -20 -20 -20q24 -19 24 -40q0 -48 -52 -48h-4q-43 0 -52 40v8q5 32 24 32v8q-20 0 -20 28q0 27 44 36zM424 1436q56 0 56 -72q0 -80 -60 -80h-4q-40 8 -40 40h28q2 -16 12 -16h4q32 0 32 44q-16 -16 -44 -16q-36 12 -36 52q0 42 52 48zM544 1436h4q44 -8 44 -40 q0 -14 -16 -32v-4q20 0 20 -28q0 -48 -52 -48h-4q-52 6 -52 48v8h28q0 -27 16 -32h20q6 0 16 16v16q-5 16 -36 16v20q32 0 32 12v12q0 6 -12 12h-16q-13 0 -16 -28h-28q0 52 52 52zM660 1436h4q44 -8 44 -40q0 -14 -16 -32v-4q20 0 20 -28q0 -48 -52 -48h-4q-52 6 -52 48v8 h28q0 -27 16 -32h20q6 0 16 16v16q-5 16 -36 16v20q32 0 32 12v12q0 6 -12 12h-16q-13 0 -16 -28h-28q0 52 52 52zM884 1436q56 0 56 -72q0 -80 -60 -80h-4q-40 8 -40 40h28q2 -16 12 -16h4q32 0 32 44q-16 -16 -44 -16q-36 12 -36 52q0 42 52 48zM108 1432h80v-24h-60 q0 -10 -4 -32q15 12 28 12q44 0 44 -56q-11 -48 -48 -48h-12q-48 11 -48 44h32q0 -20 24 -20h8q16 7 16 28q0 22 -16 28h-8q-20 0 -20 -12h-28q0 13 12 80zM768 1432h24v-144h-28v92h-36v24q40 0 40 28zM968 1432h80v-24h-60q0 -10 -4 -32q15 12 28 12q44 0 44 -56 q-11 -48 -48 -48h-12q-48 11 -48 44h32q0 -20 24 -20h8q16 7 16 28q0 22 -16 28h-8q-20 0 -20 -12h-28q0 13 12 80zM236 1400v-12q4 -12 24 -12q20 3 20 12v12q0 6 -12 12h-20q-6 0 -12 -12zM400 1384q0 -16 16 -24h16q6 0 16 16v20q0 6 -16 16h-16q-16 -6 -16 -28z M860 1384q0 -16 16 -24h16q6 0 16 16v20q0 6 -16 16h-16q-16 -6 -16 -28zM232 1340v-16q0 -6 16 -16h20q6 0 16 16v16q-6 16 -28 16q-16 0 -24 -16zM328 1320h32v-32h-32v32zM1420 1312q36 0 36 -32l-12 -20q16 -6 16 -28q-12 -28 -36 -28h-4q-36 0 -36 36l12 20 q-12 13 -12 20q0 32 36 32zM1404 1284v-12l20 -4q8 4 12 4v12q0 6 -12 12h-8q-6 0 -12 -12zM1404 1240v-8q0 -6 12 -12h12q6 0 12 12v8q0 6 -12 12h-12q-6 0 -12 -12zM1336 1172h16v-104h-20v68h-24v16q28 0 28 20zM1396 1172h60v-16h-44l-4 -24q13 8 20 8q32 0 32 -36 q-5 -36 -36 -36h-4q-36 6 -36 32h16q14 -16 28 -16q12 4 12 24q-6 16 -12 16h-12l-12 -8h-16q8 48 8 56zM524 1104q191 0 256 -176q8 -34 8 -44h-132q0 74 -108 104q-15 4 -32 4q-114 0 -152 -136q-8 -32 -8 -76q0 -146 104 -192q32 -12 68 -12q81 0 120 84q14 52 20 52h124 q0 -135 -136 -216q-64 -32 -132 -32q-227 0 -296 236q-8 50 -8 84q0 235 216 308q35 8 88 12zM1432 1040q25 0 28 -40q0 -11 -48 -52h48v-16h-80q0 22 56 64q4 7 4 16q0 6 -12 12q-24 0 -24 -24h-20v4q0 36 48 36zM1056 932q169 0 224 -164q8 -52 8 -76q0 -164 -164 -220 q-43 -8 -76 -8q-159 0 -216 164q-8 43 -8 76q0 145 132 208q0 11 100 20zM948 696q0 -140 108 -140h8q77 0 100 108v36q0 140 -112 140q-104 0 -104 -144zM148 236q44 -8 44 -44v-4q0 -30 -56 -64l-8 -12h64v-24h-104v4q0 27 72 84q4 7 4 16v4q0 6 -16 16q-28 0 -28 -36h-28 v4q0 56 56 56zM208 232h100v-24q-48 -53 -48 -120h-28q0 50 44 116h-68v28z" />
<glyph unicode="0" d="M40 1528h1448q40 -5 40 -40v-1448q-5 -40 -40 -40h-1448q-40 5 -40 40v1448q5 40 40 40zM40 1488v-1448h1448v1448h-1448zM1432 1448q25 0 28 -40q0 -11 -48 -52h48v-16h-80q0 22 56 64q4 7 4 16q0 6 -12 12q-24 0 -24 -24h-20v4q0 36 48 36zM252 1436h12q44 -7 44 -44 q-7 -20 -20 -20q24 -19 24 -40q0 -48 -52 -48h-4q-43 0 -52 40v8q5 32 24 32v8q-20 0 -20 28q0 27 44 36zM432 1436h4q40 -5 40 -40h-20q-14 16 -28 16h-8q-12 0 -20 -36v-4q16 16 44 16q36 -10 36 -56q0 -42 -52 -48q-56 0 -56 76t60 76zM540 1436q56 0 56 -72 q0 -80 -60 -80h-4q-40 8 -40 40h28q2 -16 12 -16h4q32 0 32 44q-16 -16 -44 -16q-36 12 -36 52q0 42 52 48zM660 1436h4q44 -8 44 -40q0 -14 -16 -32v-4q20 0 20 -28q0 -48 -52 -48h-4q-52 6 -52 48v8h28q0 -27 16 -32h20q6 0 16 16v16q-5 16 -36 16v20q32 0 32 12v12 q0 6 -12 12h-16q-13 0 -16 -28h-28q0 52 52 52zM108 1432h80v-24h-60q0 -10 -4 -32q15 12 28 12q44 0 44 -56q-11 -48 -48 -48h-12q-48 11 -48 44h32q0 -20 24 -20h8q16 7 16 28q0 22 -16 28h-8q-20 0 -20 -12h-28q0 13 12 80zM780 1432h24v-88h20v-24h-20v-32h-28v32h-60 v28q61 84 64 84zM236 1400v-12q4 -12 24 -12q20 3 20 12v12q0 6 -12 12h-20q-6 0 -12 -12zM516 1384q0 -16 16 -24h16q6 0 16 16v20q0 6 -16 16h-16q-16 -6 -16 -28zM740 1344h36v48q-8 -3 -36 -48zM404 1348v-24q0 -6 16 -16h16q16 7 16 28q0 22 -16 28h-16q-6 0 -16 -16z M232 1340v-16q0 -6 16 -16h20q6 0 16 16v16q-6 16 -28 16q-16 0 -24 -16zM328 1320h32v-32h-32v32zM1420 1312q36 0 36 -32l-12 -20q16 -6 16 -28q-12 -28 -36 -28h-4q-36 0 -36 36l12 20q-12 13 -12 20q0 32 36 32zM1404 1284v-12l20 -4q8 4 12 4v12q0 6 -12 12h-8 q-6 0 -12 -12zM1404 1240v-8q0 -6 12 -12h12q6 0 12 12v8q0 6 -12 12h-12q-6 0 -12 -12zM1424 1176q36 -6 36 -32h-16l-16 16h-8q-10 0 -16 -32h4q13 8 24 8q28 -8 28 -32q-5 -36 -36 -36q-40 0 -40 48v4q0 47 36 56h4zM1336 1172h16v-104h-20v68h-24v16q28 0 28 20z M1404 1104q8 -18 16 -20h8q6 0 12 12v12q0 6 -12 12q-17 0 -24 -16zM404 1092h132q17 -17 256 -412h4v412h128v-616h-132q-16 12 -256 412h-4v-412h-128v616zM996 1092h124v-100h-124v100zM1432 1040q25 0 28 -40q0 -11 -48 -52h48v-16h-80q0 22 56 64q4 7 4 16q0 6 -12 12 q-24 0 -24 -24h-20v4q0 36 48 36zM996 920h124v-444h-124v444zM148 236q44 -8 44 -44v-4q0 -30 -56 -64l-8 -12h64v-24h-104v4q0 27 72 84q4 7 4 16v4q0 6 -16 16q-28 0 -28 -36h-28v4q0 56 56 56zM252 236h12q44 -7 44 -44q-7 -20 -20 -20q24 -19 24 -40q0 -48 -52 -48h-4 q-43 0 -52 40v8q5 32 24 32v8q-20 0 -20 28q0 27 44 36zM236 200v-12q4 -12 24 -12q20 3 20 12v12q0 6 -12 12h-20q-6 0 -12 -12zM232 140v-16q0 -6 16 -16h20q6 0 16 16v16q-6 16 -28 16q-16 0 -24 -16z" />
<glyph unicode="1" d="M40 1528h1448q40 -5 40 -40v-1448q-5 -40 -40 -40h-1448q-40 5 -40 40v1448q5 40 40 40zM40 1488v-1448h1448v1448h-1448zM1432 1448q25 0 28 -40q0 -11 -48 -52h48v-16h-80q0 22 56 64q4 7 4 16q0 6 -12 12q-24 0 -24 -24h-20v4q0 36 48 36zM148 1436h4q40 -5 40 -40 h-20q-14 16 -28 16h-8q-12 0 -20 -36v-4q16 16 44 16q36 -10 36 -56q0 -42 -52 -48q-56 0 -56 76t60 76zM260 1436h4q44 -8 44 -40q0 -14 -16 -32v-4q20 0 20 -28q0 -48 -52 -48h-4q-52 6 -52 48v8h28q0 -27 16 -32h20q6 0 16 16v16q-5 16 -36 16v20q32 0 32 12v12 q0 6 -12 12h-16q-13 0 -16 -28h-28q0 52 52 52zM664 1436h4q40 -5 40 -40h-20q-14 16 -28 16h-8q-12 0 -20 -36v-4q16 16 44 16q36 -10 36 -56q0 -42 -52 -48q-56 0 -56 76t60 76zM392 1432h80v-24h-60q0 -10 -4 -32q15 12 28 12q44 0 44 -56q-11 -48 -48 -48h-12 q-48 11 -48 44h32q0 -20 24 -20h8q16 7 16 28q0 22 -16 28h-8q-20 0 -20 -12h-28q0 13 12 80zM552 1432h24v-88h20v-24h-20v-32h-28v32h-60v28q61 84 64 84zM512 1344h36v48q-8 -3 -36 -48zM120 1348v-24q0 -6 16 -16h16q16 7 16 28q0 22 -16 28h-16q-6 0 -16 -16zM636 1348 v-24q0 -6 16 -16h16q16 7 16 28q0 22 -16 28h-16q-6 0 -16 -16zM328 1320h32v-32h-32v32zM1420 1312q36 0 36 -32l-12 -20q16 -6 16 -28q-12 -28 -36 -28h-4q-36 0 -36 36l12 20q-12 13 -12 20q0 32 36 32zM1404 1284v-12l20 -4q8 4 12 4v12q0 6 -12 12h-8q-6 0 -12 -12z M1404 1240v-8q0 -6 12 -12h12q6 0 12 12v8q0 6 -12 12h-12q-6 0 -12 -12zM1420 1176q36 0 36 -32l-12 -20q16 -6 16 -28q-12 -28 -36 -28h-4q-36 0 -36 36l12 20q-12 13 -12 20q0 32 36 32zM1336 1172h16v-104h-20v68h-24v16q28 0 28 20zM1404 1148v-12l20 -4q8 4 12 4v12 q0 6 -12 12h-8q-6 0 -12 -12zM1404 1104v-8q0 -6 12 -12h12q6 0 12 12v8q0 6 -12 12h-12q-6 0 -12 -12zM532 1104q191 0 256 -176q8 -34 8 -44h-132q0 74 -108 104q-15 4 -32 4q-114 0 -152 -136q-8 -32 -8 -76q0 -146 104 -192q32 -12 68 -12q81 0 120 84q14 52 20 52h124 q0 -135 -136 -216q-64 -32 -132 -32q-227 0 -296 236q-8 50 -8 84q0 235 216 308q35 8 88 12zM1420 1036h16v-104h-20v68h-24v16q28 0 28 20zM840 920h124v-260q0 -100 72 -100h4q96 0 96 112v248h124v-444h-116v60h-8q-45 -72 -136 -72q-160 0 -160 180v276zM148 236 q44 -8 44 -44v-4q0 -30 -56 -64l-8 -12h64v-24h-104v4q0 27 72 84q4 7 4 16v4q0 6 -16 16q-28 0 -28 -36h-28v4q0 56 56 56zM256 236q56 0 56 -72q0 -80 -60 -80h-4q-40 8 -40 40h28q2 -16 12 -16h4q32 0 32 44q-16 -16 -44 -16q-36 12 -36 52q0 42 52 48zM232 184 q0 -16 16 -24h16q6 0 16 16v20q0 6 -16 16h-16q-16 -6 -16 -28z" />
<glyph unicode="2" d="M40 1528h1448q40 -5 40 -40v-1448q-5 -40 -40 -40h-1448q-40 5 -40 40v1448q5 40 40 40zM40 1488v-1448h1448v1448h-1448zM1432 1448q25 0 28 -40q0 -11 -48 -52h48v-16h-80q0 22 56 64q4 7 4 16q0 6 -12 12q-24 0 -24 -24h-20v4q0 36 48 36zM272 1436q44 -8 44 -44v-4 q0 -30 -56 -64l-8 -12h64v-24h-104v4q0 27 72 84q4 7 4 16v4q0 6 -16 16q-28 0 -28 -36h-28v4q0 56 56 56zM444 1436h4q40 -5 40 -40h-20q-14 16 -28 16h-8q-12 0 -20 -36v-4q16 16 44 16q36 -10 36 -56q0 -42 -52 -48q-56 0 -56 76t60 76zM92 1432h100v-24 q-48 -53 -48 -120h-28q0 50 44 116h-68v28zM564 1432h24v-88h20v-24h-20v-32h-28v32h-60v28q61 84 64 84zM524 1344h36v48q-8 -3 -36 -48zM416 1348v-24q0 -6 16 -16h16q16 7 16 28q0 22 -16 28h-16q-6 0 -16 -16zM336 1320h32v-32h-32v32zM1420 1312q36 0 36 -32l-12 -20 q16 -6 16 -28q-12 -28 -36 -28h-4q-36 0 -36 36l12 20q-12 13 -12 20q0 32 36 32zM1404 1284v-12l20 -4q8 4 12 4v12q0 6 -12 12h-8q-6 0 -12 -12zM1404 1240v-8q0 -6 12 -12h12q6 0 12 12v8q0 6 -12 12h-12q-6 0 -12 -12zM1420 1176q36 0 36 -32l-12 -20q16 -6 16 -28 q-12 -28 -36 -28h-4q-36 0 -36 36l12 20q-12 13 -12 20q0 32 36 32zM1336 1172h16v-104h-20v68h-24v16q28 0 28 20zM1404 1148v-12l20 -4q8 4 12 4v12q0 6 -12 12h-8q-6 0 -12 -12zM1404 1104v-8q0 -6 12 -12h12q6 0 12 12v8q0 6 -12 12h-12q-6 0 -12 -12zM536 1104 q125 0 212 -104q40 -63 40 -112h-128q0 45 -76 96q-47 8 -60 8q-114 0 -152 -136q-8 -32 -8 -76q0 -140 96 -188q36 -16 68 -16q117 0 144 104l4 28h-136v100h260v-332h-88l-12 72q-74 -84 -168 -84q-227 0 -296 236q-8 50 -8 88q0 209 188 296q46 16 120 20zM1420 1036h16 v-64h12v-16h-12v-24h-20v24h-44v16q19 31 48 64zM1412 1008q0 -8 -20 -32v-4h24v36h-4zM1072 932q148 0 204 -160q8 -38 8 -60v-40h-320v-4q0 -90 80 -108q5 -4 28 -4h8q88 18 88 60h108q0 -42 -68 -108q-53 -44 -144 -44q-190 0 -224 216v24q0 169 180 224q34 4 52 4z M964 748h200q-23 88 -76 88q0 4 -24 4h-8q-92 -16 -92 -92zM144 236h4q44 -8 44 -40q0 -14 -16 -32v-4q20 0 20 -28q0 -48 -52 -48h-4q-52 6 -52 48v8h28q0 -27 16 -32h20q6 0 16 16v16q-5 16 -36 16v20q32 0 32 12v12q0 6 -12 12h-16q-13 0 -16 -28h-28q0 52 52 52z M264 236q44 -8 44 -44v-4q0 -30 -56 -64l-8 -12h64v-24h-104v4q0 27 72 84q4 7 4 16v4q0 6 -16 16q-28 0 -28 -36h-28v4q0 56 56 56z" />
<glyph unicode="3" d="M40 1528h1448q40 -5 40 -40v-1448q-5 -40 -40 -40h-1448q-40 5 -40 40v1448q5 40 40 40zM40 1488v-1448h1448v1448h-1448zM1432 1448q25 0 28 -40q0 -11 -48 -52h48v-16h-80q0 22 56 64q4 7 4 16q0 6 -12 12q-24 0 -24 -24h-20v4q0 36 48 36zM436 1436q56 0 56 -72 q0 -80 -60 -80h-4q-40 8 -40 40h28q2 -16 12 -16h4q32 0 32 44q-16 -16 -44 -16q-36 12 -36 52q0 42 52 48zM560 1436q44 -8 44 -44v-4q0 -30 -56 -64l-8 -12h64v-24h-104v4q0 27 72 84q4 7 4 16v4q0 6 -16 16q-28 0 -28 -36h-28v4q0 56 56 56zM788 1436h4q40 -5 40 -40h-20 q-14 16 -28 16h-8q-12 0 -20 -36v-4q16 16 44 16q36 -10 36 -56q0 -42 -52 -48q-56 0 -56 76t60 76zM892 1436h12q48 0 48 -76t-48 -76h-12q-48 0 -48 76t48 76zM92 1432h100v-24q-48 -53 -48 -120h-28q0 50 44 116h-68v28zM276 1432h24v-88h20v-24h-20v-32h-28v32h-60v28 q61 84 64 84zM664 1432h24v-144h-28v92h-36v24q40 0 40 28zM412 1384q0 -16 16 -24h16q6 0 16 16v20q0 6 -16 16h-16q-16 -6 -16 -28zM872 1372v-24q0 -40 28 -40q24 0 24 40v24q0 40 -28 40q-24 0 -24 -40zM236 1344h36v48q-8 -3 -36 -48zM760 1348v-24q0 -6 16 -16h16 q16 7 16 28q0 22 -16 28h-16q-6 0 -16 -16zM336 1320h32v-32h-32v32zM1420 1312q36 0 36 -32l-12 -20q16 -6 16 -28q-12 -28 -36 -28h-4q-36 0 -36 36l12 20q-12 13 -12 20q0 32 36 32zM1404 1284v-12l20 -4q8 4 12 4v12q0 6 -12 12h-8q-6 0 -12 -12zM1404 1240v-8 q0 -6 12 -12h12q6 0 12 12v8q0 6 -12 12h-12q-6 0 -12 -12zM1420 1176q36 0 36 -32l-12 -20q16 -6 16 -28q-12 -28 -36 -28h-4q-36 0 -36 36l12 20q-12 13 -12 20q0 32 36 32zM1336 1172h16v-104h-20v68h-24v16q28 0 28 20zM1404 1148v-12l20 -4q8 4 12 4v12q0 6 -12 12h-8 q-6 0 -12 -12zM1404 1104v-8q0 -6 12 -12h12q6 0 12 12v8q0 6 -12 12h-12q-6 0 -12 -12zM464 1092h136q10 0 112 -292q8 -12 124 -324h-136q-8 0 -52 136h-232l-44 -136h-140q232 606 232 616zM1396 1036h60v-16h-44l-4 -24q13 8 20 8q32 0 32 -36q-5 -36 -36 -36h-4 q-36 6 -36 32h16q14 -16 28 -16q12 4 12 24q-6 16 -12 16h-12l-12 -8h-16q8 48 8 56zM532 940l-76 -228h156l-76 228h-4zM1032 932q163 0 196 -116l4 -24h-112l-24 40q-21 20 -68 20q-64 0 -64 -40v-4q0 -46 172 -72q108 -35 108 -120q0 -101 -112 -140q-46 -8 -92 -12 q-173 0 -204 124q-4 5 -4 28v4h116q0 -76 96 -76q76 10 76 52v16q0 33 -192 72q-88 36 -88 108q0 89 92 124q43 12 100 16zM144 236h4q44 -8 44 -40q0 -14 -16 -32v-4q20 0 20 -28q0 -48 -52 -48h-4q-52 6 -52 48v8h28q0 -27 16 -32h20q6 0 16 16v16q-5 16 -36 16v20 q32 0 32 12v12q0 6 -12 12h-16q-13 0 -16 -28h-28q0 52 52 52zM260 236h4q44 -8 44 -40q0 -14 -16 -32v-4q20 0 20 -28q0 -48 -52 -48h-4q-52 6 -52 48v8h28q0 -27 16 -32h20q6 0 16 16v16q-5 16 -36 16v20q32 0 32 12v12q0 6 -12 12h-16q-13 0 -16 -28h-28q0 52 52 52z" />
<glyph unicode="4" horiz-adv-x="1620" d="M40 1528h1448q40 -5 40 -40v-1448q-5 -40 -40 -40h-1448q-40 5 -40 40v1448q5 40 40 40zM40 1488v-1448h1448v1448h-1448zM1432 1448q25 0 28 -40q0 -11 -48 -52h48v-16h-80q0 22 56 64q4 7 4 16q0 6 -12 12q-24 0 -24 -24h-20v4q0 36 48 36zM260 1436h12q44 -7 44 -44 q-7 -20 -20 -20q24 -19 24 -40q0 -48 -52 -48h-4q-43 0 -52 40v8q5 32 24 32v8q-20 0 -20 28q0 27 44 36zM436 1436q56 0 56 -72q0 -80 -60 -80h-4q-40 8 -40 40h28q2 -16 12 -16h4q32 0 32 44q-16 -16 -44 -16q-36 12 -36 52q0 42 52 48zM560 1436h4q40 -5 40 -40h-20 q-14 16 -28 16h-8q-12 0 -20 -36v-4q16 16 44 16q36 -10 36 -56q0 -42 -52 -48q-56 0 -56 76t60 76zM92 1432h100v-24q-48 -53 -48 -120h-28q0 50 44 116h-68v28zM244 1400v-12q4 -12 24 -12q20 3 20 12v12q0 6 -12 12h-20q-6 0 -12 -12zM412 1384q0 -16 16 -24h16 q6 0 16 16v20q0 6 -16 16h-16q-16 -6 -16 -28zM532 1348v-24q0 -6 16 -16h16q16 7 16 28q0 22 -16 28h-16q-6 0 -16 -16zM240 1340v-16q0 -6 16 -16h20q6 0 16 16v16q-6 16 -28 16q-16 0 -24 -16zM336 1320h32v-32h-32v32zM1420 1312q36 0 36 -32l-12 -20q16 -6 16 -28 q-12 -28 -36 -28h-4q-36 0 -36 36l12 20q-12 13 -12 20q0 32 36 32zM1404 1284v-12l20 -4q8 4 12 4v12q0 6 -12 12h-8q-6 0 -12 -12zM1404 1240v-8q0 -6 12 -12h12q6 0 12 12v8q0 6 -12 12h-12q-6 0 -12 -12zM1420 1176q36 0 36 -32l-12 -20q16 -6 16 -28q-12 -28 -36 -28 h-4q-36 0 -36 36l12 20q-12 13 -12 20q0 32 36 32zM1336 1172h16v-104h-20v68h-24v16q28 0 28 20zM1404 1148v-12l20 -4q8 4 12 4v12q0 6 -12 12h-8q-6 0 -12 -12zM1404 1104v-8q0 -6 12 -12h12q6 0 12 12v8q0 6 -12 12h-12q-6 0 -12 -12zM520 1104q180 0 236 -136l8 -60 h-132q0 92 -124 92q-81 0 -92 -64v-12q0 -52 168 -80q200 -43 200 -188q0 -121 -136 -172q-52 -20 -124 -20q-163 0 -236 116q-24 44 -24 100h132q0 -78 80 -104q30 -8 56 -8q120 9 120 68v8q0 73 -200 104q-119 37 -152 96q-16 43 -16 80q0 128 168 172q43 8 68 8z M1424 1040q36 -6 36 -32h-16l-16 16h-8q-10 0 -16 -32h4q13 8 24 8q28 -8 28 -32q-5 -36 -36 -36q-40 0 -40 48v4q0 47 36 56h4zM1404 968q8 -18 16 -20h8q6 0 12 12v12q0 6 -12 12q-17 0 -24 -16zM1024 932q148 0 204 -160q8 -38 8 -60v-40h-320v-4q0 -90 80 -108 q5 -4 28 -4h8q88 18 88 60h108q0 -42 -68 -108q-53 -44 -144 -44q-190 0 -224 216v24q0 169 180 224q34 4 52 4zM916 748h200q-23 88 -76 88q0 4 -24 4h-8q-92 -16 -92 -92zM144 236h4q44 -8 44 -40q0 -14 -16 -32v-4q20 0 20 -28q0 -48 -52 -48h-4q-52 6 -52 48v8h28 q0 -27 16 -32h20q6 0 16 16v16q-5 16 -36 16v20q32 0 32 12v12q0 6 -12 12h-16q-13 0 -16 -28h-28q0 52 52 52zM268 232h24v-88h20v-24h-20v-32h-28v32h-60v28q61 84 64 84zM228 144h36v48q-8 -3 -36 -48z" />
<glyph unicode="5" horiz-adv-x="1620" d="M40 1528h1448q40 -5 40 -40v-1448q-5 -40 -40 -40h-1448q-40 5 -40 40v1448q5 40 40 40zM40 1488v-1448h1448v1448h-1448zM1432 1448q25 0 28 -40q0 -11 -48 -52h48v-16h-80q0 22 56 64q4 7 4 16q0 6 -12 12q-24 0 -24 -24h-20v4q0 36 48 36zM264 1436q56 0 56 -72 q0 -80 -60 -80h-4q-40 8 -40 40h28q2 -16 12 -16h4q32 0 32 44q-16 -16 -44 -16q-36 12 -36 52q0 42 52 48zM436 1436q56 0 56 -72q0 -80 -60 -80h-4q-40 8 -40 40h28q2 -16 12 -16h4q32 0 32 44q-16 -16 -44 -16q-36 12 -36 52q0 42 52 48zM548 1436h12q48 0 48 -76 t-48 -76h-12q-48 0 -48 76t48 76zM92 1432h100v-24q-48 -53 -48 -120h-28q0 50 44 116h-68v28zM676 1432h24v-88h20v-24h-20v-32h-28v32h-60v28q61 84 64 84zM240 1384q0 -16 16 -24h16q6 0 16 16v20q0 6 -16 16h-16q-16 -6 -16 -28zM412 1384q0 -16 16 -24h16q6 0 16 16v20 q0 6 -16 16h-16q-16 -6 -16 -28zM528 1372v-24q0 -40 28 -40q24 0 24 40v24q0 40 -28 40q-24 0 -24 -40zM636 1344h36v48q-8 -3 -36 -48zM336 1320h32v-32h-32v32zM1420 1312q36 0 36 -32l-12 -20q16 -6 16 -28q-12 -28 -36 -28h-4q-36 0 -36 36l12 20q-12 13 -12 20 q0 32 36 32zM1404 1284v-12l20 -4q8 4 12 4v12q0 6 -12 12h-8q-6 0 -12 -12zM1404 1240v-8q0 -6 12 -12h12q6 0 12 12v8q0 6 -12 12h-12q-6 0 -12 -12zM1420 1176q36 0 36 -32l-12 -20q16 -6 16 -28q-12 -28 -36 -28h-4q-36 0 -36 36l12 20q-12 13 -12 20q0 32 36 32z M1336 1172h16v-104h-20v68h-24v16q28 0 28 20zM1404 1148v-12l20 -4q8 4 12 4v12q0 6 -12 12h-8q-6 0 -12 -12zM1404 1104v-8q0 -6 12 -12h12q6 0 12 12v8q0 6 -12 12h-12q-6 0 -12 -12zM360 1092h256q152 0 196 -48q36 -41 36 -112q0 -69 -80 -120v-4q92 -37 92 -80 q16 -24 16 -72q0 -131 -144 -172q-51 -8 -96 -8h-276v616zM1372 1036h72v-4q0 -9 -28 -56q-8 -28 -8 -44h-20q0 33 32 84h-48v20zM496 988v-144h136q84 0 84 68v8q0 68 -96 68h-124zM1180 932l24 -4v-112l-48 4q-112 -15 -112 -108q-4 0 -4 -28v-208h-124v444h116v-84h4 q46 96 144 96zM496 752v-172h140q104 0 104 76v16q0 61 -72 80h-172zM144 236h4q44 -8 44 -40q0 -14 -16 -32v-4q20 0 20 -28q0 -48 -52 -48h-4q-52 6 -52 48v8h28q0 -27 16 -32h20q6 0 16 16v16q-5 16 -36 16v20q32 0 32 12v12q0 6 -12 12h-16q-13 0 -16 -28h-28 q0 52 52 52zM224 232h80v-24h-60q0 -10 -4 -32q15 12 28 12q44 0 44 -56q-11 -48 -48 -48h-12q-48 11 -48 44h32q0 -20 24 -20h8q16 7 16 28q0 22 -16 28h-8q-20 0 -20 -12h-28q0 13 12 80z" />
<glyph unicode="6" horiz-adv-x="1620" d="M40 1528h1448q40 -5 40 -40v-1448q-5 -40 -40 -40h-1448q-40 5 -40 40v1448q5 40 40 40zM40 1488v-1448h1448v1448h-1448zM1432 1448q25 0 28 -40q0 -11 -48 -52h48v-16h-80q0 22 56 64q4 7 4 16q0 6 -12 12q-24 0 -24 -24h-20v4q0 36 48 36zM260 1436h4q44 -8 44 -40 q0 -14 -16 -32v-4q20 0 20 -28q0 -48 -52 -48h-4q-52 6 -52 48v8h28q0 -27 16 -32h20q6 0 16 16v16q-5 16 -36 16v20q32 0 32 12v12q0 6 -12 12h-16q-13 0 -16 -28h-28q0 52 52 52zM556 1436h4q44 -8 44 -40q0 -14 -16 -32v-4q20 0 20 -28q0 -48 -52 -48h-4q-52 6 -52 48v8 h28q0 -27 16 -32h20q6 0 16 16v16q-5 16 -36 16v20q32 0 32 12v12q0 6 -12 12h-16q-13 0 -16 -28h-28q0 52 52 52zM672 1436q44 -8 44 -44v-4q0 -30 -56 -64l-8 -12h64v-24h-104v4q0 27 72 84q4 7 4 16v4q0 6 -16 16q-28 0 -28 -36h-28v4q0 56 56 56zM140 1432h24v-144h-28 v92h-36v24q40 0 40 28zM324 1432h100v-24q-48 -53 -48 -120h-28q0 50 44 116h-68v28zM732 1432h100v-24q-48 -53 -48 -120h-28q0 50 44 116h-68v28zM452 1320h32v-32h-32v32zM1420 1312q36 0 36 -32l-12 -20q16 -6 16 -28q-12 -28 -36 -28h-4q-36 0 -36 36l12 20 q-12 13 -12 20q0 32 36 32zM1404 1284v-12l20 -4q8 4 12 4v12q0 6 -12 12h-8q-6 0 -12 -12zM1404 1240v-8q0 -6 12 -12h12q6 0 12 12v8q0 6 -12 12h-12q-6 0 -12 -12zM1420 1176q36 0 36 -32l-12 -20q16 -6 16 -28q-12 -28 -36 -28h-4q-36 0 -36 36l12 20q-12 13 -12 20 q0 32 36 32zM1336 1172h16v-104h-20v68h-24v16q28 0 28 20zM1404 1148v-12l20 -4q8 4 12 4v12q0 6 -12 12h-8q-6 0 -12 -12zM1404 1104v-8q0 -6 12 -12h12q6 0 12 12v8q0 6 -12 12h-12q-6 0 -12 -12zM280 1092h256q152 0 196 -48q36 -41 36 -112q0 -69 -80 -120v-4 q92 -37 92 -80q16 -24 16 -72q0 -131 -144 -172q-51 -8 -96 -8h-276v616zM1420 1040q36 0 36 -32l-12 -20q16 -6 16 -28q-12 -28 -36 -28h-4q-36 0 -36 36l12 20q-12 13 -12 20q0 32 36 32zM1336 1036h16v-104h-20v68h-24v16q28 0 28 20zM1404 1012v-12l20 -4q8 4 12 4v12 q0 6 -12 12h-8q-6 0 -12 -12zM416 988v-144h136q84 0 84 68v8q0 68 -96 68h-124zM1404 968v-8q0 -6 12 -12h12q6 0 12 12v8q0 6 -12 12h-12q-6 0 -12 -12zM1048 932q192 0 192 -136v-228q0 -68 16 -92h-120q-12 3 -12 32v8h-4q-62 -52 -144 -52q-152 16 -152 108q-4 6 -4 24 q0 101 108 128q188 20 188 56v16q0 56 -80 56q-80 -7 -80 -68h-120q0 91 96 128q56 20 116 20zM1420 904q36 0 36 -32l-12 -20q16 -6 16 -28q-12 -28 -36 -28h-4q-36 0 -36 36l12 20q-12 13 -12 20q0 32 36 32zM1404 876v-12l20 -4q8 4 12 4v12q0 6 -12 12h-8q-6 0 -12 -12z M1404 832v-8q0 -6 12 -12h12q6 0 12 12v8q0 6 -12 12h-12q-6 0 -12 -12zM1432 768q25 0 28 -40q0 -11 -48 -52h48v-16h-80q0 22 56 64q4 7 4 16q0 6 -12 12q-24 0 -24 -24h-20v4q0 36 48 36zM416 752v-172h140q104 0 104 76v16q0 61 -72 80h-172zM944 604v-4q0 -56 76 -56 q78 0 96 76v72q-19 -11 -140 -36q-32 -21 -32 -52zM264 236h4q40 -5 40 -40h-20q-14 16 -28 16h-8q-12 0 -20 -36v-4q16 16 44 16q36 -10 36 -56q0 -42 -52 -48q-56 0 -56 76t60 76zM108 232h80v-24h-60q0 -10 -4 -32q15 12 28 12q44 0 44 -56q-11 -48 -48 -48h-12 q-48 11 -48 44h32q0 -20 24 -20h8q16 7 16 28q0 22 -16 28h-8q-20 0 -20 -12h-28q0 13 12 80zM236 148v-24q0 -6 16 -16h16q16 7 16 28q0 22 -16 28h-16q-6 0 -16 -16z" />
<glyph unicode="7" d="M40 1528h1448q40 -5 40 -40v-1448q-5 -40 -40 -40h-1448q-40 5 -40 40v1448q5 40 40 40zM40 1488v-1448h1448v1448h-1448zM1432 1448q25 0 28 -40q0 -11 -48 -52h48v-16h-80q0 22 56 64q4 7 4 16q0 6 -12 12q-24 0 -24 -24h-20v4q0 36 48 36zM136 1436h12q44 -7 44 -44 q-7 -20 -20 -20q24 -19 24 -40q0 -48 -52 -48h-4q-43 0 -52 40v8q5 32 24 32v8q-20 0 -20 28q0 27 44 36zM260 1436h4q44 -8 44 -40q0 -14 -16 -32v-4q20 0 20 -28q0 -48 -52 -48h-4q-52 6 -52 48v8h28q0 -27 16 -32h20q6 0 16 16v16q-5 16 -36 16v20q32 0 32 12v12 q0 6 -12 12h-16q-13 0 -16 -28h-28q0 52 52 52zM552 1436q56 0 56 -72q0 -80 -60 -80h-4q-40 8 -40 40h28q2 -16 12 -16h4q32 0 32 44q-16 -16 -44 -16q-36 12 -36 52q0 42 52 48zM660 1436h12q44 -7 44 -44q-7 -20 -20 -20q24 -19 24 -40q0 -48 -52 -48h-4q-43 0 -52 40v8 q5 32 24 32v8q-20 0 -20 28q0 27 44 36zM376 1432h100v-24q-48 -53 -48 -120h-28q0 50 44 116h-68v28zM120 1400v-12q4 -12 24 -12q20 3 20 12v12q0 6 -12 12h-20q-6 0 -12 -12zM528 1384q0 -16 16 -24h16q6 0 16 16v20q0 6 -16 16h-16q-16 -6 -16 -28zM644 1400v-12 q4 -12 24 -12q20 3 20 12v12q0 6 -12 12h-20q-6 0 -12 -12zM116 1340v-16q0 -6 16 -16h20q6 0 16 16v16q-6 16 -28 16q-16 0 -24 -16zM640 1340v-16q0 -6 16 -16h20q6 0 16 16v16q-6 16 -28 16q-16 0 -24 -16zM328 1320h32v-32h-32v32zM1420 1312q36 0 36 -32l-12 -20 q16 -6 16 -28q-12 -28 -36 -28h-4q-36 0 -36 36l12 20q-12 13 -12 20q0 32 36 32zM1404 1284v-12l20 -4q8 4 12 4v12q0 6 -12 12h-8q-6 0 -12 -12zM1404 1240v-8q0 -6 12 -12h12q6 0 12 12v8q0 6 -12 12h-12q-6 0 -12 -12zM1420 1176q36 0 36 -32l-12 -20q16 -6 16 -28 q-12 -28 -36 -28h-4q-36 0 -36 36l12 20q-12 13 -12 20q0 32 36 32zM1336 1172h16v-104h-20v68h-24v16q28 0 28 20zM1404 1148v-12l20 -4q8 4 12 4v12q0 6 -12 12h-8q-6 0 -12 -12zM1404 1104v-8q0 -6 12 -12h12q6 0 12 12v8q0 6 -12 12h-12q-6 0 -12 -12zM348 1092h136 v-252l244 252h164q-236 -238 -236 -244v-4l260 -368h-172q0 10 -184 276l-76 -80v-196h-136v616zM1420 1040q36 0 36 -32l-12 -20q16 -6 16 -28q-12 -28 -36 -28h-4q-36 0 -36 36l12 20q-12 13 -12 20q0 32 36 32zM1404 1012v-12l20 -4q8 4 12 4v12q0 6 -12 12h-8 q-6 0 -12 -12zM1404 968v-8q0 -6 12 -12h12q6 0 12 12v8q0 6 -12 12h-12q-6 0 -12 -12zM1188 932l24 -4v-112l-48 4q-112 -15 -112 -108q-4 0 -4 -28v-208h-124v444h116v-84h4q46 96 144 96zM144 236h4q44 -8 44 -40q0 -14 -16 -32v-4q20 0 20 -28q0 -48 -52 -48h-4 q-52 6 -52 48v8h28q0 -27 16 -32h20q6 0 16 16v16q-5 16 -36 16v20q32 0 32 12v12q0 6 -12 12h-16q-13 0 -16 -28h-28q0 52 52 52zM264 236h4q40 -5 40 -40h-20q-14 16 -28 16h-8q-12 0 -20 -36v-4q16 16 44 16q36 -10 36 -56q0 -42 -52 -48q-56 0 -56 76t60 76zM236 148 v-24q0 -6 16 -16h16q16 7 16 28q0 22 -16 28h-16q-6 0 -16 -16z" />
<glyph unicode="8" d="M40 1528h1448q40 -5 40 -40v-1448q-5 -40 -40 -40h-1448q-40 5 -40 40v1448q5 40 40 40zM40 1488v-1448h1448v1448h-1448zM1432 1448q25 0 28 -40q0 -11 -48 -52h48v-16h-80q0 22 56 64q4 7 4 16q0 6 -12 12q-24 0 -24 -24h-20v4q0 36 48 36zM136 1436h12q44 -7 44 -44 q-7 -20 -20 -20q24 -19 24 -40q0 -48 -52 -48h-4q-43 0 -52 40v8q5 32 24 32v8q-20 0 -20 28q0 27 44 36zM444 1436h4q40 -5 40 -40h-20q-14 16 -28 16h-8q-12 0 -20 -36v-4q16 16 44 16q36 -10 36 -56q0 -42 -52 -48q-56 0 -56 76t60 76zM560 1436q44 -8 44 -44v-4 q0 -30 -56 -64l-8 -12h64v-24h-104v4q0 27 72 84q4 7 4 16v4q0 6 -16 16q-28 0 -28 -36h-28v4q0 56 56 56zM208 1432h100v-24q-48 -53 -48 -120h-28q0 50 44 116h-68v28zM120 1400v-12q4 -12 24 -12q20 3 20 12v12q0 6 -12 12h-20q-6 0 -12 -12zM416 1348v-24q0 -6 16 -16 h16q16 7 16 28q0 22 -16 28h-16q-6 0 -16 -16zM116 1340v-16q0 -6 16 -16h20q6 0 16 16v16q-6 16 -28 16q-16 0 -24 -16zM336 1320h32v-32h-32v32zM1420 1312q36 0 36 -32l-12 -20q16 -6 16 -28q-12 -28 -36 -28h-4q-36 0 -36 36l12 20q-12 13 -12 20q0 32 36 32zM1404 1284 v-12l20 -4q8 4 12 4v12q0 6 -12 12h-8q-6 0 -12 -12zM1404 1240v-8q0 -6 12 -12h12q6 0 12 12v8q0 6 -12 12h-12q-6 0 -12 -12zM1420 1176q36 0 36 -32l-12 -20q16 -6 16 -28q-12 -28 -36 -28h-4q-36 0 -36 36l12 20q-12 13 -12 20q0 32 36 32zM1336 1172h16v-104h-20v68 h-24v16q28 0 28 20zM1404 1148v-12l20 -4q8 4 12 4v12q0 6 -12 12h-8q-6 0 -12 -12zM1404 1104v-8q0 -6 12 -12h12q6 0 12 12v8q0 6 -12 12h-12q-6 0 -12 -12zM600 1104q180 0 236 -136l8 -60h-132q0 92 -124 92q-81 0 -92 -64v-12q0 -52 168 -80q200 -43 200 -188 q0 -121 -136 -172q-52 -20 -124 -20q-163 0 -236 116q-24 44 -24 100h132q0 -78 80 -104q30 -8 56 -8q120 9 120 68v8q0 73 -200 104q-119 37 -152 96q-16 43 -16 80q0 128 168 172q43 8 68 8zM1420 1040q36 0 36 -32l-12 -20q16 -6 16 -28q-12 -28 -36 -28h-4q-36 0 -36 36 l12 20q-12 13 -12 20q0 32 36 32zM1404 1012v-12l20 -4q8 4 12 4v12q0 6 -12 12h-8q-6 0 -12 -12zM1404 968v-8q0 -6 12 -12h12q6 0 12 12v8q0 6 -12 12h-12q-6 0 -12 -12zM1156 932l24 -4v-112l-48 4q-112 -15 -112 -108q-4 0 -4 -28v-208h-124v444h116v-84h4q46 96 144 96 zM1432 904q25 0 28 -40q0 -11 -48 -52h48v-16h-80q0 22 56 64q4 7 4 16q0 6 -12 12q-24 0 -24 -24h-20v4q0 36 48 36zM144 236h4q44 -8 44 -40q0 -14 -16 -32v-4q20 0 20 -28q0 -48 -52 -48h-4q-52 6 -52 48v8h28q0 -27 16 -32h20q6 0 16 16v16q-5 16 -36 16v20q32 0 32 12 v12q0 6 -12 12h-16q-13 0 -16 -28h-28q0 52 52 52zM252 236h12q44 -7 44 -44q-7 -20 -20 -20q24 -19 24 -40q0 -48 -52 -48h-4q-43 0 -52 40v8q5 32 24 32v8q-20 0 -20 28q0 27 44 36zM236 200v-12q4 -12 24 -12q20 3 20 12v12q0 6 -12 12h-20q-6 0 -12 -12zM232 140v-16 q0 -6 16 -16h20q6 0 16 16v16q-6 16 -28 16q-16 0 -24 -16z" />
<glyph unicode="9" horiz-adv-x="1620" d="M40 1528h1448q40 -5 40 -40v-1448q-5 -40 -40 -40h-1448q-40 5 -40 40v1448q5 40 40 40zM40 1488v-1448h1448v1448h-1448zM1432 1448q25 0 28 -40q0 -11 -48 -52h48v-16h-80q0 22 56 64q4 7 4 16q0 6 -12 12q-24 0 -24 -24h-20v4q0 36 48 36zM140 1436q56 0 56 -72 q0 -80 -60 -80h-4q-40 8 -40 40h28q2 -16 12 -16h4q32 0 32 44q-16 -16 -44 -16q-36 12 -36 52q0 42 52 48zM432 1436q44 -8 44 -44v-4q0 -30 -56 -64l-8 -12h64v-24h-104v4q0 27 72 84q4 7 4 16v4q0 6 -16 16q-28 0 -28 -36h-28v4q0 56 56 56zM548 1436q44 -8 44 -44v-4 q0 -30 -56 -64l-8 -12h64v-24h-104v4q0 27 72 84q4 7 4 16v4q0 6 -16 16q-28 0 -28 -36h-28v4q0 56 56 56zM256 1432h24v-144h-28v92h-36v24q40 0 40 28zM668 1432h24v-88h20v-24h-20v-32h-28v32h-60v28q61 84 64 84zM116 1384q0 -16 16 -24h16q6 0 16 16v20q0 6 -16 16h-16 q-16 -6 -16 -28zM628 1344h36v48q-8 -3 -36 -48zM328 1320h32v-32h-32v32zM1420 1312q36 0 36 -32l-12 -20q16 -6 16 -28q-12 -28 -36 -28h-4q-36 0 -36 36l12 20q-12 13 -12 20q0 32 36 32zM1404 1284v-12l20 -4q8 4 12 4v12q0 6 -12 12h-8q-6 0 -12 -12zM1404 1240v-8 q0 -6 12 -12h12q6 0 12 12v8q0 6 -12 12h-12q-6 0 -12 -12zM1420 1176q36 0 36 -32l-12 -20q16 -6 16 -28q-12 -28 -36 -28h-4q-36 0 -36 36l12 20q-12 13 -12 20q0 32 36 32zM1336 1172h16v-104h-20v68h-24v16q28 0 28 20zM1404 1148v-12l20 -4q8 4 12 4v12q0 6 -12 12h-8 q-6 0 -12 -12zM1404 1104v-8q0 -6 12 -12h12q6 0 12 12v8q0 6 -12 12h-12q-6 0 -12 -12zM372 1092h484v-104l-332 -400h340v-112h-520v104l328 396v4h-300v112zM1424 1040q36 0 36 -48q0 -60 -40 -60q-36 0 -36 60q0 48 40 48zM1336 1036h16v-104h-20v68h-24v16q28 0 28 20z M1404 996v-20q0 -21 16 -28h4q16 7 16 28v20q0 22 -16 28h-4q-16 -6 -16 -28zM1156 932l24 -4v-112l-48 4q-112 -15 -112 -108q-4 0 -4 -28v-208h-124v444h116v-84h4q46 96 144 96zM1432 904q25 0 28 -40q0 -11 -48 -52h48v-16h-80q0 22 56 64q4 7 4 16q0 6 -12 12 q-24 0 -24 -24h-20v4q0 36 48 36zM252 236h12q48 0 48 -76t-48 -76h-12q-48 0 -48 76t48 76zM152 232h24v-88h20v-24h-20v-32h-28v32h-60v28q61 84 64 84zM232 172v-24q0 -40 28 -40q24 0 24 40v24q0 40 -28 40q-24 0 -24 -40zM112 144h36v48q-8 -3 -36 -48z" />
<glyph unicode=":" horiz-adv-x="1620" d="M40 1528h1448q40 -5 40 -40v-1448q-5 -40 -40 -40h-1448q-40 5 -40 40v1448q5 40 40 40zM40 1488v-1448h1448v1448h-1448zM1432 1448q25 0 28 -40q0 -11 -48 -52h48v-16h-80q0 22 56 64q4 7 4 16q0 6 -12 12q-24 0 -24 -24h-20v4q0 36 48 36zM140 1436q56 0 56 -72 q0 -80 -60 -80h-4q-40 8 -40 40h28q2 -16 12 -16h4q32 0 32 44q-16 -16 -44 -16q-36 12 -36 52q0 42 52 48zM264 1436q44 -8 44 -44v-4q0 -30 -56 -64l-8 -12h64v-24h-104v4q0 27 72 84q4 7 4 16v4q0 6 -16 16q-28 0 -28 -36h-28v4q0 56 56 56zM424 1436q56 0 56 -72 q0 -80 -60 -80h-4q-40 8 -40 40h28q2 -16 12 -16h4q32 0 32 44q-16 -16 -44 -16q-36 12 -36 52q0 42 52 48zM536 1436h12q48 0 48 -76t-48 -76h-12q-48 0 -48 76t48 76zM664 1436h4q40 -5 40 -40h-20q-14 16 -28 16h-8q-12 0 -20 -36v-4q16 16 44 16q36 -10 36 -56 q0 -42 -52 -48q-56 0 -56 76t60 76zM772 1436h4q44 -8 44 -40q0 -14 -16 -32v-4q20 0 20 -28q0 -48 -52 -48h-4q-52 6 -52 48v8h28q0 -27 16 -32h20q6 0 16 16v16q-5 16 -36 16v20q32 0 32 12v12q0 6 -12 12h-16q-13 0 -16 -28h-28q0 52 52 52zM880 1436h12q44 -7 44 -44 q-7 -20 -20 -20q24 -19 24 -40q0 -48 -52 -48h-4q-43 0 -52 40v8q5 32 24 32v8q-20 0 -20 28q0 27 44 36zM116 1384q0 -16 16 -24h16q6 0 16 16v20q0 6 -16 16h-16q-16 -6 -16 -28zM400 1384q0 -16 16 -24h16q6 0 16 16v20q0 6 -16 16h-16q-16 -6 -16 -28zM516 1372v-24 q0 -40 28 -40q24 0 24 40v24q0 40 -28 40q-24 0 -24 -40zM864 1400v-12q4 -12 24 -12q20 3 20 12v12q0 6 -12 12h-20q-6 0 -12 -12zM636 1348v-24q0 -6 16 -16h16q16 7 16 28q0 22 -16 28h-16q-6 0 -16 -16zM860 1340v-16q0 -6 16 -16h20q6 0 16 16v16q-6 16 -28 16 q-16 0 -24 -16zM328 1320h32v-32h-32v32zM1420 1312q36 0 36 -32l-12 -20q16 -6 16 -28q-12 -28 -36 -28h-4q-36 0 -36 36l12 20q-12 13 -12 20q0 32 36 32zM1404 1284v-12l20 -4q8 4 12 4v12q0 6 -12 12h-8q-6 0 -12 -12zM1404 1240v-8q0 -6 12 -12h12q6 0 12 12v8 q0 6 -12 12h-12q-6 0 -12 -12zM1420 1176q36 0 36 -32l-12 -20q16 -6 16 -28q-12 -28 -36 -28h-4q-36 0 -36 36l12 20q-12 13 -12 20q0 32 36 32zM1336 1172h16v-104h-20v68h-24v16q28 0 28 20zM1404 1148v-12l20 -4q8 4 12 4v12q0 6 -12 12h-8q-6 0 -12 -12zM1404 1104v-8 q0 -6 12 -12h12q6 0 12 12v8q0 6 -12 12h-12q-6 0 -12 -12zM248 1092h132q17 -17 256 -412h4v412h128v-616h-132q-16 12 -256 412h-4v-412h-128v616zM836 1092h124v-224q58 64 144 64q143 0 180 -188q4 -28 4 -48q0 -169 -136 -224q-30 -8 -56 -8q-92 0 -144 68v-56h-116 v616zM1432 1040q25 0 28 -40q0 -11 -48 -52h48v-16h-80q0 22 56 64q4 7 4 16q0 6 -12 12q-24 0 -24 -24h-20v4q0 36 48 36zM1336 1036h16v-104h-20v68h-24v16q28 0 28 20zM1420 900h16v-104h-20v68h-24v16q28 0 28 20zM956 704v-4q0 -144 108 -144q65 0 92 80q8 30 8 56v12 q-13 136 -96 136h-12q-64 0 -92 -80q-8 -30 -8 -56zM152 232h24v-88h20v-24h-20v-32h-28v32h-60v28q61 84 64 84zM256 232h24v-144h-28v92h-36v24q40 0 40 28zM112 144h36v48q-8 -3 -36 -48z" />
<glyph unicode=";" horiz-adv-x="1620" d="M40 1528h1448q40 -5 40 -40v-1448q-5 -40 -40 -40h-1448q-40 5 -40 40v1448q5 40 40 40zM40 1488v-1448h1448v1448h-1448zM1432 1448q25 0 28 -40q0 -11 -48 -52h48v-16h-80q0 22 56 64q4 7 4 16q0 6 -12 12q-24 0 -24 -24h-20v4q0 36 48 36zM140 1436q56 0 56 -72 q0 -80 -60 -80h-4q-40 8 -40 40h28q2 -16 12 -16h4q32 0 32 44q-16 -16 -44 -16q-36 12 -36 52q0 42 52 48zM424 1436q56 0 56 -72q0 -80 -60 -80h-4q-40 8 -40 40h28q2 -16 12 -16h4q32 0 32 44q-16 -16 -44 -16q-36 12 -36 52q0 42 52 48zM548 1436h4q40 -5 40 -40h-20 q-14 16 -28 16h-8q-12 0 -20 -36v-4q16 16 44 16q36 -10 36 -56q0 -42 -52 -48q-56 0 -56 76t60 76zM224 1432h80v-24h-60q0 -10 -4 -32q15 12 28 12q44 0 44 -56q-11 -48 -48 -48h-12q-48 11 -48 44h32q0 -20 24 -20h8q16 7 16 28q0 22 -16 28h-8q-20 0 -20 -12h-28 q0 13 12 80zM116 1384q0 -16 16 -24h16q6 0 16 16v20q0 6 -16 16h-16q-16 -6 -16 -28zM400 1384q0 -16 16 -24h16q6 0 16 16v20q0 6 -16 16h-16q-16 -6 -16 -28zM520 1348v-24q0 -6 16 -16h16q16 7 16 28q0 22 -16 28h-16q-6 0 -16 -16zM328 1320h32v-32h-32v32zM1420 1312 q36 0 36 -32l-12 -20q16 -6 16 -28q-12 -28 -36 -28h-4q-36 0 -36 36l12 20q-12 13 -12 20q0 32 36 32zM1404 1284v-12l20 -4q8 4 12 4v12q0 6 -12 12h-8q-6 0 -12 -12zM1404 1240v-8q0 -6 12 -12h12q6 0 12 12v8q0 6 -12 12h-12q-6 0 -12 -12zM1420 1176q36 0 36 -32 l-12 -20q16 -6 16 -28q-12 -28 -36 -28h-4q-36 0 -36 36l12 20q-12 13 -12 20q0 32 36 32zM1336 1172h16v-104h-20v68h-24v16q28 0 28 20zM1404 1148v-12l20 -4q8 4 12 4v12q0 6 -12 12h-8q-6 0 -12 -12zM1404 1104v-8q0 -6 12 -12h12q6 0 12 12v8q0 6 -12 12h-12 q-6 0 -12 -12zM176 1092h192l140 -420h8q12 45 132 420h192v-616h-128v432h-4q-144 -432 -152 -432h-96q-8 0 -152 428h-4v-428h-128v616zM1420 1040q36 -3 36 -28q-8 -25 -8 -28q6 0 12 -12v-4q0 -36 -36 -36q-40 4 -40 36h20q3 -20 12 -20h12q6 0 12 12v8q0 12 -24 12v16 l20 4v12q0 6 -12 12h-8q-11 0 -12 -20h-20q5 36 36 36zM1336 1036h16v-104h-20v68h-24v16q28 0 28 20zM1132 932q169 0 224 -164q8 -52 8 -76q0 -164 -164 -220q-43 -8 -76 -8q-159 0 -216 164q-8 43 -8 76q0 145 132 208q0 11 100 20zM1420 900h16v-104h-20v68h-24v16 q28 0 28 20zM1024 696q0 -140 108 -140h8q77 0 100 108v36q0 140 -112 140q-104 0 -104 -144zM264 236q44 -8 44 -44v-4q0 -30 -56 -64l-8 -12h64v-24h-104v4q0 27 72 84q4 7 4 16v4q0 6 -16 16q-28 0 -28 -36h-28v4q0 56 56 56zM152 232h24v-88h20v-24h-20v-32h-28v32h-60 v28q61 84 64 84zM112 144h36v48q-8 -3 -36 -48z" />
<glyph unicode="&#x3c;" horiz-adv-x="1620" d="M40 1528h1448q40 -5 40 -40v-1448q-5 -40 -40 -40h-1448q-40 5 -40 40v1448q5 40 40 40zM40 1488v-1448h1448v1448h-1448zM1432 1448q25 0 28 -40q0 -11 -48 -52h48v-16h-80q0 22 56 64q4 7 4 16q0 6 -12 12q-24 0 -24 -24h-20v4q0 36 48 36zM140 1436q56 0 56 -72 q0 -80 -60 -80h-4q-40 8 -40 40h28q2 -16 12 -16h4q32 0 32 44q-16 -16 -44 -16q-36 12 -36 52q0 42 52 48zM436 1436q56 0 56 -72q0 -80 -60 -80h-4q-40 8 -40 40h28q2 -16 12 -16h4q32 0 32 44q-16 -16 -44 -16q-36 12 -36 52q0 42 52 48zM548 1436h12q48 0 48 -76 t-48 -76h-12q-48 0 -48 76t48 76zM796 1436q44 -8 44 -44v-4q0 -30 -56 -64l-8 -12h64v-24h-104v4q0 27 72 84q4 7 4 16v4q0 6 -16 16q-28 0 -28 -36h-28v4q0 56 56 56zM208 1432h100v-24q-48 -53 -48 -120h-28q0 50 44 116h-68v28zM616 1432h100v-24q-48 -53 -48 -120h-28 q0 50 44 116h-68v28zM116 1384q0 -16 16 -24h16q6 0 16 16v20q0 6 -16 16h-16q-16 -6 -16 -28zM412 1384q0 -16 16 -24h16q6 0 16 16v20q0 6 -16 16h-16q-16 -6 -16 -28zM528 1372v-24q0 -40 28 -40q24 0 24 40v24q0 40 -28 40q-24 0 -24 -40zM336 1320h32v-32h-32v32z M1420 1312q36 0 36 -32l-12 -20q16 -6 16 -28q-12 -28 -36 -28h-4q-36 0 -36 36l12 20q-12 13 -12 20q0 32 36 32zM1404 1284v-12l20 -4q8 4 12 4v12q0 6 -12 12h-8q-6 0 -12 -12zM1404 1240v-8q0 -6 12 -12h12q6 0 12 12v8q0 6 -12 12h-12q-6 0 -12 -12zM1420 1176 q36 0 36 -32l-12 -20q16 -6 16 -28q-12 -28 -36 -28h-4q-36 0 -36 36l12 20q-12 13 -12 20q0 32 36 32zM1336 1172h16v-104h-20v68h-24v16q28 0 28 20zM1404 1148v-12l20 -4q8 4 12 4v12q0 6 -12 12h-8q-6 0 -12 -12zM1404 1104v-8q0 -6 12 -12h12q6 0 12 12v8q0 6 -12 12 h-12q-6 0 -12 -12zM272 1092h504v-112h-184v-504h-136v504h-184v112zM1324 1036h16v-104h-20v68h-24v16q28 0 28 20zM1420 1036h16v-64h12v-16h-12v-24h-20v24h-44v16q19 31 48 64zM1412 1008q0 -8 -20 -32v-4h24v36h-4zM1016 932q161 0 204 -144q0 -18 4 -24h-124 q0 76 -92 76q-63 0 -92 -80q-8 -32 -8 -68q0 -107 80 -136h28q58 0 84 64q5 28 12 28h112v-4q0 -80 -92 -152q-60 -28 -128 -28q-167 0 -216 180l-4 48q0 184 168 232q23 8 64 8zM1420 900h16v-104h-20v68h-24v16q28 0 28 20zM260 236h4q44 -8 44 -40q0 -14 -16 -32v-4 q20 0 20 -28q0 -48 -52 -48h-4q-52 6 -52 48v8h28q0 -27 16 -32h20q6 0 16 16v16q-5 16 -36 16v20q32 0 32 12v12q0 6 -12 12h-16q-13 0 -16 -28h-28q0 52 52 52zM152 232h24v-88h20v-24h-20v-32h-28v32h-60v28q61 84 64 84zM112 144h36v48q-8 -3 -36 -48z" />
<glyph unicode="=" horiz-adv-x="1623" d="M40 1528h1448q40 -5 40 -40v-1448q-5 -40 -40 -40h-1448q-40 5 -40 40v1448q5 40 40 40zM40 1488v-1448h1448v1448h-1448zM1432 1448q25 0 28 -40q0 -11 -48 -52h48v-16h-80q0 22 56 64q4 7 4 16q0 6 -12 12q-24 0 -24 -24h-20v4q0 36 48 36zM252 1436h12q48 0 48 -76 t-48 -76h-12q-48 0 -48 76t48 76zM536 1436h12q48 0 48 -76t-48 -76h-12q-48 0 -48 76t48 76zM140 1432h24v-144h-28v92h-36v24q40 0 40 28zM372 1432h24v-144h-28v92h-36v24q40 0 40 28zM608 1432h100v-24q-48 -53 -48 -120h-28q0 50 44 116h-68v28zM232 1372v-24 q0 -40 28 -40q24 0 24 40v24q0 40 -28 40q-24 0 -24 -40zM516 1372v-24q0 -40 28 -40q24 0 24 40v24q0 40 -28 40q-24 0 -24 -40zM440 1320h32v-32h-32v32zM1420 1312q36 0 36 -32l-12 -20q16 -6 16 -28q-12 -28 -36 -28h-4q-36 0 -36 36l12 20q-12 13 -12 20q0 32 36 32z M1404 1284v-12l20 -4q8 4 12 4v12q0 6 -12 12h-8q-6 0 -12 -12zM1404 1240v-8q0 -6 12 -12h12q6 0 12 12v8q0 6 -12 12h-12q-6 0 -12 -12zM1420 1176q36 0 36 -32l-12 -20q16 -6 16 -28q-12 -28 -36 -28h-4q-36 0 -36 36l12 20q-12 13 -12 20q0 32 36 32zM1336 1172h16v-104 h-20v68h-24v16q28 0 28 20zM1404 1148v-12l20 -4q8 4 12 4v12q0 6 -12 12h-8q-6 0 -12 -12zM1404 1104v-8q0 -6 12 -12h12q6 0 12 12v8q0 6 -12 12h-12q-6 0 -12 -12zM260 1092h312q138 0 184 -96q16 -34 16 -84q0 -97 -88 -140q-8 -1 -8 -8q84 -33 84 -124q12 -139 28 -164 h-136q-22 179 -40 212q-32 28 -76 28h-140v-240h-136v616zM1336 1036h16v-104h-20v68h-24v16q28 0 28 20zM1396 1036h60v-16h-44l-4 -24q13 8 20 8q32 0 32 -36q-5 -36 -36 -36h-4q-36 6 -36 32h16q14 -16 28 -16q12 4 12 24q-6 16 -12 16h-12l-12 -8h-16q8 48 8 56z M396 988v-176h144q96 0 96 88t-92 88h-148zM836 920h124v-260q0 -100 72 -100h4q96 0 96 112v248h124v-444h-116v60h-8q-45 -72 -136 -72q-160 0 -160 180v276zM1420 900h16v-104h-20v68h-24v16q28 0 28 20zM152 232h24v-88h20v-24h-20v-32h-28v32h-60v28q61 84 64 84z M268 232h24v-88h20v-24h-20v-32h-28v32h-60v28q61 84 64 84zM112 144h36v48q-8 -3 -36 -48zM228 144h36v48q-8 -3 -36 -48z" />
<glyph unicode="&#x3e;" d="M40 1528h1448q40 -5 40 -40v-1448q-5 -40 -40 -40h-1448q-40 5 -40 40v1448q5 40 40 40zM40 1488v-1448h1448v1448h-1448zM1432 1448q25 0 28 -40q0 -11 -48 -52h48v-16h-80q0 22 56 64q4 7 4 16q0 6 -12 12q-24 0 -24 -24h-20v4q0 36 48 36zM252 1436h12q48 0 48 -76 t-48 -76h-12q-48 0 -48 76t48 76zM380 1436q44 -8 44 -44v-4q0 -30 -56 -64l-8 -12h64v-24h-104v4q0 27 72 84q4 7 4 16v4q0 6 -16 16q-28 0 -28 -36h-28v4q0 56 56 56zM540 1436q56 0 56 -72q0 -80 -60 -80h-4q-40 8 -40 40h28q2 -16 12 -16h4q32 0 32 44q-16 -16 -44 -16 q-36 12 -36 52q0 42 52 48zM652 1436h12q48 0 48 -76t-48 -76h-12q-48 0 -48 76t48 76zM996 1436h12q48 0 48 -76t-48 -76h-12q-48 0 -48 76t48 76zM140 1432h24v-144h-28v92h-36v24q40 0 40 28zM736 1432h80v-24h-60q0 -10 -4 -32q15 12 28 12q44 0 44 -56q-11 -48 -48 -48 h-12q-48 11 -48 44h32q0 -20 24 -20h8q16 7 16 28q0 22 -16 28h-8q-20 0 -20 -12h-28q0 13 12 80zM852 1432h80v-24h-60q0 -10 -4 -32q15 12 28 12q44 0 44 -56q-11 -48 -48 -48h-12q-48 11 -48 44h32q0 -20 24 -20h8q16 7 16 28q0 22 -16 28h-8q-20 0 -20 -12h-28 q0 13 12 80zM232 1372v-24q0 -40 28 -40q24 0 24 40v24q0 40 -28 40q-24 0 -24 -40zM516 1384q0 -16 16 -24h16q6 0 16 16v20q0 6 -16 16h-16q-16 -6 -16 -28zM632 1372v-24q0 -40 28 -40q24 0 24 40v24q0 40 -28 40q-24 0 -24 -40zM976 1372v-24q0 -40 28 -40q24 0 24 40 v24q0 40 -28 40q-24 0 -24 -40zM440 1320h32v-32h-32v32zM1420 1312q36 0 36 -32l-12 -20q16 -6 16 -28q-12 -28 -36 -28h-4q-36 0 -36 36l12 20q-12 13 -12 20q0 32 36 32zM1404 1284v-12l20 -4q8 4 12 4v12q0 6 -12 12h-8q-6 0 -12 -12zM1404 1240v-8q0 -6 12 -12h12 q6 0 12 12v8q0 6 -12 12h-12q-6 0 -12 -12zM1420 1176q36 0 36 -32l-12 -20q16 -6 16 -28q-12 -28 -36 -28h-4q-36 0 -36 36l12 20q-12 13 -12 20q0 32 36 32zM1336 1172h16v-104h-20v68h-24v16q28 0 28 20zM1404 1148v-12l20 -4q8 4 12 4v12q0 6 -12 12h-8q-6 0 -12 -12z M1404 1104v-8q0 -6 12 -12h12q6 0 12 12v8q0 6 -12 12h-12q-6 0 -12 -12zM260 1092h312q138 0 184 -96q16 -34 16 -84q0 -97 -88 -140q-8 -1 -8 -8q84 -33 84 -124q12 -139 28 -164h-136q-22 179 -40 212q-32 28 -76 28h-140v-240h-136v616zM836 1092h124v-232q59 72 136 72 q113 0 148 -88q12 -55 12 -112v-256h-124v260q0 100 -72 100h-4q-96 0 -96 -112v-248h-124v616zM1424 1040q36 -6 36 -32h-16l-16 16h-8q-10 0 -16 -32h4q13 8 24 8q28 -8 28 -32q-5 -36 -36 -36q-40 0 -40 48v4q0 47 36 56h4zM1336 1036h16v-104h-20v68h-24v16q28 0 28 20z M396 988v-176h144q96 0 96 88t-92 88h-148zM1404 968q8 -18 16 -20h8q6 0 12 12v12q0 6 -12 12q-17 0 -24 -16zM1420 900h16v-104h-20v68h-24v16q28 0 28 20zM152 232h24v-88h20v-24h-20v-32h-28v32h-60v28q61 84 64 84zM224 232h80v-24h-60q0 -10 -4 -32q15 12 28 12 q44 0 44 -56q-11 -48 -48 -48h-12q-48 11 -48 44h32q0 -20 24 -20h8q16 7 16 28q0 22 -16 28h-8q-20 0 -20 -12h-28q0 13 12 80zM112 144h36v48q-8 -3 -36 -48z" />
<glyph unicode="?" horiz-adv-x="1620" d="M40 1528h1448q40 -5 40 -40v-1448q-5 -40 -40 -40h-1448q-40 5 -40 40v1448q5 40 40 40zM40 1488v-1448h1448v1448h-1448zM1432 1448q25 0 28 -40q0 -11 -48 -52h48v-16h-80q0 22 56 64q4 7 4 16q0 6 -12 12q-24 0 -24 -24h-20v4q0 36 48 36zM252 1436h12q48 0 48 -76 t-48 -76h-12q-48 0 -48 76t48 76zM380 1436h4q40 -5 40 -40h-20q-14 16 -28 16h-8q-12 0 -20 -36v-4q16 16 44 16q36 -10 36 -56q0 -42 -52 -48q-56 0 -56 76t60 76zM664 1436q44 -8 44 -44v-4q0 -30 -56 -64l-8 -12h64v-24h-104v4q0 27 72 84q4 7 4 16v4q0 6 -16 16 q-28 0 -28 -36h-28v4q0 56 56 56zM140 1432h24v-144h-28v92h-36v24q40 0 40 28zM552 1432h24v-88h20v-24h-20v-32h-28v32h-60v28q61 84 64 84zM232 1372v-24q0 -40 28 -40q24 0 24 40v24q0 40 -28 40q-24 0 -24 -40zM512 1344h36v48q-8 -3 -36 -48zM352 1348v-24 q0 -6 16 -16h16q16 7 16 28q0 22 -16 28h-16q-6 0 -16 -16zM440 1320h32v-32h-32v32zM1420 1312q36 0 36 -32l-12 -20q16 -6 16 -28q-12 -28 -36 -28h-4q-36 0 -36 36l12 20q-12 13 -12 20q0 32 36 32zM1404 1284v-12l20 -4q8 4 12 4v12q0 6 -12 12h-8q-6 0 -12 -12z M1404 1240v-8q0 -6 12 -12h12q6 0 12 12v8q0 6 -12 12h-12q-6 0 -12 -12zM1420 1176q36 0 36 -32l-12 -20q16 -6 16 -28q-12 -28 -36 -28h-4q-36 0 -36 36l12 20q-12 13 -12 20q0 32 36 32zM1336 1172h16v-104h-20v68h-24v16q28 0 28 20zM1404 1148v-12l20 -4q8 4 12 4v12 q0 6 -12 12h-8q-6 0 -12 -12zM1404 1104v-8q0 -6 12 -12h12q6 0 12 12v8q0 6 -12 12h-12q-6 0 -12 -12zM280 1092h268q162 0 212 -120q12 -52 12 -80q0 -146 -144 -188q-32 -8 -76 -8h-136v-220h-136v616zM1124 1092h124v-616h-116v56q-52 -68 -140 -68q-137 0 -188 152 q-12 53 -12 84q0 164 136 224q47 8 60 8q83 0 136 -64v224zM1420 1040q36 0 36 -32l-12 -20q16 -6 16 -28q-12 -28 -36 -28h-4q-36 0 -36 36l12 20q-12 13 -12 20q0 32 36 32zM1336 1036h16v-104h-20v68h-24v16q28 0 28 20zM1404 1012v-12l20 -4q8 4 12 4v12q0 6 -12 12h-8 q-6 0 -12 -12zM416 988v-188h112q112 0 112 92v12q0 84 -124 84h-100zM1404 968v-8q0 -6 12 -12h12q6 0 12 12v8q0 6 -12 12h-12q-6 0 -12 -12zM1424 904q36 0 36 -48q0 -60 -40 -60q-36 0 -36 60q0 48 40 48zM1404 860v-20q0 -21 16 -28h4q16 7 16 28v20q0 22 -16 28h-4 q-16 -6 -16 -28zM916 696q0 -108 80 -136q16 -4 32 -4q67 0 92 76q8 30 8 56v20q-12 128 -84 128q0 4 -24 4q-100 -13 -100 -108q-4 0 -4 -36zM264 236h4q40 -5 40 -40h-20q-14 16 -28 16h-8q-12 0 -20 -36v-4q16 16 44 16q36 -10 36 -56q0 -42 -52 -48q-56 0 -56 76t60 76z M152 232h24v-88h20v-24h-20v-32h-28v32h-60v28q61 84 64 84zM112 144h36v48q-8 -3 -36 -48zM236 148v-24q0 -6 16 -16h16q16 7 16 28q0 22 -16 28h-16q-6 0 -16 -16z" />
<glyph unicode="@" horiz-adv-x="1620" d="M40 1528h1448q40 -5 40 -40v-1448q-5 -40 -40 -40h-1448q-40 5 -40 40v1448q5 40 40 40zM40 1488v-1448h1448v1448h-1448zM1432 1448q25 0 28 -40q0 -11 -48 -52h48v-16h-80q0 22 56 64q4 7 4 16q0 6 -12 12q-24 0 -24 -24h-20v4q0 36 48 36zM148 1436q44 -8 44 -44v-4 q0 -30 -56 -64l-8 -12h64v-24h-104v4q0 27 72 84q4 7 4 16v4q0 6 -16 16q-28 0 -28 -36h-28v4q0 56 56 56zM252 1436h12q48 0 48 -76t-48 -76h-12q-48 0 -48 76t48 76zM372 1436q56 0 56 -72q0 -80 -60 -80h-4q-40 8 -40 40h28q2 -16 12 -16h4q32 0 32 44q-16 -16 -44 -16 q-36 12 -36 52q0 42 52 48zM540 1436q56 0 56 -72q0 -80 -60 -80h-4q-40 8 -40 40h28q2 -16 12 -16h4q32 0 32 44q-16 -16 -44 -16q-36 12 -36 52q0 42 52 48zM652 1436h12q44 -7 44 -44q-7 -20 -20 -20q24 -19 24 -40q0 -48 -52 -48h-4q-43 0 -52 40v8q5 32 24 32v8 q-20 0 -20 28q0 27 44 36zM720 1432h100v-24q-48 -53 -48 -120h-28q0 50 44 116h-68v28zM896 1432h24v-144h-28v92h-36v24q40 0 40 28zM232 1372v-24q0 -40 28 -40q24 0 24 40v24q0 40 -28 40q-24 0 -24 -40zM348 1384q0 -16 16 -24h16q6 0 16 16v20q0 6 -16 16h-16 q-16 -6 -16 -28zM516 1384q0 -16 16 -24h16q6 0 16 16v20q0 6 -16 16h-16q-16 -6 -16 -28zM636 1400v-12q4 -12 24 -12q20 3 20 12v12q0 6 -12 12h-20q-6 0 -12 -12zM632 1340v-16q0 -6 16 -16h20q6 0 16 16v16q-6 16 -28 16q-16 0 -24 -16zM440 1320h32v-32h-32v32z M1420 1312q36 0 36 -32l-12 -20q16 -6 16 -28q-12 -28 -36 -28h-4q-36 0 -36 36l12 20q-12 13 -12 20q0 32 36 32zM1404 1284v-12l20 -4q8 4 12 4v12q0 6 -12 12h-8q-6 0 -12 -12zM1404 1240v-8q0 -6 12 -12h12q6 0 12 12v8q0 6 -12 12h-12q-6 0 -12 -12zM1420 1176 q36 0 36 -32l-12 -20q16 -6 16 -28q-12 -28 -36 -28h-4q-36 0 -36 36l12 20q-12 13 -12 20q0 32 36 32zM1336 1172h16v-104h-20v68h-24v16q28 0 28 20zM1404 1148v-12l20 -4q8 4 12 4v12q0 6 -12 12h-8q-6 0 -12 -12zM1404 1104v-8q0 -6 12 -12h12q6 0 12 12v8q0 6 -12 12 h-12q-6 0 -12 -12zM544 1092h136q10 0 112 -292q8 -12 124 -324h-136q-8 0 -52 136h-232l-44 -136h-140q232 606 232 616zM960 1052h124v-132h88v-80h-88v-236q0 -36 44 -36h24l20 4v-96q-40 -4 -60 -4h-8q-144 0 -144 108v260h-72v80h72v132zM1336 1040q36 -3 36 -28 l-8 -28q6 0 12 -12v-4q0 -36 -36 -36q-40 4 -40 36h20q3 -20 12 -20h12q6 0 12 12v8q0 12 -24 12v16l20 4v12q0 6 -12 12h-8q-11 0 -12 -20h-20q5 36 36 36zM1432 1040q25 0 28 -40q0 -11 -48 -52h48v-16h-80q0 22 56 64q4 7 4 16q0 6 -12 12q-24 0 -24 -24h-20v4 q0 36 48 36zM612 940l-76 -228h156l-76 228h-4zM1420 904q36 0 36 -32l-12 -20q16 -6 16 -28q-12 -28 -36 -28h-4q-36 0 -36 36l12 20q-12 13 -12 20q0 32 36 32zM1336 900h16v-104h-20v68h-24v16q28 0 28 20zM1404 876v-12l20 -4q8 4 12 4v12q0 6 -12 12h-8q-6 0 -12 -12z M1404 832v-8q0 -6 12 -12h12q6 0 12 12v8q0 6 -12 12h-12q-6 0 -12 -12zM1372 764h72v-4q0 -9 -28 -56q-8 -28 -8 -44h-20q0 33 32 84h-48v20zM136 236h12q44 -7 44 -44q-7 -20 -20 -20q24 -19 24 -40q0 -48 -52 -48h-4q-43 0 -52 40v8q5 32 24 32v8q-20 0 -20 28 q0 27 44 36zM224 232h80v-24h-60q0 -10 -4 -32q15 12 28 12q44 0 44 -56q-11 -48 -48 -48h-12q-48 11 -48 44h32q0 -20 24 -20h8q16 7 16 28q0 22 -16 28h-8q-20 0 -20 -12h-28q0 13 12 80zM120 200v-12q4 -12 24 -12q20 3 20 12v12q0 6 -12 12h-20q-6 0 -12 -12zM116 140 v-16q0 -6 16 -16h20q6 0 16 16v16q-6 16 -28 16q-16 0 -24 -16z" />
<glyph unicode="A" horiz-adv-x="1630" d="M40 1528h1448q40 -5 40 -40v-1448q-5 -40 -40 -40h-1448q-40 5 -40 40v1448q5 40 40 40zM40 1488v-1448h1448v1448h-1448zM1432 1448q25 0 28 -40q0 -11 -48 -52h48v-16h-80q0 22 56 64q4 7 4 16q0 6 -12 12q-24 0 -24 -24h-20v4q0 36 48 36zM148 1436q44 -8 44 -44v-4 q0 -30 -56 -64l-8 -12h64v-24h-104v4q0 27 72 84q4 7 4 16v4q0 6 -16 16q-28 0 -28 -36h-28v4q0 56 56 56zM264 1436h4q40 -5 40 -40h-20q-14 16 -28 16h-8q-12 0 -20 -36v-4q16 16 44 16q36 -10 36 -56q0 -42 -52 -48q-56 0 -56 76t60 76zM424 1436q56 0 56 -72 q0 -80 -60 -80h-4q-40 8 -40 40h28q2 -16 12 -16h4q32 0 32 44q-16 -16 -44 -16q-36 12 -36 52q0 42 52 48zM536 1436h12q44 -7 44 -44q-7 -20 -20 -20q24 -19 24 -40q0 -48 -52 -48h-4q-43 0 -52 40v8q5 32 24 32v8q-20 0 -20 28q0 27 44 36zM888 1436h4q44 -8 44 -40 q0 -14 -16 -32v-4q20 0 20 -28q0 -48 -52 -48h-4q-52 6 -52 48v8h28q0 -27 16 -32h20q6 0 16 16v16q-5 16 -36 16v20q32 0 32 12v12q0 6 -12 12h-16q-13 0 -16 -28h-28q0 52 52 52zM996 1436h12q44 -7 44 -44q-7 -20 -20 -20q24 -19 24 -40q0 -48 -52 -48h-4q-43 0 -52 40v8 q5 32 24 32v8q-20 0 -20 28q0 27 44 36zM1120 1436h4q40 -5 40 -40h-20q-14 16 -28 16h-8q-12 0 -20 -36v-4q16 16 44 16q36 -10 36 -56q0 -42 -52 -48q-56 0 -56 76t60 76zM656 1432h24v-144h-28v92h-36v24q40 0 40 28zM736 1432h80v-24h-60q0 -10 -4 -32q15 12 28 12 q44 0 44 -56q-11 -48 -48 -48h-12q-48 11 -48 44h32q0 -20 24 -20h8q16 7 16 28q0 22 -16 28h-8q-20 0 -20 -12h-28q0 13 12 80zM400 1384q0 -16 16 -24h16q6 0 16 16v20q0 6 -16 16h-16q-16 -6 -16 -28zM520 1400v-12q4 -12 24 -12q20 3 20 12v12q0 6 -12 12h-20 q-6 0 -12 -12zM980 1400v-12q4 -12 24 -12q20 3 20 12v12q0 6 -12 12h-20q-6 0 -12 -12zM236 1348v-24q0 -6 16 -16h16q16 7 16 28q0 22 -16 28h-16q-6 0 -16 -16zM1092 1348v-24q0 -6 16 -16h16q16 7 16 28q0 22 -16 28h-16q-6 0 -16 -16zM516 1340v-16q0 -6 16 -16h20 q6 0 16 16v16q-6 16 -28 16q-16 0 -24 -16zM976 1340v-16q0 -6 16 -16h20q6 0 16 16v16q-6 16 -28 16q-16 0 -24 -16zM328 1320h32v-32h-32v32zM1420 1312q36 0 36 -32l-12 -20q16 -6 16 -28q-12 -28 -36 -28h-4q-36 0 -36 36l12 20q-12 13 -12 20q0 32 36 32zM1404 1284 v-12l20 -4q8 4 12 4v12q0 6 -12 12h-8q-6 0 -12 -12zM1404 1240v-8q0 -6 12 -12h12q6 0 12 12v8q0 6 -12 12h-12q-6 0 -12 -12zM1420 1176q36 -3 36 -28q-8 -25 -8 -28q6 0 12 -12v-4q0 -36 -36 -36q-40 4 -40 36h20q3 -20 12 -20h12q6 0 12 12v8q0 12 -24 12v16l20 4v12 q0 6 -12 12h-8q-11 0 -12 -20h-20q5 36 36 36zM588 1092h136q10 0 112 -292q8 -12 124 -324h-136q-8 0 -52 136h-232l-44 -136h-140q232 606 232 616zM976 1092h124v-616h-124v616zM656 940l-76 -228h156l-76 228h-4zM260 236h4q44 -8 44 -40q0 -14 -16 -32v-4q20 0 20 -28 q0 -48 -52 -48h-4q-52 6 -52 48v8h28q0 -27 16 -32h20q6 0 16 16v16q-5 16 -36 16v20q32 0 32 12v12q0 6 -12 12h-16q-13 0 -16 -28h-28q0 52 52 52zM140 232h24v-144h-28v92h-36v24q40 0 40 28z" />
<glyph unicode="B" horiz-adv-x="1630" d="M40 1528h1448q40 -5 40 -40v-1448q-5 -40 -40 -40h-1448q-40 5 -40 40v1448q5 40 40 40zM40 1488v-1448h1448v1448h-1448zM1432 1448q25 0 28 -40q0 -11 -48 -52h48v-16h-80q0 22 56 64q4 7 4 16q0 6 -12 12q-24 0 -24 -24h-20v4q0 36 48 36zM252 1436h12q48 0 48 -76 t-48 -76h-12q-48 0 -48 76t48 76zM420 1436h12q44 -7 44 -44q-7 -20 -20 -20q24 -19 24 -40q0 -48 -52 -48h-4q-43 0 -52 40v8q5 32 24 32v8q-20 0 -20 28q0 27 44 36zM140 1432h24v-144h-28v92h-36v24q40 0 40 28zM540 1432h24v-144h-28v92h-36v24q40 0 40 28zM656 1432h24 v-144h-28v92h-36v24q40 0 40 28zM232 1372v-24q0 -40 28 -40q24 0 24 40v24q0 40 -28 40q-24 0 -24 -40zM404 1400v-12q4 -12 24 -12q20 3 20 12v12q0 6 -12 12h-20q-6 0 -12 -12zM400 1340v-16q0 -6 16 -16h20q6 0 16 16v16q-6 16 -28 16q-16 0 -24 -16zM328 1320h32v-32 h-32v32zM1420 1312q36 -3 36 -28q-8 -25 -8 -28q6 0 12 -12v-4q0 -36 -36 -36q-40 4 -40 36h20q3 -20 12 -20h12q6 0 12 12v8q0 12 -24 12v16l20 4v12q0 6 -12 12h-8q-11 0 -12 -20h-20q5 36 36 36zM512 1092h256q152 0 196 -48q36 -41 36 -112q0 -69 -80 -120v-4 q92 -37 92 -80q16 -24 16 -72q0 -131 -144 -172q-51 -8 -96 -8h-276v616zM648 988v-144h136q84 0 84 68v8q0 68 -96 68h-124zM648 752v-172h140q104 0 104 76v16q0 61 -72 80h-172zM108 232h80v-24h-60q0 -10 -4 -32q15 12 28 12q44 0 44 -56q-11 -48 -48 -48h-12 q-48 11 -48 44h32q0 -20 24 -20h8q16 7 16 28q0 22 -16 28h-8q-20 0 -20 -12h-28q0 13 12 80z" />
<glyph unicode="C" horiz-adv-x="1634" d="M40 1528h1448q40 -5 40 -40v-1448q-5 -40 -40 -40h-1448q-40 5 -40 40v1448q5 40 40 40zM40 1488v-1448h1448v1448h-1448zM1432 1448q25 0 28 -40q0 -11 -48 -52h48v-16h-80q0 22 56 64q4 7 4 16q0 6 -12 12q-24 0 -24 -24h-20v4q0 36 48 36zM264 1436q44 -8 44 -44v-4 q0 -30 -56 -64l-8 -12h64v-24h-104v4q0 27 72 84q4 7 4 16v4q0 6 -16 16q-28 0 -28 -36h-28v4q0 56 56 56zM420 1436h12q48 0 48 -76t-48 -76h-12q-48 0 -48 76t48 76zM652 1436h12q48 0 48 -76t-48 -76h-12q-48 0 -48 76t48 76zM140 1432h24v-144h-28v92h-36v24q40 0 40 28 zM540 1432h24v-144h-28v92h-36v24q40 0 40 28zM720 1432h100v-24q-48 -53 -48 -120h-28q0 50 44 116h-68v28zM400 1372v-24q0 -40 28 -40q24 0 24 40v24q0 40 -28 40q-24 0 -24 -40zM632 1372v-24q0 -40 28 -40q24 0 24 40v24q0 40 -28 40q-24 0 -24 -40zM328 1320h32v-32 h-32v32zM1420 1308h16v-64h12v-16h-12v-24h-20v24h-44v16q19 31 48 64zM1412 1280q0 -8 -20 -32v-4h24v36h-4zM772 1104q191 0 256 -176q8 -34 8 -44h-132q0 74 -108 104q-15 4 -32 4q-114 0 -152 -136q-8 -32 -8 -76q0 -146 104 -192q32 -12 68 -12q81 0 120 84 q14 52 20 52h124q0 -135 -136 -216q-64 -32 -132 -32q-227 0 -296 236q-8 50 -8 84q0 235 216 308q35 8 88 12zM148 236h4q40 -5 40 -40h-20q-14 16 -28 16h-8q-12 0 -20 -36v-4q16 16 44 16q36 -10 36 -56q0 -42 -52 -48q-56 0 -56 76t60 76zM120 148v-24q0 -6 16 -16h16 q16 7 16 28q0 22 -16 28h-16q-6 0 -16 -16z" />
<glyph unicode="D" d="M40 1528h1448q40 -5 40 -40v-1448q-5 -40 -40 -40h-1448q-40 5 -40 40v1448q5 40 40 40zM40 1488v-1448h1448v1448h-1448zM1432 1448q25 0 28 -40q0 -11 -48 -52h48v-16h-80q0 22 56 64q4 7 4 16q0 6 -12 12q-24 0 -24 -24h-20v4q0 36 48 36zM148 1436q44 -8 44 -44v-4 q0 -30 -56 -64l-8 -12h64v-24h-104v4q0 27 72 84q4 7 4 16v4q0 6 -16 16q-28 0 -28 -36h-28v4q0 56 56 56zM264 1436h4q40 -5 40 -40h-20q-14 16 -28 16h-8q-12 0 -20 -36v-4q16 16 44 16q36 -10 36 -56q0 -42 -52 -48q-56 0 -56 76t60 76zM380 1436q44 -8 44 -44v-4 q0 -30 -56 -64l-8 -12h64v-24h-104v4q0 27 72 84q4 7 4 16v4q0 6 -16 16q-28 0 -28 -36h-28v4q0 56 56 56zM236 1348v-24q0 -6 16 -16h16q16 7 16 28q0 22 -16 28h-16q-6 0 -16 -16zM1420 1312q36 0 36 -32l-12 -20q16 -6 16 -28q-12 -28 -36 -28h-4q-36 0 -36 36l12 20 q-12 13 -12 20q0 32 36 32zM1404 1284v-12l20 -4q8 4 12 4v12q0 6 -12 12h-8q-6 0 -12 -12zM1404 1240v-8q0 -6 12 -12h12q6 0 12 12v8q0 6 -12 12h-12q-6 0 -12 -12zM1420 1176q36 0 36 -32l-12 -20q16 -6 16 -28q-12 -28 -36 -28h-4q-36 0 -36 36l12 20q-12 13 -12 20 q0 32 36 32zM1336 1172h16v-104h-20v68h-24v16q28 0 28 20zM1404 1148v-12l20 -4q8 4 12 4v12q0 6 -12 12h-8q-6 0 -12 -12zM1404 1104v-8q0 -6 12 -12h12q6 0 12 12v8q0 6 -12 12h-12q-6 0 -12 -12zM248 1092h224q224 0 288 -144q32 -75 32 -164q0 -230 -188 -296 q-55 -12 -132 -12h-224v616zM836 1092h124v-224q58 64 144 64q143 0 180 -188q4 -28 4 -48q0 -169 -136 -224q-30 -8 -56 -8q-92 0 -144 68v-56h-116v616zM1336 1040q36 -3 36 -28l-8 -28q6 0 12 -12v-4q0 -36 -36 -36q-40 4 -40 36h20q3 -20 12 -20h12q6 0 12 12v8 q0 12 -24 12v16l20 4v12q0 6 -12 12h-8q-11 0 -12 -20h-20q5 36 36 36zM1432 1040q25 0 28 -40q0 -11 -48 -52h48v-16h-80q0 22 56 64q4 7 4 16q0 6 -12 12q-24 0 -24 -24h-20v4q0 36 48 36zM384 980v-392h104q168 0 168 184v8q0 200 -184 200h-88zM1336 904q36 -3 36 -28 q-8 -25 -8 -28q6 0 12 -12v-4q0 -36 -36 -36q-40 4 -40 36h20q3 -20 12 -20h12q6 0 12 12v8q0 12 -24 12v16l20 4v12q0 6 -12 12h-8q-11 0 -12 -20h-20q5 36 36 36zM1432 904q25 0 28 -40q0 -11 -48 -52h48v-16h-80q0 22 56 64q4 7 4 16q0 6 -12 12q-24 0 -24 -24h-20v4 q0 36 48 36zM956 704v-4q0 -144 108 -144q65 0 92 80q8 30 8 56v12q-13 136 -96 136h-12q-64 0 -92 -80q-8 -30 -8 -56zM1336 764h16v-104h-20v68h-24v16q28 0 28 20zM1420 764h16v-104h-20v68h-24v16q28 0 28 20zM1432 636q25 0 28 -40q0 -11 -48 -52h48v-16h-80 q0 22 56 64q4 7 4 16q0 6 -12 12q-24 0 -24 -24h-20v4q0 36 48 36zM252 236h12q48 0 48 -76t-48 -76h-12q-48 0 -48 76t48 76zM140 232h24v-144h-28v92h-36v24q40 0 40 28zM340 232h80v-24h-60q0 -10 -4 -32q15 12 28 12q44 0 44 -56q-11 -48 -48 -48h-12q-48 11 -48 44h32 q0 -20 24 -20h8q16 7 16 28q0 22 -16 28h-8q-20 0 -20 -12h-28q0 13 12 80zM232 172v-24q0 -40 28 -40q24 0 24 40v24q0 40 -28 40q-24 0 -24 -40z" />
<glyph unicode="E" d="M40 1528h1448q40 -5 40 -40v-1448q-5 -40 -40 -40h-1448q-40 5 -40 40v1448q5 40 40 40zM40 1488v-1448h1448v1448h-1448zM1432 1448q25 0 28 -40q0 -11 -48 -52h48v-16h-80q0 22 56 64q4 7 4 16q0 6 -12 12q-24 0 -24 -24h-20v4q0 36 48 36zM540 1436q56 0 56 -72 q0 -80 -60 -80h-4q-40 8 -40 40h28q2 -16 12 -16h4q32 0 32 44q-16 -16 -44 -16q-36 12 -36 52q0 42 52 48zM664 1436h4q40 -5 40 -40h-20q-14 16 -28 16h-8q-12 0 -20 -36v-4q16 16 44 16q36 -10 36 -56q0 -42 -52 -48q-56 0 -56 76t60 76zM140 1432h24v-144h-28v92h-36v24 q40 0 40 28zM224 1432h80v-24h-60q0 -10 -4 -32q15 12 28 12q44 0 44 -56q-11 -48 -48 -48h-12q-48 11 -48 44h32q0 -20 24 -20h8q16 7 16 28q0 22 -16 28h-8q-20 0 -20 -12h-28q0 13 12 80zM372 1432h24v-144h-28v92h-36v24q40 0 40 28zM780 1432h24v-88h20v-24h-20v-32 h-28v32h-60v28q61 84 64 84zM516 1384q0 -16 16 -24h16q6 0 16 16v20q0 6 -16 16h-16q-16 -6 -16 -28zM740 1344h36v48q-8 -3 -36 -48zM636 1348v-24q0 -6 16 -16h16q16 7 16 28q0 22 -16 28h-16q-6 0 -16 -16zM440 1320h32v-32h-32v32zM1420 1312q36 0 36 -32l-12 -20 q16 -6 16 -28q-12 -28 -36 -28h-4q-36 0 -36 36l12 20q-12 13 -12 20q0 32 36 32zM1404 1284v-12l20 -4q8 4 12 4v12q0 6 -12 12h-8q-6 0 -12 -12zM1404 1240v-8q0 -6 12 -12h12q6 0 12 12v8q0 6 -12 12h-12q-6 0 -12 -12zM1420 1176q36 0 36 -32l-12 -20q16 -6 16 -28 q-12 -28 -36 -28h-4q-36 0 -36 36l12 20q-12 13 -12 20q0 32 36 32zM1336 1172h16v-104h-20v68h-24v16q28 0 28 20zM1404 1148v-12l20 -4q8 4 12 4v12q0 6 -12 12h-8q-6 0 -12 -12zM1404 1104v-8q0 -6 12 -12h12q6 0 12 12v8q0 6 -12 12h-12q-6 0 -12 -12zM296 1092h460 v-112h-324v-136h300v-104h-300v-152h332v-112h-468v616zM1348 1040q25 0 28 -40q0 -11 -48 -52h48v-16h-80q0 22 56 64q4 7 4 16q0 6 -12 12q-24 0 -24 -24h-20v4q0 36 48 36zM1396 1036h60v-16h-44l-4 -24q13 8 20 8q32 0 32 -36q-5 -36 -36 -36h-4q-36 6 -36 32h16 q14 -16 28 -16q12 4 12 24q-6 16 -12 16h-12l-12 -8h-16q8 48 8 56zM800 920h124v-260q0 -100 72 -100h4q96 0 96 112v248h124v-444h-116v60h-8q-45 -72 -136 -72q-160 0 -160 180v276zM1420 904q36 0 36 -32l-12 -20q16 -6 16 -28q-12 -28 -36 -28h-4q-36 0 -36 36l12 20 q-12 13 -12 20q0 32 36 32zM1404 876v-12l20 -4q8 4 12 4v12q0 6 -12 12h-8q-6 0 -12 -12zM1404 832v-8q0 -6 12 -12h12q6 0 12 12v8q0 6 -12 12h-12q-6 0 -12 -12zM1432 768q25 0 28 -40q0 -11 -48 -52h48v-16h-80q0 22 56 64q4 7 4 16q0 6 -12 12q-24 0 -24 -24h-20v4 q0 36 48 36zM148 236h4q40 -5 40 -40h-20q-14 16 -28 16h-8q-12 0 -20 -36v-4q16 16 44 16q36 -10 36 -56q0 -42 -52 -48q-56 0 -56 76t60 76zM260 236h4q44 -8 44 -40q0 -14 -16 -32v-4q20 0 20 -28q0 -48 -52 -48h-4q-52 6 -52 48v8h28q0 -27 16 -32h20q6 0 16 16v16 q-5 16 -36 16v20q32 0 32 12v12q0 6 -12 12h-16q-13 0 -16 -28h-28q0 52 52 52zM120 148v-24q0 -6 16 -16h16q16 7 16 28q0 22 -16 28h-16q-6 0 -16 -16z" />
<glyph unicode="F" d="M40 1528h1448q40 -5 40 -40v-1448q-5 -40 -40 -40h-1448q-40 5 -40 40v1448q5 40 40 40zM40 1488v-1448h1448v1448h-1448zM1432 1448q25 0 28 -40q0 -11 -48 -52h48v-16h-80q0 22 56 64q4 7 4 16q0 6 -12 12q-24 0 -24 -24h-20v4q0 36 48 36zM252 1436h12q44 -7 44 -44 q-7 -20 -20 -20q24 -19 24 -40q0 -48 -52 -48h-4q-43 0 -52 40v8q5 32 24 32v8q-20 0 -20 28q0 27 44 36zM424 1436q56 0 56 -72q0 -80 -60 -80h-4q-40 8 -40 40h28q2 -16 12 -16h4q32 0 32 44q-16 -16 -44 -16q-36 12 -36 52q0 42 52 48zM540 1436q56 0 56 -72 q0 -80 -60 -80h-4q-40 8 -40 40h28q2 -16 12 -16h4q32 0 32 44q-16 -16 -44 -16q-36 12 -36 52q0 42 52 48zM652 1436h12q44 -7 44 -44q-7 -20 -20 -20q24 -19 24 -40q0 -48 -52 -48h-4q-43 0 -52 40v8q5 32 24 32v8q-20 0 -20 28q0 27 44 36zM880 1436h12q48 0 48 -76 t-48 -76h-12q-48 0 -48 76t48 76zM1004 1436h4q44 -8 44 -40q0 -14 -16 -32v-4q20 0 20 -28q0 -48 -52 -48h-4q-52 6 -52 48v8h28q0 -27 16 -32h20q6 0 16 16v16q-5 16 -36 16v20q32 0 32 12v12q0 6 -12 12h-16q-13 0 -16 -28h-28q0 52 52 52zM1120 1436q44 -8 44 -44v-4 q0 -30 -56 -64l-8 -12h64v-24h-104v4q0 27 72 84q4 7 4 16v4q0 6 -16 16q-28 0 -28 -36h-28v4q0 56 56 56zM140 1432h24v-144h-28v92h-36v24q40 0 40 28zM780 1432h24v-88h20v-24h-20v-32h-28v32h-60v28q61 84 64 84zM236 1400v-12q4 -12 24 -12q20 3 20 12v12q0 6 -12 12 h-20q-6 0 -12 -12zM400 1384q0 -16 16 -24h16q6 0 16 16v20q0 6 -16 16h-16q-16 -6 -16 -28zM516 1384q0 -16 16 -24h16q6 0 16 16v20q0 6 -16 16h-16q-16 -6 -16 -28zM636 1400v-12q4 -12 24 -12q20 3 20 12v12q0 6 -12 12h-20q-6 0 -12 -12zM860 1372v-24q0 -40 28 -40 q24 0 24 40v24q0 40 -28 40q-24 0 -24 -40zM740 1344h36v48q-8 -3 -36 -48zM232 1340v-16q0 -6 16 -16h20q6 0 16 16v16q-6 16 -28 16q-16 0 -24 -16zM632 1340v-16q0 -6 16 -16h20q6 0 16 16v16q-6 16 -28 16q-16 0 -24 -16zM328 1320h32v-32h-32v32zM1372 1308h72v-4 q0 -9 -28 -56q-8 -28 -8 -44h-20q0 33 32 84h-48v20zM556 1092h432v-112h-296v-144h256v-104h-256v-256h-136v616zM140 236q56 0 56 -72q0 -80 -60 -80h-4q-40 8 -40 40h28q2 -16 12 -16h4q32 0 32 44q-16 -16 -44 -16q-36 12 -36 52q0 42 52 48zM116 184q0 -16 16 -24h16 q6 0 16 16v20q0 6 -16 16h-16q-16 -6 -16 -28z" />
<glyph unicode="G" d="M40 1528h1448q40 -5 40 -40v-1448q-5 -40 -40 -40h-1448q-40 5 -40 40v1448q5 40 40 40zM40 1488v-1448h1448v1448h-1448zM1432 1448q25 0 28 -40q0 -11 -48 -52h48v-16h-80q0 22 56 64q4 7 4 16q0 6 -12 12q-24 0 -24 -24h-20v4q0 36 48 36zM148 1436h4q40 -5 40 -40 h-20q-14 16 -28 16h-8q-12 0 -20 -36v-4q16 16 44 16q36 -10 36 -56q0 -42 -52 -48q-56 0 -56 76t60 76zM256 1436q56 0 56 -72q0 -80 -60 -80h-4q-40 8 -40 40h28q2 -16 12 -16h4q32 0 32 44q-16 -16 -44 -16q-36 12 -36 52q0 42 52 48zM560 1436q44 -8 44 -44v-4 q0 -30 -56 -64l-8 -12h64v-24h-104v4q0 27 72 84q4 7 4 16v4q0 6 -16 16q-28 0 -28 -36h-28v4q0 56 56 56zM668 1436h4q44 -8 44 -40q0 -14 -16 -32v-4q20 0 20 -28q0 -48 -52 -48h-4q-52 6 -52 48v8h28q0 -27 16 -32h20q6 0 16 16v16q-5 16 -36 16v20q32 0 32 12v12 q0 6 -12 12h-16q-13 0 -16 -28h-28q0 52 52 52zM376 1432h100v-24q-48 -53 -48 -120h-28q0 50 44 116h-68v28zM232 1384q0 -16 16 -24h16q6 0 16 16v20q0 6 -16 16h-16q-16 -6 -16 -28zM120 1348v-24q0 -6 16 -16h16q16 7 16 28q0 22 -16 28h-16q-6 0 -16 -16zM328 1320h32 v-32h-32v32zM1420 1312q36 0 36 -32l-12 -20q16 -6 16 -28q-12 -28 -36 -28h-4q-36 0 -36 36l12 20q-12 13 -12 20q0 32 36 32zM1404 1284v-12l20 -4q8 4 12 4v12q0 6 -12 12h-8q-6 0 -12 -12zM1404 1240v-8q0 -6 12 -12h12q6 0 12 12v8q0 6 -12 12h-12q-6 0 -12 -12z M1420 1176q36 0 36 -32l-12 -20q16 -6 16 -28q-12 -28 -36 -28h-4q-36 0 -36 36l12 20q-12 13 -12 20q0 32 36 32zM1336 1172h16v-104h-20v68h-24v16q28 0 28 20zM1404 1148v-12l20 -4q8 4 12 4v12q0 6 -12 12h-8q-6 0 -12 -12zM1404 1104v-8q0 -6 12 -12h12q6 0 12 12v8 q0 6 -12 12h-12q-6 0 -12 -12zM536 1104q125 0 212 -104q40 -63 40 -112h-128q0 45 -76 96q-47 8 -60 8q-114 0 -152 -136q-8 -32 -8 -76q0 -140 96 -188q36 -16 68 -16q117 0 144 104l4 28h-136v100h260v-332h-88l-12 72q-74 -84 -168 -84q-227 0 -296 236q-8 50 -8 88 q0 209 188 296q46 16 120 20zM1420 1040q36 -3 36 -28q-8 -25 -8 -28q6 0 12 -12v-4q0 -36 -36 -36q-40 4 -40 36h20q3 -20 12 -20h12q6 0 12 12v8q0 12 -24 12v16l20 4v12q0 6 -12 12h-8q-11 0 -12 -20h-20q5 36 36 36zM1072 932q192 0 192 -136v-228q0 -68 16 -92h-120 q-12 3 -12 32v8h-4q-62 -52 -144 -52q-152 16 -152 108q-4 6 -4 24q0 101 108 128q188 20 188 56v16q0 56 -80 56q-80 -7 -80 -68h-120q0 91 96 128q56 20 116 20zM968 604v-4q0 -56 76 -56q78 0 96 76v72q-19 -11 -140 -36q-32 -21 -32 -52zM144 236h4q44 -8 44 -40 q0 -14 -16 -32v-4q20 0 20 -28q0 -48 -52 -48h-4q-52 6 -52 48v8h28q0 -27 16 -32h20q6 0 16 16v16q-5 16 -36 16v20q32 0 32 12v12q0 6 -12 12h-16q-13 0 -16 -28h-28q0 52 52 52zM256 232h24v-144h-28v92h-36v24q40 0 40 28z" />
<glyph unicode="H" d="M40 1528h1448q40 -5 40 -40v-1448q-5 -40 -40 -40h-1448q-40 5 -40 40v1448q5 40 40 40zM40 1488v-1448h1448v1448h-1448zM1420 1444h16v-104h-20v68h-24v16q28 0 28 20zM308 1436h12q48 0 48 -76t-48 -76h-12q-48 0 -48 76t48 76zM420 1436h12q48 0 48 -76t-48 -76h-12 q-48 0 -48 76t48 76zM664 1436q56 0 56 -72q0 -80 -60 -80h-4q-40 8 -40 40h28q2 -16 12 -16h4q32 0 32 44q-16 -16 -44 -16q-36 12 -36 52q0 42 52 48zM140 1432h24v-144h-28v92h-36v24q40 0 40 28zM492 1432h100v-24q-48 -53 -48 -120h-28q0 50 44 116h-68v28zM792 1432 h24v-88h20v-24h-20v-32h-28v32h-60v28q61 84 64 84zM288 1372v-24q0 -40 28 -40q24 0 24 40v24q0 40 -28 40q-24 0 -24 -40zM400 1372v-24q0 -40 28 -40q24 0 24 40v24q0 40 -28 40q-24 0 -24 -40zM640 1384q0 -16 16 -24h16q6 0 16 16v20q0 6 -16 16h-16q-16 -6 -16 -28z M752 1344h36v48q-8 -3 -36 -48zM212 1320h32v-32h-32v32zM496 1092h136v-236h248v236h136v-616h-136v268h-248v-268h-136v616zM140 232h24v-144h-28v92h-36v24q40 0 40 28z" />
<glyph unicode="I" d="M40 1528h1448q40 -5 40 -40v-1448q-5 -40 -40 -40h-1448q-40 5 -40 40v1448q5 40 40 40zM40 1488v-1448h1448v1448h-1448zM1432 1448q25 0 28 -40q0 -11 -48 -52h48v-16h-80q0 22 56 64q4 7 4 16q0 6 -12 12q-24 0 -24 -24h-20v4q0 36 48 36zM264 1436q44 -8 44 -44v-4 q0 -30 -56 -64l-8 -12h64v-24h-104v4q0 27 72 84q4 7 4 16v4q0 6 -16 16q-28 0 -28 -36h-28v4q0 56 56 56zM380 1436h4q40 -5 40 -40h-20q-14 16 -28 16h-8q-12 0 -20 -36v-4q16 16 44 16q36 -10 36 -56q0 -42 -52 -48q-56 0 -56 76t60 76zM540 1436q56 0 56 -72 q0 -80 -60 -80h-4q-40 8 -40 40h28q2 -16 12 -16h4q32 0 32 44q-16 -16 -44 -16q-36 12 -36 52q0 42 52 48zM652 1436h12q48 0 48 -76t-48 -76h-12q-48 0 -48 76t48 76zM140 1432h24v-144h-28v92h-36v24q40 0 40 28zM780 1432h24v-88h20v-24h-20v-32h-28v32h-60v28 q61 84 64 84zM896 1432h24v-88h20v-24h-20v-32h-28v32h-60v28q61 84 64 84zM952 1432h100v-24q-48 -53 -48 -120h-28q0 50 44 116h-68v28zM516 1384q0 -16 16 -24h16q6 0 16 16v20q0 6 -16 16h-16q-16 -6 -16 -28zM632 1372v-24q0 -40 28 -40q24 0 24 40v24q0 40 -28 40 q-24 0 -24 -40zM740 1344h36v48q-8 -3 -36 -48zM856 1344h36v48q-8 -3 -36 -48zM352 1348v-24q0 -6 16 -16h16q16 7 16 28q0 22 -16 28h-16q-6 0 -16 -16zM440 1320h32v-32h-32v32zM1420 1312q36 0 36 -32l-12 -20q16 -6 16 -28q-12 -28 -36 -28h-4q-36 0 -36 36l12 20 q-12 13 -12 20q0 32 36 32zM1404 1284v-12l20 -4q8 4 12 4v12q0 6 -12 12h-8q-6 0 -12 -12zM1404 1240v-8q0 -6 12 -12h12q6 0 12 12v8q0 6 -12 12h-12q-6 0 -12 -12zM1420 1176q36 0 36 -32l-12 -20q16 -6 16 -28q-12 -28 -36 -28h-4q-36 0 -36 36l12 20q-12 13 -12 20 q0 32 36 32zM1336 1172h16v-104h-20v68h-24v16q28 0 28 20zM1404 1148v-12l20 -4q8 4 12 4v12q0 6 -12 12h-8q-6 0 -12 -12zM1404 1104v-8q0 -6 12 -12h12q6 0 12 12v8q0 6 -12 12h-12q-6 0 -12 -12zM684 1092h136v-616h-136v616zM1420 1040q36 0 36 -32l-12 -20 q16 -6 16 -28q-12 -28 -36 -28h-4q-36 0 -36 36l12 20q-12 13 -12 20q0 32 36 32zM1336 1036h16v-104h-20v68h-24v16q28 0 28 20zM1404 1012v-12l20 -4q8 4 12 4v12q0 6 -12 12h-8q-6 0 -12 -12zM1404 968v-8q0 -6 12 -12h12q6 0 12 12v8q0 6 -12 12h-12q-6 0 -12 -12z M1372 900h72v-4q0 -9 -28 -56q-8 -28 -8 -44h-20q0 33 32 84h-48v20zM260 236h4q44 -8 44 -40q0 -14 -16 -32v-4q20 0 20 -28q0 -48 -52 -48h-4q-52 6 -52 48v8h28q0 -27 16 -32h20q6 0 16 16v16q-5 16 -36 16v20q32 0 32 12v12q0 6 -12 12h-16q-13 0 -16 -28h-28 q0 52 52 52zM108 232h80v-24h-60q0 -10 -4 -32q15 12 28 12q44 0 44 -56q-11 -48 -48 -48h-12q-48 11 -48 44h32q0 -20 24 -20h8q16 7 16 28q0 22 -16 28h-8q-20 0 -20 -12h-28q0 13 12 80z" />
<glyph unicode="J" horiz-adv-x="1620" d="M40 1528h1448q40 -5 40 -40v-1448q-5 -40 -40 -40h-1448q-40 5 -40 40v1448q5 40 40 40zM40 1488v-1448h1448v1448h-1448zM1432 1448q25 0 28 -40q0 -11 -48 -52h48v-16h-80q0 22 56 64q4 7 4 16q0 6 -12 12q-24 0 -24 -24h-20v4q0 36 48 36zM264 1436h4q40 -5 40 -40 h-20q-14 16 -28 16h-8q-12 0 -20 -36v-4q16 16 44 16q36 -10 36 -56q0 -42 -52 -48q-56 0 -56 76t60 76zM380 1436q44 -8 44 -44v-4q0 -30 -56 -64l-8 -12h64v-24h-104v4q0 27 72 84q4 7 4 16v4q0 6 -16 16q-28 0 -28 -36h-28v4q0 56 56 56zM652 1436h12q48 0 48 -76 t-48 -76h-12q-48 0 -48 76t48 76zM764 1436h12q48 0 48 -76t-48 -76h-12q-48 0 -48 76t48 76zM140 1432h24v-144h-28v92h-36v24q40 0 40 28zM508 1432h80v-24h-60q0 -10 -4 -32q15 12 28 12q44 0 44 -56q-11 -48 -48 -48h-12q-48 11 -48 44h32q0 -20 24 -20h8q16 7 16 28 q0 22 -16 28h-8q-20 0 -20 -12h-28q0 13 12 80zM632 1372v-24q0 -40 28 -40q24 0 24 40v24q0 40 -28 40q-24 0 -24 -40zM744 1372v-24q0 -40 28 -40q24 0 24 40v24q0 40 -28 40q-24 0 -24 -40zM236 1348v-24q0 -6 16 -16h16q16 7 16 28q0 22 -16 28h-16q-6 0 -16 -16z M440 1320h32v-32h-32v32zM1420 1312q36 0 36 -32l-12 -20q16 -6 16 -28q-12 -28 -36 -28h-4q-36 0 -36 36l12 20q-12 13 -12 20q0 32 36 32zM1404 1284v-12l20 -4q8 4 12 4v12q0 6 -12 12h-8q-6 0 -12 -12zM1404 1240v-8q0 -6 12 -12h12q6 0 12 12v8q0 6 -12 12h-12 q-6 0 -12 -12zM1420 1176q36 0 36 -32l-12 -20q16 -6 16 -28q-12 -28 -36 -28h-4q-36 0 -36 36l12 20q-12 13 -12 20q0 32 36 32zM1336 1172h16v-104h-20v68h-24v16q28 0 28 20zM1404 1148v-12l20 -4q8 4 12 4v12q0 6 -12 12h-8q-6 0 -12 -12zM1404 1104v-8q0 -6 12 -12h12 q6 0 12 12v8q0 6 -12 12h-12q-6 0 -12 -12zM288 1092h224q224 0 288 -144q32 -75 32 -164q0 -230 -188 -296q-55 -12 -132 -12h-224v616zM1348 1040q25 0 28 -40q0 -11 -48 -52h48v-16h-80q0 22 56 64q4 7 4 16q0 6 -12 12q-24 0 -24 -24h-20v4q0 36 48 36zM1420 1040 q36 0 36 -32l-12 -20q16 -6 16 -28q-12 -28 -36 -28h-4q-36 0 -36 36l12 20q-12 13 -12 20q0 32 36 32zM1404 1012v-12l20 -4q8 4 12 4v12q0 6 -12 12h-8q-6 0 -12 -12zM424 980v-392h104q168 0 168 184v8q0 200 -184 200h-88zM1404 968v-8q0 -6 12 -12h12q6 0 12 12v8 q0 6 -12 12h-12q-6 0 -12 -12zM824 920h132l100 -304h4l96 304h128q-188 -507 -208 -544q-43 -56 -136 -56q-7 0 -72 4v100q48 -4 72 -4q38 0 48 60q-4 23 -164 440zM1420 904q36 0 36 -32l-12 -20q16 -6 16 -28q-12 -28 -36 -28h-4q-36 0 -36 36l12 20q-12 13 -12 20 q0 32 36 32zM1404 876v-12l20 -4q8 4 12 4v12q0 6 -12 12h-8q-6 0 -12 -12zM1404 832v-8q0 -6 12 -12h12q6 0 12 12v8q0 6 -12 12h-12q-6 0 -12 -12zM1432 768q25 0 28 -40q0 -11 -48 -52h48v-16h-80q0 22 56 64q4 7 4 16q0 6 -12 12q-24 0 -24 -24h-20v4q0 36 48 36z M148 236h4q40 -5 40 -40h-20q-14 16 -28 16h-8q-12 0 -20 -36v-4q16 16 44 16q36 -10 36 -56q0 -42 -52 -48q-56 0 -56 76t60 76zM264 236h4q40 -5 40 -40h-20q-14 16 -28 16h-8q-12 0 -20 -36v-4q16 16 44 16q36 -10 36 -56q0 -42 -52 -48q-56 0 -56 76t60 76zM120 148v-24 q0 -6 16 -16h16q16 7 16 28q0 22 -16 28h-16q-6 0 -16 -16zM236 148v-24q0 -6 16 -16h16q16 7 16 28q0 22 -16 28h-16q-6 0 -16 -16z" />
<glyph unicode="K" d="M40 1528h1448q40 -5 40 -40v-1448q-5 -40 -40 -40h-1448q-40 5 -40 40v1448q5 40 40 40zM40 1488v-1448h1448v1448h-1448zM1432 1448q25 0 28 -40q0 -11 -48 -52h48v-16h-80q0 22 56 64q4 7 4 16q0 6 -12 12q-24 0 -24 -24h-20v4q0 36 48 36zM144 1436h4q44 -8 44 -40 q0 -14 -16 -32v-4q20 0 20 -28q0 -48 -52 -48h-4q-52 6 -52 48v8h28q0 -27 16 -32h20q6 0 16 16v16q-5 16 -36 16v20q32 0 32 12v12q0 6 -12 12h-16q-13 0 -16 -28h-28q0 52 52 52zM256 1436q56 0 56 -72q0 -80 -60 -80h-4q-40 8 -40 40h28q2 -16 12 -16h4q32 0 32 44 q-16 -16 -44 -16q-36 12 -36 52q0 42 52 48zM420 1436h12q48 0 48 -76t-48 -76h-12q-48 0 -48 76t48 76zM540 1436q56 0 56 -72q0 -80 -60 -80h-4q-40 8 -40 40h28q2 -16 12 -16h4q32 0 32 44q-16 -16 -44 -16q-36 12 -36 52q0 42 52 48zM652 1436h12q44 -7 44 -44 q-7 -20 -20 -20q24 -19 24 -40q0 -48 -52 -48h-4q-43 0 -52 40v8q5 32 24 32v8q-20 0 -20 28q0 27 44 36zM772 1436h4q44 -8 44 -40q0 -14 -16 -32v-4q20 0 20 -28q0 -48 -52 -48h-4q-52 6 -52 48v8h28q0 -27 16 -32h20q6 0 16 16v16q-5 16 -36 16v20q32 0 32 12v12 q0 6 -12 12h-16q-13 0 -16 -28h-28q0 52 52 52zM232 1384q0 -16 16 -24h16q6 0 16 16v20q0 6 -16 16h-16q-16 -6 -16 -28zM400 1372v-24q0 -40 28 -40q24 0 24 40v24q0 40 -28 40q-24 0 -24 -40zM516 1384q0 -16 16 -24h16q6 0 16 16v20q0 6 -16 16h-16q-16 -6 -16 -28z M636 1400v-12q4 -12 24 -12q20 3 20 12v12q0 6 -12 12h-20q-6 0 -12 -12zM632 1340v-16q0 -6 16 -16h20q6 0 16 16v16q-6 16 -28 16q-16 0 -24 -16zM328 1320h32v-32h-32v32zM1420 1312q36 0 36 -32l-12 -20q16 -6 16 -28q-12 -28 -36 -28h-4q-36 0 -36 36l12 20 q-12 13 -12 20q0 32 36 32zM1404 1284v-12l20 -4q8 4 12 4v12q0 6 -12 12h-8q-6 0 -12 -12zM1404 1240v-8q0 -6 12 -12h12q6 0 12 12v8q0 6 -12 12h-12q-6 0 -12 -12zM1420 1176q36 0 36 -32l-12 -20q16 -6 16 -28q-12 -28 -36 -28h-4q-36 0 -36 36l12 20q-12 13 -12 20 q0 32 36 32zM1404 1148v-12l20 -4q8 4 12 4v12q0 6 -12 12h-8q-6 0 -12 -12zM1404 1104v-8q0 -6 12 -12h12q6 0 12 12v8q0 6 -12 12h-12q-6 0 -12 -12zM500 1092h136v-252l244 252h164q-236 -238 -236 -244v-4l260 -368h-172q0 10 -184 276l-76 -80v-196h-136v616z M1420 1036h16v-104h-20v68h-24v16q28 0 28 20zM256 236q56 0 56 -72q0 -80 -60 -80h-4q-40 8 -40 40h28q2 -16 12 -16h4q32 0 32 44q-16 -16 -44 -16q-36 12 -36 52q0 42 52 48zM140 232h24v-144h-28v92h-36v24q40 0 40 28zM232 184q0 -16 16 -24h16q6 0 16 16v20 q0 6 -16 16h-16q-16 -6 -16 -28z" />
<glyph unicode="L" d="M40 1528h1448q40 -5 40 -40v-1448q-5 -40 -40 -40h-1448q-40 5 -40 40v1448q5 40 40 40zM40 1488v-1448h1448v1448h-1448zM1432 1448q25 0 28 -40q0 -11 -48 -52h48v-16h-80q0 22 56 64q4 7 4 16q0 6 -12 12q-24 0 -24 -24h-20v4q0 36 48 36zM148 1436h4q40 -5 40 -40 h-20q-14 16 -28 16h-8q-12 0 -20 -36v-4q16 16 44 16q36 -10 36 -56q0 -42 -52 -48q-56 0 -56 76t60 76zM312 1436q56 0 56 -72q0 -80 -60 -80h-4q-40 8 -40 40h28q2 -16 12 -16h4q32 0 32 44q-16 -16 -44 -16q-36 12 -36 52q0 42 52 48zM436 1432h24v-88h20v-24h-20v-32 h-28v32h-60v28q61 84 64 84zM540 1432h24v-144h-28v92h-36v24q40 0 40 28zM288 1384q0 -16 16 -24h16q6 0 16 16v20q0 6 -16 16h-16q-16 -6 -16 -28zM396 1344h36v48q-8 -3 -36 -48zM120 1348v-24q0 -6 16 -16h16q16 7 16 28q0 22 -16 28h-16q-6 0 -16 -16zM212 1320h32v-32 h-32v32zM1420 1308h16v-104h-20v68h-24v16q28 0 28 20zM464 1092h136v-504h300v-112h-436v616zM936 1092h124v-100h-124v100zM936 920h124v-444h-124v444zM144 236h4q44 -8 44 -40q0 -14 -16 -32v-4q20 0 20 -28q0 -48 -52 -48h-4q-52 6 -52 48v8h28q0 -27 16 -32h20 q6 0 16 16v16q-5 16 -36 16v20q32 0 32 12v12q0 6 -12 12h-16q-13 0 -16 -28h-28q0 52 52 52z" />
<glyph unicode="M" horiz-adv-x="1630" d="M40 1528h1448q40 -5 40 -40v-1448q-5 -40 -40 -40h-1448q-40 5 -40 40v1448q5 40 40 40zM40 1488v-1448h1448v1448h-1448zM1432 1448q25 0 28 -40q0 -11 -48 -52h48v-16h-80q0 22 56 64q4 7 4 16q0 6 -12 12q-24 0 -24 -24h-20v4q0 36 48 36zM148 1436q44 -8 44 -44v-4 q0 -30 -56 -64l-8 -12h64v-24h-104v4q0 27 72 84q4 7 4 16v4q0 6 -16 16q-28 0 -28 -36h-28v4q0 56 56 56zM428 1436h4q44 -8 44 -40q0 -14 -16 -32v-4q20 0 20 -28q0 -48 -52 -48h-4q-52 6 -52 48v8h28q0 -27 16 -32h20q6 0 16 16v16q-5 16 -36 16v20q32 0 32 12v12 q0 6 -12 12h-16q-13 0 -16 -28h-28q0 52 52 52zM536 1436h12q48 0 48 -76t-48 -76h-12q-48 0 -48 76t48 76zM764 1436h12q48 0 48 -76t-48 -76h-12q-48 0 -48 76t48 76zM268 1432h24v-88h20v-24h-20v-32h-28v32h-60v28q61 84 64 84zM624 1432h80v-24h-60q0 -10 -4 -32 q15 12 28 12q44 0 44 -56q-11 -48 -48 -48h-12q-48 11 -48 44h32q0 -20 24 -20h8q16 7 16 28q0 22 -16 28h-8q-20 0 -20 -12h-28q0 13 12 80zM516 1372v-24q0 -40 28 -40q24 0 24 40v24q0 40 -28 40q-24 0 -24 -40zM744 1372v-24q0 -40 28 -40q24 0 24 40v24q0 40 -28 40 q-24 0 -24 -40zM228 1344h36v48q-8 -3 -36 -48zM328 1320h32v-32h-32v32zM1420 1312q36 0 36 -32l-12 -20q16 -6 16 -28q-12 -28 -36 -28h-4q-36 0 -36 36l12 20q-12 13 -12 20q0 32 36 32zM1404 1284v-12l20 -4q8 4 12 4v12q0 6 -12 12h-8q-6 0 -12 -12zM1404 1240v-8 q0 -6 12 -12h12q6 0 12 12v8q0 6 -12 12h-12q-6 0 -12 -12zM1432 1176q25 0 28 -40q0 -11 -48 -52h48v-16h-80q0 22 56 64q4 7 4 16q0 6 -12 12q-24 0 -24 -24h-20v4q0 36 48 36zM176 1092h192l140 -420h8q12 45 132 420h192v-616h-128v432h-4q-144 -432 -152 -432h-96 q-8 0 -152 428h-4v-428h-128v616zM1100 932q86 0 124 -72h4v60h116v-412q0 -200 -228 -200q-156 0 -196 116q-4 7 -4 20v4h124q0 -51 88 -60q100 0 100 112v56q-51 -68 -140 -68q-135 0 -180 144q-8 60 -8 84q0 160 148 212q34 4 52 4zM1024 708q0 -100 72 -124q7 -4 20 -4 h4q80 0 104 84q4 22 4 36q0 140 -108 140q-96 -13 -96 -120v-12zM264 236q44 -8 44 -44v-4q0 -30 -56 -64l-8 -12h64v-24h-104v4q0 27 72 84q4 7 4 16v4q0 6 -16 16q-28 0 -28 -36h-28v4q0 56 56 56zM140 232h24v-144h-28v92h-36v24q40 0 40 28z" />
<glyph unicode="N" d="M40 1528h1448q40 -5 40 -40v-1448q-5 -40 -40 -40h-1448q-40 5 -40 40v1448q5 40 40 40zM40 1488v-1448h1448v1448h-1448zM1432 1448q25 0 28 -40q0 -11 -48 -52h48v-16h-80q0 22 56 64q4 7 4 16q0 6 -12 12q-24 0 -24 -24h-20v4q0 36 48 36zM420 1436h12q48 0 48 -76 t-48 -76h-12q-48 0 -48 76t48 76zM536 1436h12q48 0 48 -76t-48 -76h-12q-48 0 -48 76t48 76zM664 1436h4q40 -5 40 -40h-20q-14 16 -28 16h-8q-12 0 -20 -36v-4q16 16 44 16q36 -10 36 -56q0 -42 -52 -48q-56 0 -56 76t60 76zM140 1432h24v-144h-28v92h-36v24q40 0 40 28z M268 1432h24v-88h20v-24h-20v-32h-28v32h-60v28q61 84 64 84zM720 1432h100v-24q-48 -53 -48 -120h-28q0 50 44 116h-68v28zM400 1372v-24q0 -40 28 -40q24 0 24 40v24q0 40 -28 40q-24 0 -24 -40zM516 1372v-24q0 -40 28 -40q24 0 24 40v24q0 40 -28 40q-24 0 -24 -40z M228 1344h36v48q-8 -3 -36 -48zM636 1348v-24q0 -6 16 -16h16q16 7 16 28q0 22 -16 28h-16q-6 0 -16 -16zM328 1320h32v-32h-32v32zM1396 1308h60v-16h-44l-4 -24q13 8 20 8q32 0 32 -36q-5 -36 -36 -36h-4q-36 6 -36 32h16q14 -16 28 -16q12 4 12 24q-6 16 -12 16h-12 l-12 -8h-16q8 48 8 56zM496 1092h132q17 -17 256 -412h4v412h128v-616h-132q-16 12 -256 412h-4v-412h-128v616zM92 232h100v-24q-48 -53 -48 -120h-28q0 50 44 116h-68v28z" />
<glyph unicode="O" d="M40 1528h1448q40 -5 40 -40v-1448q-5 -40 -40 -40h-1448q-40 5 -40 40v1448q5 40 40 40zM40 1488v-1448h1448v1448h-1448zM1432 1448q25 0 28 -40q0 -11 -48 -52h48v-16h-80q0 22 56 64q4 7 4 16q0 6 -12 12q-24 0 -24 -24h-20v4q0 36 48 36zM424 1436q56 0 56 -72 q0 -80 -60 -80h-4q-40 8 -40 40h28q2 -16 12 -16h4q32 0 32 44q-16 -16 -44 -16q-36 12 -36 52q0 42 52 48zM540 1436q56 0 56 -72q0 -80 -60 -80h-4q-40 8 -40 40h28q2 -16 12 -16h4q32 0 32 44q-16 -16 -44 -16q-36 12 -36 52q0 42 52 48zM656 1436q56 0 56 -72 q0 -80 -60 -80h-4q-40 8 -40 40h28q2 -16 12 -16h4q32 0 32 44q-16 -16 -44 -16q-36 12 -36 52q0 42 52 48zM140 1432h24v-144h-28v92h-36v24q40 0 40 28zM224 1432h80v-24h-60q0 -10 -4 -32q15 12 28 12q44 0 44 -56q-11 -48 -48 -48h-12q-48 11 -48 44h32q0 -20 24 -20h8 q16 7 16 28q0 22 -16 28h-8q-20 0 -20 -12h-28q0 13 12 80zM780 1432h24v-88h20v-24h-20v-32h-28v32h-60v28q61 84 64 84zM400 1384q0 -16 16 -24h16q6 0 16 16v20q0 6 -16 16h-16q-16 -6 -16 -28zM516 1384q0 -16 16 -24h16q6 0 16 16v20q0 6 -16 16h-16q-16 -6 -16 -28z M632 1384q0 -16 16 -24h16q6 0 16 16v20q0 6 -16 16h-16q-16 -6 -16 -28zM740 1344h36v48q-8 -3 -36 -48zM328 1320h32v-32h-32v32zM1424 1312q36 -6 36 -32h-16l-16 16h-8q-10 0 -16 -32h4q13 8 24 8q28 -8 28 -32q-5 -36 -36 -36q-40 0 -40 48v4q0 47 36 56h4zM1404 1240 q8 -18 16 -20h8q6 0 12 12v12q0 6 -12 12q-17 0 -24 -16zM752 1104q209 0 288 -208q16 -65 16 -120q0 -220 -212 -300q-44 -8 -92 -12q-226 0 -296 236q-8 50 -8 84q0 234 216 308q41 8 88 12zM584 780q0 -146 104 -192q32 -12 68 -12q139 0 164 180v24q0 174 -132 208 q-21 4 -40 4q-124 0 -160 -152q-4 -35 -4 -60zM136 236h12q44 -7 44 -44q-7 -20 -20 -20q24 -19 24 -40q0 -48 -52 -48h-4q-43 0 -52 40v8q5 32 24 32v8q-20 0 -20 28q0 27 44 36zM120 200v-12q4 -12 24 -12q20 3 20 12v12q0 6 -12 12h-20q-6 0 -12 -12zM116 140v-16 q0 -6 16 -16h20q6 0 16 16v16q-6 16 -28 16q-16 0 -24 -16z" />
<glyph unicode="P" d="M40 1528h1448q40 -5 40 -40v-1448q-5 -40 -40 -40h-1448q-40 5 -40 40v1448q5 40 40 40zM40 1488v-1448h1448v1448h-1448zM1432 1448q25 0 28 -40q0 -11 -48 -52h48v-16h-80q0 22 56 64q4 7 4 16q0 6 -12 12q-24 0 -24 -24h-20v4q0 36 48 36zM144 1436h4q44 -8 44 -40 q0 -14 -16 -32v-4q20 0 20 -28q0 -48 -52 -48h-4q-52 6 -52 48v8h28q0 -27 16 -32h20q6 0 16 16v16q-5 16 -36 16v20q32 0 32 12v12q0 6 -12 12h-16q-13 0 -16 -28h-28q0 52 52 52zM252 1436h12q48 0 48 -76t-48 -76h-12q-48 0 -48 76t48 76zM424 1436q56 0 56 -72 q0 -80 -60 -80h-4q-40 8 -40 40h28q2 -16 12 -16h4q32 0 32 44q-16 -16 -44 -16q-36 12 -36 52q0 42 52 48zM668 1436h4q44 -8 44 -40q0 -14 -16 -32v-4q20 0 20 -28q0 -48 -52 -48h-4q-52 6 -52 48v8h28q0 -27 16 -32h20q6 0 16 16v16q-5 16 -36 16v20q32 0 32 12v12 q0 6 -12 12h-16q-13 0 -16 -28h-28q0 52 52 52zM912 1436h4q40 -5 40 -40h-20q-14 16 -28 16h-8q-12 0 -20 -36v-4q16 16 44 16q36 -10 36 -56q0 -42 -52 -48q-56 0 -56 76t60 76zM1028 1436q44 -8 44 -44v-4q0 -30 -56 -64l-8 -12h64v-24h-104v4q0 27 72 84q4 7 4 16v4 q0 6 -16 16q-28 0 -28 -36h-28v4q0 56 56 56zM492 1432h100v-24q-48 -53 -48 -120h-28q0 50 44 116h-68v28zM732 1432h100v-24q-48 -53 -48 -120h-28q0 50 44 116h-68v28zM232 1372v-24q0 -40 28 -40q24 0 24 40v24q0 40 -28 40q-24 0 -24 -40zM400 1384q0 -16 16 -24h16 q6 0 16 16v20q0 6 -16 16h-16q-16 -6 -16 -28zM884 1348v-24q0 -6 16 -16h16q16 7 16 28q0 22 -16 28h-16q-6 0 -16 -16zM328 1320h32v-32h-32v32zM1420 1312q36 0 36 -32l-12 -20q16 -6 16 -28q-12 -28 -36 -28h-4q-36 0 -36 36l12 20q-12 13 -12 20q0 32 36 32zM1404 1284 v-12l20 -4q8 4 12 4v12q0 6 -12 12h-8q-6 0 -12 -12zM1404 1240v-8q0 -6 12 -12h12q6 0 12 12v8q0 6 -12 12h-12q-6 0 -12 -12zM1396 1172h60v-16h-44l-4 -24q13 8 20 8q32 0 32 -36q-5 -36 -36 -36h-4q-36 6 -36 32h16q14 -16 28 -16q12 4 12 24q-6 16 -12 16h-12l-12 -8 h-16q8 48 8 56zM528 1092h268q162 0 212 -120q12 -52 12 -80q0 -146 -144 -188q-32 -8 -76 -8h-136v-220h-136v616zM664 988v-188h112q112 0 112 92v12q0 84 -124 84h-100zM140 232h24v-144h-28v92h-36v24q40 0 40 28zM224 232h80v-24h-60q0 -10 -4 -32q15 12 28 12 q44 0 44 -56q-11 -48 -48 -48h-12q-48 11 -48 44h32q0 -20 24 -20h8q16 7 16 28q0 22 -16 28h-8q-20 0 -20 -12h-28q0 13 12 80z" />
<glyph unicode="Q" horiz-adv-x="1614" d="M40 1528h1448q40 -5 40 -40v-1448q-5 -40 -40 -40h-1448q-40 5 -40 40v1448q5 40 40 40zM40 1488v-1448h1448v1448h-1448zM1432 1448q25 0 28 -40q0 -11 -48 -52h48v-16h-80q0 22 56 64q4 7 4 16q0 6 -12 12q-24 0 -24 -24h-20v4q0 36 48 36zM148 1436q44 -8 44 -44v-4 q0 -30 -56 -64l-8 -12h64v-24h-104v4q0 27 72 84q4 7 4 16v4q0 6 -16 16q-28 0 -28 -36h-28v4q0 56 56 56zM252 1436h12q44 -7 44 -44q-7 -20 -20 -20q24 -19 24 -40q0 -48 -52 -48h-4q-43 0 -52 40v8q5 32 24 32v8q-20 0 -20 28q0 27 44 36zM372 1436q56 0 56 -72 q0 -80 -60 -80h-4q-40 8 -40 40h28q2 -16 12 -16h4q32 0 32 44q-16 -16 -44 -16q-36 12 -36 52q0 42 52 48zM236 1400v-12q4 -12 24 -12q20 3 20 12v12q0 6 -12 12h-20q-6 0 -12 -12zM348 1384q0 -16 16 -24h16q6 0 16 16v20q0 6 -16 16h-16q-16 -6 -16 -28zM232 1340v-16 q0 -6 16 -16h20q6 0 16 16v16q-6 16 -28 16q-16 0 -24 -16zM1420 1312q36 0 36 -32l-12 -20q16 -6 16 -28q-12 -28 -36 -28h-4q-36 0 -36 36l12 20q-12 13 -12 20q0 32 36 32zM1404 1284v-12l20 -4q8 4 12 4v12q0 6 -12 12h-8q-6 0 -12 -12zM1404 1240v-8q0 -6 12 -12h12 q6 0 12 12v8q0 6 -12 12h-12q-6 0 -12 -12zM1420 1176q36 0 36 -32l-12 -20q16 -6 16 -28q-12 -28 -36 -28h-4q-36 0 -36 36l12 20q-12 13 -12 20q0 32 36 32zM1336 1172h16v-104h-20v68h-24v16q28 0 28 20zM1404 1148v-12l20 -4q8 4 12 4v12q0 6 -12 12h-8q-6 0 -12 -12z M1404 1104v-8q0 -6 12 -12h12q6 0 12 12v8q0 6 -12 12h-12q-6 0 -12 -12zM260 1092h88v-388q0 -128 88 -128q80 0 80 128v388h88v-372q0 -256 -176 -256q-168 0 -168 256v372zM1336 1040q36 -3 36 -28l-8 -28q6 0 12 -12v-4q0 -36 -36 -36q-40 4 -40 36h20q3 -20 12 -20h12 q6 0 12 12v8q0 12 -24 12v16l20 4v12q0 6 -12 12h-8q-11 0 -12 -20h-20q5 36 36 36zM1432 1040q25 0 28 -40q0 -11 -48 -52h48v-16h-80q0 22 56 64q4 7 4 16q0 6 -12 12q-24 0 -24 -24h-20v4q0 36 48 36zM1080 932h4q57 0 84 -64v-4h4v56h76v-600h-80v208h-4 q-24 -64 -96 -64q-73 0 -112 152q-4 60 -4 84q0 187 108 228q7 4 20 4zM652 920h80v-256q0 -104 48 -104h8q56 0 56 116v244h80v-444h-76v60h-4q-30 -72 -88 -72q-104 0 -104 184v272zM1336 904q36 -3 36 -28q-8 -25 -8 -28q6 0 12 -12v-4q0 -36 -36 -36q-40 4 -40 36h20 q3 -20 12 -20h12q6 0 12 12v8q0 12 -24 12v16l20 4v12q0 6 -12 12h-8q-11 0 -12 -20h-20q5 36 36 36zM1432 904q25 0 28 -40q0 -11 -48 -52h48v-16h-80q0 22 56 64q4 7 4 16q0 6 -12 12q-24 0 -24 -24h-20v4q0 36 48 36zM1032 696v-4q0 -136 72 -136q64 12 64 108q4 4 4 32 q-8 144 -68 144h-4q-68 0 -68 -144zM1420 768q36 0 36 -32l-12 -20q16 -6 16 -28q-12 -28 -36 -28h-4q-36 0 -36 36l12 20q-12 13 -12 20q0 32 36 32zM1336 764h16v-104h-20v68h-24v16q28 0 28 20zM1404 740v-12l20 -4q8 4 12 4v12q0 6 -12 12h-8q-6 0 -12 -12zM1404 696v-8 q0 -6 12 -12h12q6 0 12 12v8q0 6 -12 12h-12q-6 0 -12 -12zM1420 632h16v-64h12v-16h-12v-24h-20v24h-44v16q19 31 48 64zM1412 604q0 -8 -20 -32v-4h24v36h-4zM140 232h24v-144h-28v92h-36v24q40 0 40 28zM256 232h24v-144h-28v92h-36v24q40 0 40 28zM384 232h24v-88h20 v-24h-20v-32h-28v32h-60v28q61 84 64 84zM344 144h36v48q-8 -3 -36 -48z" />
<glyph unicode="R" d="M40 1528h1448q40 -5 40 -40v-1448q-5 -40 -40 -40h-1448q-40 5 -40 40v1448q5 40 40 40zM40 1488v-1448h1448v1448h-1448zM1432 1448q25 0 28 -40q0 -11 -48 -52h48v-16h-80q0 22 56 64q4 7 4 16q0 6 -12 12q-24 0 -24 -24h-20v4q0 36 48 36zM136 1436h12q44 -7 44 -44 q-7 -20 -20 -20q24 -19 24 -40q0 -48 -52 -48h-4q-43 0 -52 40v8q5 32 24 32v8q-20 0 -20 28q0 27 44 36zM548 1436h4q40 -5 40 -40h-20q-14 16 -28 16h-8q-12 0 -20 -36v-4q16 16 44 16q36 -10 36 -56q0 -42 -52 -48q-56 0 -56 76t60 76zM776 1436h12q44 -7 44 -44 q-7 -20 -20 -20q24 -19 24 -40q0 -48 -52 -48h-4q-43 0 -52 40v8q5 32 24 32v8q-20 0 -20 28q0 27 44 36zM224 1432h80v-24h-60q0 -10 -4 -32q15 12 28 12q44 0 44 -56q-11 -48 -48 -48h-12q-48 11 -48 44h32q0 -20 24 -20h8q16 7 16 28q0 22 -16 28h-8q-20 0 -20 -12h-28 q0 13 12 80zM436 1432h24v-88h20v-24h-20v-32h-28v32h-60v28q61 84 64 84zM608 1432h100v-24q-48 -53 -48 -120h-28q0 50 44 116h-68v28zM120 1400v-12q4 -12 24 -12q20 3 20 12v12q0 6 -12 12h-20q-6 0 -12 -12zM760 1400v-12q4 -12 24 -12q20 3 20 12v12q0 6 -12 12h-20 q-6 0 -12 -12zM396 1344h36v48q-8 -3 -36 -48zM520 1348v-24q0 -6 16 -16h16q16 7 16 28q0 22 -16 28h-16q-6 0 -16 -16zM116 1340v-16q0 -6 16 -16h20q6 0 16 16v16q-6 16 -28 16q-16 0 -24 -16zM756 1340v-16q0 -6 16 -16h20q6 0 16 16v16q-6 16 -28 16q-16 0 -24 -16z M328 1320h32v-32h-32v32zM1420 1312q36 0 36 -32l-12 -20q16 -6 16 -28q-12 -28 -36 -28h-4q-36 0 -36 36l12 20q-12 13 -12 20q0 32 36 32zM1404 1284v-12l20 -4q8 4 12 4v12q0 6 -12 12h-8q-6 0 -12 -12zM1404 1240v-8q0 -6 12 -12h12q6 0 12 12v8q0 6 -12 12h-12 q-6 0 -12 -12zM1420 1176q36 0 36 -32l-12 -20q16 -6 16 -28q-12 -28 -36 -28h-4q-36 0 -36 36l12 20q-12 13 -12 20q0 32 36 32zM1336 1172h16v-104h-20v68h-24v16q28 0 28 20zM1404 1148v-12l20 -4q8 4 12 4v12q0 6 -12 12h-8q-6 0 -12 -12zM1404 1104v-8q0 -6 12 -12h12 q6 0 12 12v8q0 6 -12 12h-12q-6 0 -12 -12zM256 1092h312q138 0 184 -96q16 -34 16 -84q0 -97 -88 -140q-8 -1 -8 -8q84 -33 84 -124q12 -139 28 -164h-136q-22 179 -40 212q-32 28 -76 28h-140v-240h-136v616zM832 1092h124v-224q58 64 144 64q143 0 180 -188q4 -28 4 -48 q0 -169 -136 -224q-30 -8 -56 -8q-92 0 -144 68v-56h-116v616zM1420 1040q36 0 36 -32l-12 -20q16 -6 16 -28q-12 -28 -36 -28h-4q-36 0 -36 36l12 20q-12 13 -12 20q0 32 36 32zM1404 1012v-12l20 -4q8 4 12 4v12q0 6 -12 12h-8q-6 0 -12 -12zM392 988v-176h144q96 0 96 88 t-92 88h-148zM1404 968v-8q0 -6 12 -12h12q6 0 12 12v8q0 6 -12 12h-12q-6 0 -12 -12zM1420 900h16v-104h-20v68h-24v16q28 0 28 20zM952 704v-4q0 -144 108 -144q65 0 92 80q8 30 8 56v12q-13 136 -96 136h-12q-64 0 -92 -80q-8 -30 -8 -56zM144 236h4q44 -8 44 -40 q0 -14 -16 -32v-4q20 0 20 -28q0 -48 -52 -48h-4q-52 6 -52 48v8h28q0 -27 16 -32h20q6 0 16 16v16q-5 16 -36 16v20q32 0 32 12v12q0 6 -12 12h-16q-13 0 -16 -28h-28q0 52 52 52zM208 232h100v-24q-48 -53 -48 -120h-28q0 50 44 116h-68v28z" />
<glyph unicode="S" horiz-adv-x="1630" d="M40 1528h1448q40 -5 40 -40v-1448q-5 -40 -40 -40h-1448q-40 5 -40 40v1448q5 40 40 40zM40 1488v-1448h1448v1448h-1448zM1432 1448q25 0 28 -40q0 -11 -48 -52h48v-16h-80q0 22 56 64q4 7 4 16q0 6 -12 12q-24 0 -24 -24h-20v4q0 36 48 36zM144 1436h4q44 -8 44 -40 q0 -14 -16 -32v-4q20 0 20 -28q0 -48 -52 -48h-4q-52 6 -52 48v8h28q0 -27 16 -32h20q6 0 16 16v16q-5 16 -36 16v20q32 0 32 12v12q0 6 -12 12h-16q-13 0 -16 -28h-28q0 52 52 52zM264 1436q44 -8 44 -44v-4q0 -30 -56 -64l-8 -12h64v-24h-104v4q0 27 72 84q4 7 4 16v4 q0 6 -16 16q-28 0 -28 -36h-28v4q0 56 56 56zM420 1436h12q48 0 48 -76t-48 -76h-12q-48 0 -48 76t48 76zM548 1436h4q40 -5 40 -40h-20q-14 16 -28 16h-8q-12 0 -20 -36v-4q16 16 44 16q36 -10 36 -56q0 -42 -52 -48q-56 0 -56 76t60 76zM624 1432h80v-24h-60q0 -10 -4 -32 q15 12 28 12q44 0 44 -56q-11 -48 -48 -48h-12q-48 11 -48 44h32q0 -20 24 -20h8q16 7 16 28q0 22 -16 28h-8q-20 0 -20 -12h-28q0 13 12 80zM400 1372v-24q0 -40 28 -40q24 0 24 40v24q0 40 -28 40q-24 0 -24 -40zM520 1348v-24q0 -6 16 -16h16q16 7 16 28q0 22 -16 28h-16 q-6 0 -16 -16zM328 1320h32v-32h-32v32zM1420 1312q36 0 36 -32l-12 -20q16 -6 16 -28q-12 -28 -36 -28h-4q-36 0 -36 36l12 20q-12 13 -12 20q0 32 36 32zM1404 1284v-12l20 -4q8 4 12 4v12q0 6 -12 12h-8q-6 0 -12 -12zM1404 1240v-8q0 -6 12 -12h12q6 0 12 12v8 q0 6 -12 12h-12q-6 0 -12 -12zM1424 1176q36 -6 36 -32h-16l-16 16h-8q-10 0 -16 -32h4q13 8 24 8q28 -8 28 -32q-5 -36 -36 -36q-40 0 -40 48v4q0 47 36 56h4zM1404 1104q8 -18 16 -20h8q6 0 12 12v12q0 6 -12 12q-17 0 -24 -16zM752 1104q180 0 236 -136l8 -60h-132 q0 92 -124 92q-81 0 -92 -64v-12q0 -52 168 -80q200 -43 200 -188q0 -121 -136 -172q-52 -20 -124 -20q-163 0 -236 116q-24 44 -24 100h132q0 -78 80 -104q30 -8 56 -8q120 9 120 68v8q0 73 -200 104q-119 37 -152 96q-16 43 -16 80q0 128 168 172q43 8 68 8zM264 236h4 q40 -5 40 -40h-20q-14 16 -28 16h-8q-12 0 -20 -36v-4q16 16 44 16q36 -10 36 -56q0 -42 -52 -48q-56 0 -56 76t60 76zM140 232h24v-144h-28v92h-36v24q40 0 40 28zM236 148v-24q0 -6 16 -16h16q16 7 16 28q0 22 -16 28h-16q-6 0 -16 -16z" />
<glyph unicode="T" horiz-adv-x="1620" d="M40 1528h1448q40 -5 40 -40v-1448q-5 -40 -40 -40h-1448q-40 5 -40 40v1448q5 40 40 40zM40 1488v-1448h1448v1448h-1448zM1432 1448q25 0 28 -40q0 -11 -48 -52h48v-16h-80q0 22 56 64q4 7 4 16q0 6 -12 12q-24 0 -24 -24h-20v4q0 36 48 36zM432 1436h12q44 -7 44 -44 q-7 -20 -20 -20q24 -19 24 -40q0 -48 -52 -48h-4q-43 0 -52 40v8q5 32 24 32v8q-20 0 -20 28q0 27 44 36zM560 1436h4q40 -5 40 -40h-20q-14 16 -28 16h-8q-12 0 -20 -36v-4q16 16 44 16q36 -10 36 -56q0 -42 -52 -48q-56 0 -56 76t60 76zM152 1432h24v-88h20v-24h-20v-32 h-28v32h-60v28q61 84 64 84zM208 1432h100v-24q-48 -53 -48 -120h-28q0 50 44 116h-68v28zM616 1432h100v-24q-48 -53 -48 -120h-28q0 50 44 116h-68v28zM416 1400v-12q4 -12 24 -12q20 3 20 12v12q0 6 -12 12h-20q-6 0 -12 -12zM112 1344h36v48q-8 -3 -36 -48zM532 1348 v-24q0 -6 16 -16h16q16 7 16 28q0 22 -16 28h-16q-6 0 -16 -16zM412 1340v-16q0 -6 16 -16h20q6 0 16 16v16q-6 16 -28 16q-16 0 -24 -16zM336 1320h32v-32h-32v32zM1420 1312q36 0 36 -32l-12 -20q16 -6 16 -28q-12 -28 -36 -28h-4q-36 0 -36 36l12 20q-12 13 -12 20 q0 32 36 32zM1404 1284v-12l20 -4q8 4 12 4v12q0 6 -12 12h-8q-6 0 -12 -12zM1404 1240v-8q0 -6 12 -12h12q6 0 12 12v8q0 6 -12 12h-12q-6 0 -12 -12zM1424 1176q36 0 36 -48q0 -60 -40 -60q-36 0 -36 60q0 48 40 48zM1336 1172h16v-104h-20v68h-24v16q28 0 28 20z M1404 1132v-20q0 -21 16 -28h4q16 7 16 28v20q0 22 -16 28h-4q-16 -6 -16 -28zM412 1092h504v-112h-184v-504h-136v504h-184v112zM940 1092h124v-100h-124v100zM1432 1040q25 0 28 -40q0 -11 -48 -52h48v-16h-80q0 22 56 64q4 7 4 16q0 6 -12 12q-24 0 -24 -24h-20v4 q0 36 48 36zM940 920h124v-444h-124v444zM148 236q44 -8 44 -44v-4q0 -30 -56 -64l-8 -12h64v-24h-104v4q0 27 72 84q4 7 4 16v4q0 6 -16 16q-28 0 -28 -36h-28v4q0 56 56 56zM264 236q44 -8 44 -44v-4q0 -30 -56 -64l-8 -12h64v-24h-104v4q0 27 72 84q4 7 4 16v4 q0 6 -16 16q-28 0 -28 -36h-28v4q0 56 56 56z" />
<glyph unicode="U" horiz-adv-x="1501" d="M40 1528h1448q40 -5 40 -40v-1448q-5 -40 -40 -40h-1448q-40 5 -40 40v1448q5 40 40 40zM40 1488v-1448h1448v1448h-1448zM1432 1448q25 0 28 -40q0 -11 -48 -52h48v-16h-80q0 22 56 64q4 7 4 16q0 6 -12 12q-24 0 -24 -24h-20v4q0 36 48 36zM148 1436q44 -8 44 -44v-4 q0 -30 -56 -64l-8 -12h64v-24h-104v4q0 27 72 84q4 7 4 16v4q0 6 -16 16q-28 0 -28 -36h-28v4q0 56 56 56zM260 1436h4q44 -8 44 -40q0 -14 -16 -32v-4q20 0 20 -28q0 -48 -52 -48h-4q-52 6 -52 48v8h28q0 -27 16 -32h20q6 0 16 16v16q-5 16 -36 16v20q32 0 32 12v12 q0 6 -12 12h-16q-13 0 -16 -28h-28q0 52 52 52zM368 1436h12q44 -7 44 -44q-7 -20 -20 -20q24 -19 24 -40q0 -48 -52 -48h-4q-43 0 -52 40v8q5 32 24 32v8q-20 0 -20 28q0 27 44 36zM536 1436h12q48 0 48 -76t-48 -76h-12q-48 0 -48 76t48 76zM664 1436q44 -8 44 -44v-4 q0 -30 -56 -64l-8 -12h64v-24h-104v4q0 27 72 84q4 7 4 16v4q0 6 -16 16q-28 0 -28 -36h-28v4q0 56 56 56zM764 1436h12q44 -7 44 -44q-7 -20 -20 -20q24 -19 24 -40q0 -48 -52 -48h-4q-43 0 -52 40v8q5 32 24 32v8q-20 0 -20 28q0 27 44 36zM884 1436q56 0 56 -72 q0 -80 -60 -80h-4q-40 8 -40 40h28q2 -16 12 -16h4q32 0 32 44q-16 -16 -44 -16q-36 12 -36 52q0 42 52 48zM1000 1432h24v-144h-28v92h-36v24q40 0 40 28zM352 1400v-12q4 -12 24 -12q20 3 20 12v12q0 6 -12 12h-20q-6 0 -12 -12zM516 1372v-24q0 -40 28 -40q24 0 24 40v24 q0 40 -28 40q-24 0 -24 -40zM748 1400v-12q4 -12 24 -12q20 3 20 12v12q0 6 -12 12h-20q-6 0 -12 -12zM860 1384q0 -16 16 -24h16q6 0 16 16v20q0 6 -16 16h-16q-16 -6 -16 -28zM348 1340v-16q0 -6 16 -16h20q6 0 16 16v16q-6 16 -28 16q-16 0 -24 -16zM744 1340v-16 q0 -6 16 -16h20q6 0 16 16v16q-6 16 -28 16q-16 0 -24 -16zM440 1320h32v-32h-32v32zM1420 1312q36 0 36 -32l-12 -20q16 -6 16 -28q-12 -28 -36 -28h-4q-36 0 -36 36l12 20q-12 13 -12 20q0 32 36 32zM1404 1284v-12l20 -4q8 4 12 4v12q0 6 -12 12h-8q-6 0 -12 -12z M1404 1240v-8q0 -6 12 -12h12q6 0 12 12v8q0 6 -12 12h-12q-6 0 -12 -12zM1420 1176q36 0 36 -32l-12 -20q16 -6 16 -28q-12 -28 -36 -28h-4q-36 0 -36 36l12 20q-12 13 -12 20q0 32 36 32zM1336 1172h16v-104h-20v68h-24v16q28 0 28 20zM1404 1148v-12l20 -4q8 4 12 4v12 q0 6 -12 12h-8q-6 0 -12 -12zM1404 1104v-8q0 -6 12 -12h12q6 0 12 12v8q0 6 -12 12h-12q-6 0 -12 -12zM492 1092h136v-388q0 -128 128 -128q88 0 116 56q12 35 12 80v380h136v-376q0 -252 -264 -252t-264 260v368zM1336 1040q36 -3 36 -28l-8 -28q6 0 12 -12v-4 q0 -36 -36 -36q-40 4 -40 36h20q3 -20 12 -20h12q6 0 12 12v8q0 12 -24 12v16l20 4v12q0 6 -12 12h-8q-11 0 -12 -20h-20q5 36 36 36zM1432 1040q25 0 28 -40q0 -11 -48 -52h48v-16h-80q0 22 56 64q4 7 4 16q0 6 -12 12q-24 0 -24 -24h-20v4q0 36 48 36zM1348 904 q25 0 28 -40q0 -11 -48 -52h48v-16h-80q0 22 56 64q4 7 4 16q0 6 -12 12q-24 0 -24 -24h-20v4q0 36 48 36zM1420 900h16v-104h-20v68h-24v16q28 0 28 20zM1428 768q23 0 32 -44v-8q-5 -56 -40 -56q-22 0 -32 20v8h20q0 -12 8 -12h8q12 0 12 28q-13 -8 -20 -8q-32 0 -32 36 t44 36zM1404 728q6 -16 12 -16h8q6 0 12 12v16q0 6 -12 12h-8q-12 -4 -12 -24zM1432 636q25 0 28 -40q0 -11 -48 -52h48v-16h-80q0 22 56 64q4 7 4 16q0 6 -12 12q-24 0 -24 -24h-20v4q0 36 48 36zM140 236q56 0 56 -72q0 -80 -60 -80h-4q-40 8 -40 40h28q2 -16 12 -16h4 q32 0 32 44q-16 -16 -44 -16q-36 12 -36 52q0 42 52 48zM264 236q44 -8 44 -44v-4q0 -30 -56 -64l-8 -12h64v-24h-104v4q0 27 72 84q4 7 4 16v4q0 6 -16 16q-28 0 -28 -36h-28v4q0 56 56 56zM116 184q0 -16 16 -24h16q6 0 16 16v20q0 6 -16 16h-16q-16 -6 -16 -28z" />
<glyph unicode="V" horiz-adv-x="1630" d="M40 1528h1448q40 -5 40 -40v-1448q-5 -40 -40 -40h-1448q-40 5 -40 40v1448q5 40 40 40zM40 1488v-1448h1448v1448h-1448zM1432 1448q25 0 28 -40q0 -11 -48 -52h48v-16h-80q0 22 56 64q4 7 4 16q0 6 -12 12q-24 0 -24 -24h-20v4q0 36 48 36zM252 1436h12q48 0 48 -76 t-48 -76h-12q-48 0 -48 76t48 76zM424 1436q56 0 56 -72q0 -80 -60 -80h-4q-40 8 -40 40h28q2 -16 12 -16h4q32 0 32 44q-16 -16 -44 -16q-36 12 -36 52q0 42 52 48zM108 1432h80v-24h-60q0 -10 -4 -32q15 12 28 12q44 0 44 -56q-11 -48 -48 -48h-12q-48 11 -48 44h32 q0 -20 24 -20h8q16 7 16 28q0 22 -16 28h-8q-20 0 -20 -12h-28q0 13 12 80zM552 1432h24v-88h20v-24h-20v-32h-28v32h-60v28q61 84 64 84zM656 1432h24v-144h-28v92h-36v24q40 0 40 28zM736 1432h80v-24h-60q0 -10 -4 -32q15 12 28 12q44 0 44 -56q-11 -48 -48 -48h-12 q-48 11 -48 44h32q0 -20 24 -20h8q16 7 16 28q0 22 -16 28h-8q-20 0 -20 -12h-28q0 13 12 80zM232 1372v-24q0 -40 28 -40q24 0 24 40v24q0 40 -28 40q-24 0 -24 -40zM400 1384q0 -16 16 -24h16q6 0 16 16v20q0 6 -16 16h-16q-16 -6 -16 -28zM512 1344h36v48q-8 -3 -36 -48z M328 1320h32v-32h-32v32zM1420 1312q36 0 36 -32l-12 -20q16 -6 16 -28q-12 -28 -36 -28h-4q-36 0 -36 36l12 20q-12 13 -12 20q0 32 36 32zM1404 1284v-12l20 -4q8 4 12 4v12q0 6 -12 12h-8q-6 0 -12 -12zM1404 1240v-8q0 -6 12 -12h12q6 0 12 12v8q0 6 -12 12h-12 q-6 0 -12 -12zM1336 1172h16v-104h-20v68h-24v16q28 0 28 20zM1420 1172h16v-104h-20v68h-24v16q28 0 28 20zM472 1092h140l136 -432h4q0 7 136 432h140l-204 -616h-148q-8 0 -84 252q-20 54 -120 364zM1432 1040q25 0 28 -40q0 -11 -48 -52h48v-16h-80q0 22 56 64q4 7 4 16 q0 6 -12 12q-24 0 -24 -24h-20v4q0 36 48 36zM148 236q44 -8 44 -44v-4q0 -30 -56 -64l-8 -12h64v-24h-104v4q0 27 72 84q4 7 4 16v4q0 6 -16 16q-28 0 -28 -36h-28v4q0 56 56 56zM260 236h4q44 -8 44 -40q0 -14 -16 -32v-4q20 0 20 -28q0 -48 -52 -48h-4q-52 6 -52 48v8h28 q0 -27 16 -32h20q6 0 16 16v16q-5 16 -36 16v20q32 0 32 12v12q0 6 -12 12h-16q-13 0 -16 -28h-28q0 52 52 52z" />
<glyph unicode="W" horiz-adv-x="1630" d="M40 1528h1448q40 -5 40 -40v-1448q-5 -40 -40 -40h-1448q-40 5 -40 40v1448q5 40 40 40zM40 1488v-1448h1448v1448h-1448zM1432 1448q25 0 28 -40q0 -11 -48 -52h48v-16h-80q0 22 56 64q4 7 4 16q0 6 -12 12q-24 0 -24 -24h-20v4q0 36 48 36zM252 1436h12q44 -7 44 -44 q-7 -20 -20 -20q24 -19 24 -40q0 -48 -52 -48h-4q-43 0 -52 40v8q5 32 24 32v8q-20 0 -20 28q0 27 44 36zM376 1436h4q44 -8 44 -40q0 -14 -16 -32v-4q20 0 20 -28q0 -48 -52 -48h-4q-52 6 -52 48v8h28q0 -27 16 -32h20q6 0 16 16v16q-5 16 -36 16v20q32 0 32 12v12 q0 6 -12 12h-16q-13 0 -16 -28h-28q0 52 52 52zM536 1436h12q44 -7 44 -44q-7 -20 -20 -20q24 -19 24 -40q0 -48 -52 -48h-4q-43 0 -52 40v8q5 32 24 32v8q-20 0 -20 28q0 27 44 36zM140 1432h24v-144h-28v92h-36v24q40 0 40 28zM668 1432h24v-88h20v-24h-20v-32h-28v32h-60 v28q61 84 64 84zM236 1400v-12q4 -12 24 -12q20 3 20 12v12q0 6 -12 12h-20q-6 0 -12 -12zM520 1400v-12q4 -12 24 -12q20 3 20 12v12q0 6 -12 12h-20q-6 0 -12 -12zM628 1344h36v48q-8 -3 -36 -48zM232 1340v-16q0 -6 16 -16h20q6 0 16 16v16q-6 16 -28 16q-16 0 -24 -16z M516 1340v-16q0 -6 16 -16h20q6 0 16 16v16q-6 16 -28 16q-16 0 -24 -16zM440 1320h32v-32h-32v32zM1420 1312q36 0 36 -32l-12 -20q16 -6 16 -28q-12 -28 -36 -28h-4q-36 0 -36 36l12 20q-12 13 -12 20q0 32 36 32zM1404 1284v-12l20 -4q8 4 12 4v12q0 6 -12 12h-8 q-6 0 -12 -12zM1404 1240v-8q0 -6 12 -12h12q6 0 12 12v8q0 6 -12 12h-12q-6 0 -12 -12zM1420 1176q36 0 36 -32l-12 -20q16 -6 16 -28q-12 -28 -36 -28h-4q-36 0 -36 36l12 20q-12 13 -12 20q0 32 36 32zM1336 1172h16v-104h-20v68h-24v16q28 0 28 20zM1404 1148v-12l20 -4 q8 4 12 4v12q0 6 -12 12h-8q-6 0 -12 -12zM1404 1104v-8q0 -6 12 -12h12q6 0 12 12v8q0 6 -12 12h-12q-6 0 -12 -12zM352 1092h136l96 -420h4l104 420h128l104 -424h4q0 13 100 424h132q-164 -607 -164 -616h-136l-104 420h-4q0 -14 -100 -420h-132q-10 0 -84 308 q-8 17 -84 308zM1336 1040q36 -3 36 -28l-8 -28q6 0 12 -12v-4q0 -36 -36 -36q-40 4 -40 36h20q3 -20 12 -20h12q6 0 12 12v8q0 12 -24 12v16l20 4v12q0 6 -12 12h-8q-11 0 -12 -20h-20q5 36 36 36zM1432 1040q25 0 28 -40q0 -11 -48 -52h48v-16h-80q0 22 56 64q4 7 4 16 q0 6 -12 12q-24 0 -24 -24h-20v4q0 36 48 36zM1432 904q25 0 28 -40q0 -11 -48 -52h48v-16h-80q0 22 56 64q4 7 4 16q0 6 -12 12q-24 0 -24 -24h-20v4q0 36 48 36zM1336 900h16v-104h-20v68h-24v16q28 0 28 20zM1432 768q25 0 28 -40q0 -11 -48 -52h48v-16h-80q0 22 56 64 q4 7 4 16q0 6 -12 12q-24 0 -24 -24h-20v4q0 36 48 36zM92 232h100v-24q-48 -53 -48 -120h-28q0 50 44 116h-68v28zM276 232h24v-88h20v-24h-20v-32h-28v32h-60v28q61 84 64 84zM236 144h36v48q-8 -3 -36 -48z" />
<glyph unicode="X" horiz-adv-x="1620" d="M40 1528h1448q40 -5 40 -40v-1448q-5 -40 -40 -40h-1448q-40 5 -40 40v1448q5 40 40 40zM40 1488v-1448h1448v1448h-1448zM1432 1448q25 0 28 -40q0 -11 -48 -52h48v-16h-80q0 22 56 64q4 7 4 16q0 6 -12 12q-24 0 -24 -24h-20v4q0 36 48 36zM260 1436h4q44 -8 44 -40 q0 -14 -16 -32v-4q20 0 20 -28q0 -48 -52 -48h-4q-52 6 -52 48v8h28q0 -27 16 -32h20q6 0 16 16v16q-5 16 -36 16v20q32 0 32 12v12q0 6 -12 12h-16q-13 0 -16 -28h-28q0 52 52 52zM548 1436q44 -8 44 -44v-4q0 -30 -56 -64l-8 -12h64v-24h-104v4q0 27 72 84q4 7 4 16v4 q0 6 -16 16q-28 0 -28 -36h-28v4q0 56 56 56zM656 1436q56 0 56 -72q0 -80 -60 -80h-4q-40 8 -40 40h28q2 -16 12 -16h4q32 0 32 44q-16 -16 -44 -16q-36 12 -36 52q0 42 52 48zM772 1436h4q44 -8 44 -40q0 -14 -16 -32v-4q20 0 20 -28q0 -48 -52 -48h-4q-52 6 -52 48v8h28 q0 -27 16 -32h20q6 0 16 16v16q-5 16 -36 16v20q32 0 32 12v12q0 6 -12 12h-16q-13 0 -16 -28h-28q0 52 52 52zM140 1432h24v-144h-28v92h-36v24q40 0 40 28zM372 1432h24v-144h-28v92h-36v24q40 0 40 28zM632 1384q0 -16 16 -24h16q6 0 16 16v20q0 6 -16 16h-16 q-16 -6 -16 -28zM440 1320h32v-32h-32v32zM1420 1312q36 0 36 -32l-12 -20q16 -6 16 -28q-12 -28 -36 -28h-4q-36 0 -36 36l12 20q-12 13 -12 20q0 32 36 32zM1404 1284v-12l20 -4q8 4 12 4v12q0 6 -12 12h-8q-6 0 -12 -12zM1404 1240v-8q0 -6 12 -12h12q6 0 12 12v8 q0 6 -12 12h-12q-6 0 -12 -12zM1420 1176q36 0 36 -32l-12 -20q16 -6 16 -28q-12 -28 -36 -28h-4q-36 0 -36 36l12 20q-12 13 -12 20q0 32 36 32zM1336 1172h16v-104h-20v68h-24v16q28 0 28 20zM1404 1148v-12l20 -4q8 4 12 4v12q0 6 -12 12h-8q-6 0 -12 -12zM1404 1104v-8 q0 -6 12 -12h12q6 0 12 12v8q0 6 -12 12h-12q-6 0 -12 -12zM248 1092h160l116 -196h4q5 13 120 192v4h152q-196 -282 -196 -300q5 -1 212 -316h-164q-1 13 -132 212q-127 -202 -140 -212h-148l212 320v8q-155 231 -196 288zM1420 1040q36 0 36 -32l-12 -20q16 -6 16 -28 q-12 -28 -36 -28h-4q-36 0 -36 36l12 20q-12 13 -12 20q0 32 36 32zM1336 1036h16v-104h-20v68h-24v16q28 0 28 20zM1404 1012v-12l20 -4q8 4 12 4v12q0 6 -12 12h-8q-6 0 -12 -12zM1404 968v-8q0 -6 12 -12h12q6 0 12 12v8q0 6 -12 12h-12q-6 0 -12 -12zM1032 932 q148 0 204 -160q8 -38 8 -60v-40h-320v-4q0 -90 80 -108q5 -4 28 -4h8q88 18 88 60h108q0 -42 -68 -108q-53 -44 -144 -44q-190 0 -224 216v24q0 169 180 224q34 4 52 4zM1420 904q36 0 36 -32l-12 -20q16 -6 16 -28q-12 -28 -36 -28h-4q-36 0 -36 36l12 20q-12 13 -12 20 q0 32 36 32zM1404 876v-12l20 -4q8 4 12 4v12q0 6 -12 12h-8q-6 0 -12 -12zM1404 832v-8q0 -6 12 -12h12q6 0 12 12v8q0 6 -12 12h-12q-6 0 -12 -12zM924 748h200q-23 88 -76 88q0 4 -24 4h-8q-92 -16 -92 -92zM108 232h80v-24h-60q0 -10 -4 -32q15 12 28 12q44 0 44 -56 q-11 -48 -48 -48h-12q-48 11 -48 44h32q0 -20 24 -20h8q16 7 16 28q0 22 -16 28h-8q-20 0 -20 -12h-28q0 13 12 80zM268 232h24v-88h20v-24h-20v-32h-28v32h-60v28q61 84 64 84zM228 144h36v48q-8 -3 -36 -48z" />
<glyph unicode="Y" d="M40 1528h1448q40 -5 40 -40v-1448q-5 -40 -40 -40h-1448q-40 5 -40 40v1448q5 40 40 40zM40 1488v-1448h1448v1448h-1448zM1432 1448q25 0 28 -40q0 -11 -48 -52h48v-16h-80q0 22 56 64q4 7 4 16q0 6 -12 12q-24 0 -24 -24h-20v4q0 36 48 36zM136 1436h12q44 -7 44 -44 q-7 -20 -20 -20q24 -19 24 -40q0 -48 -52 -48h-4q-43 0 -52 40v8q5 32 24 32v8q-20 0 -20 28q0 27 44 36zM252 1436h12q44 -7 44 -44q-7 -20 -20 -20q24 -19 24 -40q0 -48 -52 -48h-4q-43 0 -52 40v8q5 32 24 32v8q-20 0 -20 28q0 27 44 36zM424 1436q56 0 56 -72 q0 -80 -60 -80h-4q-40 8 -40 40h28q2 -16 12 -16h4q32 0 32 44q-16 -16 -44 -16q-36 12 -36 52q0 42 52 48zM536 1436h12q48 0 48 -76t-48 -76h-12q-48 0 -48 76t48 76zM764 1436h12q44 -7 44 -44q-7 -20 -20 -20q24 -19 24 -40q0 -48 -52 -48h-4q-43 0 -52 40v8q5 32 24 32 v8q-20 0 -20 28q0 27 44 36zM624 1432h80v-24h-60q0 -10 -4 -32q15 12 28 12q44 0 44 -56q-11 -48 -48 -48h-12q-48 11 -48 44h32q0 -20 24 -20h8q16 7 16 28q0 22 -16 28h-8q-20 0 -20 -12h-28q0 13 12 80zM852 1432h80v-24h-60q0 -10 -4 -32q15 12 28 12q44 0 44 -56 q-11 -48 -48 -48h-12q-48 11 -48 44h32q0 -20 24 -20h8q16 7 16 28q0 22 -16 28h-8q-20 0 -20 -12h-28q0 13 12 80zM120 1400v-12q4 -12 24 -12q20 3 20 12v12q0 6 -12 12h-20q-6 0 -12 -12zM236 1400v-12q4 -12 24 -12q20 3 20 12v12q0 6 -12 12h-20q-6 0 -12 -12z M400 1384q0 -16 16 -24h16q6 0 16 16v20q0 6 -16 16h-16q-16 -6 -16 -28zM516 1372v-24q0 -40 28 -40q24 0 24 40v24q0 40 -28 40q-24 0 -24 -40zM748 1400v-12q4 -12 24 -12q20 3 20 12v12q0 6 -12 12h-20q-6 0 -12 -12zM116 1340v-16q0 -6 16 -16h20q6 0 16 16v16 q-6 16 -28 16q-16 0 -24 -16zM232 1340v-16q0 -6 16 -16h20q6 0 16 16v16q-6 16 -28 16q-16 0 -24 -16zM744 1340v-16q0 -6 16 -16h20q6 0 16 16v16q-6 16 -28 16q-16 0 -24 -16zM328 1320h32v-32h-32v32zM1420 1312q36 0 36 -32l-12 -20q16 -6 16 -28q-12 -28 -36 -28h-4 q-36 0 -36 36l12 20q-12 13 -12 20q0 32 36 32zM1404 1284v-12l20 -4q8 4 12 4v12q0 6 -12 12h-8q-6 0 -12 -12zM1404 1240v-8q0 -6 12 -12h12q6 0 12 12v8q0 6 -12 12h-12q-6 0 -12 -12zM1420 1176q36 0 36 -32l-12 -20q16 -6 16 -28q-12 -28 -36 -28h-4q-36 0 -36 36 l12 20q-12 13 -12 20q0 32 36 32zM1336 1172h16v-104h-20v68h-24v16q28 0 28 20zM1404 1148v-12l20 -4q8 4 12 4v12q0 6 -12 12h-8q-6 0 -12 -12zM1404 1104v-8q0 -6 12 -12h12q6 0 12 12v8q0 6 -12 12h-12q-6 0 -12 -12zM460 1092h156l140 -244h4l140 244h152 q-228 -378 -228 -384v-232h-136v232q0 14 -228 384zM1428 1040q23 0 32 -44v-8q-5 -56 -40 -56q-22 0 -32 20v8h20q0 -12 8 -12h8q12 0 12 28q-13 -8 -20 -8q-32 0 -32 36t44 36zM1404 1000q6 -16 12 -16h8q6 0 12 12v16q0 6 -12 12h-8q-12 -4 -12 -24zM1432 904 q25 0 28 -40q0 -11 -48 -52h48v-16h-80q0 22 56 64q4 7 4 16q0 6 -12 12q-24 0 -24 -24h-20v4q0 36 48 36zM144 236h4q44 -8 44 -40q0 -14 -16 -32v-4q20 0 20 -28q0 -48 -52 -48h-4q-52 6 -52 48v8h28q0 -27 16 -32h20q6 0 16 16v16q-5 16 -36 16v20q32 0 32 12v12 q0 6 -12 12h-16q-13 0 -16 -28h-28q0 52 52 52zM256 236q56 0 56 -72q0 -80 -60 -80h-4q-40 8 -40 40h28q2 -16 12 -16h4q32 0 32 44q-16 -16 -44 -16q-36 12 -36 52q0 42 52 48zM232 184q0 -16 16 -24h16q6 0 16 16v20q0 6 -16 16h-16q-16 -6 -16 -28z" />
<glyph unicode="Z" d="M40 1528h1448q40 -5 40 -40v-1448q-5 -40 -40 -40h-1448q-40 5 -40 40v1448q5 40 40 40zM40 1488v-1448h1448v1448h-1448zM1432 1448q25 0 28 -40q0 -11 -48 -52h48v-16h-80q0 22 56 64q4 7 4 16q0 6 -12 12q-24 0 -24 -24h-20v4q0 36 48 36zM148 1436h4q40 -5 40 -40 h-20q-14 16 -28 16h-8q-12 0 -20 -36v-4q16 16 44 16q36 -10 36 -56q0 -42 -52 -48q-56 0 -56 76t60 76zM428 1436h4q44 -8 44 -40q0 -14 -16 -32v-4q20 0 20 -28q0 -48 -52 -48h-4q-52 6 -52 48v8h28q0 -27 16 -32h20q6 0 16 16v16q-5 16 -36 16v20q32 0 32 12v12 q0 6 -12 12h-16q-13 0 -16 -28h-28q0 52 52 52zM536 1436h12q44 -7 44 -44q-7 -20 -20 -20q24 -19 24 -40q0 -48 -52 -48h-4q-43 0 -52 40v8q5 32 24 32v8q-20 0 -20 28q0 27 44 36zM224 1432h80v-24h-60q0 -10 -4 -32q15 12 28 12q44 0 44 -56q-11 -48 -48 -48h-12 q-48 11 -48 44h32q0 -20 24 -20h8q16 7 16 28q0 22 -16 28h-8q-20 0 -20 -12h-28q0 13 12 80zM520 1400v-12q4 -12 24 -12q20 3 20 12v12q0 6 -12 12h-20q-6 0 -12 -12zM120 1348v-24q0 -6 16 -16h16q16 7 16 28q0 22 -16 28h-16q-6 0 -16 -16zM516 1340v-16q0 -6 16 -16h20 q6 0 16 16v16q-6 16 -28 16q-16 0 -24 -16zM328 1320h32v-32h-32v32zM1420 1312q36 0 36 -32l-12 -20q16 -6 16 -28q-12 -28 -36 -28h-4q-36 0 -36 36l12 20q-12 13 -12 20q0 32 36 32zM1404 1284v-12l20 -4q8 4 12 4v12q0 6 -12 12h-8q-6 0 -12 -12zM1404 1240v-8 q0 -6 12 -12h12q6 0 12 12v8q0 6 -12 12h-12q-6 0 -12 -12zM1420 1176q36 0 36 -32l-12 -20q16 -6 16 -28q-12 -28 -36 -28h-4q-36 0 -36 36l12 20q-12 13 -12 20q0 32 36 32zM1336 1172h16v-104h-20v68h-24v16q28 0 28 20zM1404 1148v-12l20 -4q8 4 12 4v12q0 6 -12 12h-8 q-6 0 -12 -12zM1404 1104v-8q0 -6 12 -12h12q6 0 12 12v8q0 6 -12 12h-12q-6 0 -12 -12zM284 1092h484v-104l-332 -400h340v-112h-520v104l328 396v4h-300v112zM1432 1040q25 0 28 -40q0 -11 -48 -52h48v-16h-80q0 22 56 64q4 7 4 16q0 6 -12 12q-24 0 -24 -24h-20v4 q0 36 48 36zM1060 932q113 0 148 -88q12 -55 12 -112v-256h-124v260q0 100 -72 100h-4q-96 0 -96 -112v-248h-124v444h116v-60h8q45 72 136 72zM144 236h4q44 -8 44 -40q0 -14 -16 -32v-4q20 0 20 -28q0 -48 -52 -48h-4q-52 6 -52 48v8h28q0 -27 16 -32h20q6 0 16 16v16 q-5 16 -36 16v20q32 0 32 12v12q0 6 -12 12h-16q-13 0 -16 -28h-28q0 52 52 52zM252 236h12q48 0 48 -76t-48 -76h-12q-48 0 -48 76t48 76zM232 172v-24q0 -40 28 -40q24 0 24 40v24q0 40 -28 40q-24 0 -24 -40z" />
<glyph unicode="[" horiz-adv-x="1620" d="M40 1528h1448q40 -5 40 -40v-1448q-5 -40 -40 -40h-1448q-40 5 -40 40v1448q5 40 40 40zM40 1488v-1448h1448v1448h-1448zM1432 1448q25 0 28 -40q0 -11 -48 -52h48v-16h-80q0 22 56 64q4 7 4 16q0 6 -12 12q-24 0 -24 -24h-20v4q0 36 48 36zM380 1436q44 -8 44 -44v-4 q0 -30 -56 -64l-8 -12h64v-24h-104v4q0 27 72 84q4 7 4 16v4q0 6 -16 16q-28 0 -28 -36h-28v4q0 56 56 56zM140 1432h24v-144h-28v92h-36v24q40 0 40 28zM256 1432h24v-144h-28v92h-36v24q40 0 40 28zM552 1432h24v-88h20v-24h-20v-32h-28v32h-60v28q61 84 64 84zM656 1432 h24v-144h-28v92h-36v24q40 0 40 28zM768 1432h24v-144h-28v92h-36v24q40 0 40 28zM512 1344h36v48q-8 -3 -36 -48zM440 1320h32v-32h-32v32zM1420 1312q36 0 36 -32l-12 -20q16 -6 16 -28q-12 -28 -36 -28h-4q-36 0 -36 36l12 20q-12 13 -12 20q0 32 36 32zM1404 1284v-12 l20 -4q8 4 12 4v12q0 6 -12 12h-8q-6 0 -12 -12zM1404 1240v-8q0 -6 12 -12h12q6 0 12 12v8q0 6 -12 12h-12q-6 0 -12 -12zM1420 1176q36 0 36 -32l-12 -20q16 -6 16 -28q-12 -28 -36 -28h-4q-36 0 -36 36l12 20q-12 13 -12 20q0 32 36 32zM1336 1172h16v-104h-20v68h-24v16 q28 0 28 20zM1404 1148v-12l20 -4q8 4 12 4v12q0 6 -12 12h-8q-6 0 -12 -12zM1404 1104v-8q0 -6 12 -12h12q6 0 12 12v8q0 6 -12 12h-12q-6 0 -12 -12zM524 1104q191 0 256 -176q8 -34 8 -44h-132q0 74 -108 104q-15 4 -32 4q-114 0 -152 -136q-8 -32 -8 -76 q0 -146 104 -192q32 -12 68 -12q81 0 120 84q14 52 20 52h124q0 -135 -136 -216q-64 -32 -132 -32q-227 0 -296 236q-8 50 -8 84q0 235 216 308q35 8 88 12zM1152 1092h124v-616h-116v56q-52 -68 -140 -68q-137 0 -188 152q-12 53 -12 84q0 164 136 224q47 8 60 8 q83 0 136 -64v224zM1420 1040q36 0 36 -32l-12 -20q16 -6 16 -28q-12 -28 -36 -28h-4q-36 0 -36 36l12 20q-12 13 -12 20q0 32 36 32zM1336 1036h16v-104h-20v68h-24v16q28 0 28 20zM1404 1012v-12l20 -4q8 4 12 4v12q0 6 -12 12h-8q-6 0 -12 -12zM1404 968v-8q0 -6 12 -12 h12q6 0 12 12v8q0 6 -12 12h-12q-6 0 -12 -12zM1432 904q25 0 28 -40q0 -11 -48 -52h48v-16h-80q0 22 56 64q4 7 4 16q0 6 -12 12q-24 0 -24 -24h-20v4q0 36 48 36zM944 696q0 -108 80 -136q16 -4 32 -4q67 0 92 76q8 30 8 56v20q-12 128 -84 128q0 4 -24 4 q-100 -13 -100 -108q-4 0 -4 -36zM252 236h12q44 -7 44 -44q-7 -20 -20 -20q24 -19 24 -40q0 -48 -52 -48h-4q-43 0 -52 40v8q5 32 24 32v8q-20 0 -20 28q0 27 44 36zM152 232h24v-88h20v-24h-20v-32h-28v32h-60v28q61 84 64 84zM236 200v-12q4 -12 24 -12q20 3 20 12v12 q0 6 -12 12h-20q-6 0 -12 -12zM112 144h36v48q-8 -3 -36 -48zM232 140v-16q0 -6 16 -16h20q6 0 16 16v16q-6 16 -28 16q-16 0 -24 -16z" />
<glyph unicode="\" horiz-adv-x="1620" d="M40 1528h1448q40 -5 40 -40v-1448q-5 -40 -40 -40h-1448q-40 5 -40 40v1448q5 40 40 40zM40 1488v-1448h1448v1448h-1448zM1432 1448q25 0 28 -40q0 -11 -48 -52h48v-16h-80q0 22 56 64q4 7 4 16q0 6 -12 12q-24 0 -24 -24h-20v4q0 36 48 36zM536 1436h12q44 -7 44 -44 q-7 -20 -20 -20q24 -19 24 -40q0 -48 -52 -48h-4q-43 0 -52 40v8q5 32 24 32v8q-20 0 -20 28q0 27 44 36zM764 1436h12q44 -7 44 -44q-7 -20 -20 -20q24 -19 24 -40q0 -48 -52 -48h-4q-43 0 -52 40v8q5 32 24 32v8q-20 0 -20 28q0 27 44 36zM140 1432h24v-144h-28v92h-36v24 q40 0 40 28zM256 1432h24v-144h-28v92h-36v24q40 0 40 28zM384 1432h24v-88h20v-24h-20v-32h-28v32h-60v28q61 84 64 84zM656 1432h24v-144h-28v92h-36v24q40 0 40 28zM520 1400v-12q4 -12 24 -12q20 3 20 12v12q0 6 -12 12h-20q-6 0 -12 -12zM748 1400v-12q4 -12 24 -12 q20 3 20 12v12q0 6 -12 12h-20q-6 0 -12 -12zM344 1344h36v48q-8 -3 -36 -48zM516 1340v-16q0 -6 16 -16h20q6 0 16 16v16q-6 16 -28 16q-16 0 -24 -16zM744 1340v-16q0 -6 16 -16h20q6 0 16 16v16q-6 16 -28 16q-16 0 -24 -16zM440 1320h32v-32h-32v32zM1420 1312 q36 0 36 -32l-12 -20q16 -6 16 -28q-12 -28 -36 -28h-4q-36 0 -36 36l12 20q-12 13 -12 20q0 32 36 32zM1404 1284v-12l20 -4q8 4 12 4v12q0 6 -12 12h-8q-6 0 -12 -12zM1404 1240v-8q0 -6 12 -12h12q6 0 12 12v8q0 6 -12 12h-12q-6 0 -12 -12zM1420 1176q36 0 36 -32 l-12 -20q16 -6 16 -28q-12 -28 -36 -28h-4q-36 0 -36 36l12 20q-12 13 -12 20q0 32 36 32zM1336 1172h16v-104h-20v68h-24v16q28 0 28 20zM1404 1148v-12l20 -4q8 4 12 4v12q0 6 -12 12h-8q-6 0 -12 -12zM1404 1104v-8q0 -6 12 -12h12q6 0 12 12v8q0 6 -12 12h-12 q-6 0 -12 -12zM444 1092h136v-616h-136v616zM1420 1040q36 0 36 -32l-12 -20q16 -6 16 -28q-12 -28 -36 -28h-4q-36 0 -36 36l12 20q-12 13 -12 20q0 32 36 32zM1336 1036h16v-104h-20v68h-24v16q28 0 28 20zM1404 1012v-12l20 -4q8 4 12 4v12q0 6 -12 12h-8q-6 0 -12 -12z M1404 968v-8q0 -6 12 -12h12q6 0 12 12v8q0 6 -12 12h-12q-6 0 -12 -12zM912 932q113 0 148 -88q12 -55 12 -112v-256h-124v260q0 100 -72 100h-4q-96 0 -96 -112v-248h-124v444h116v-60h8q45 72 136 72zM1420 904q36 -3 36 -28q-8 -25 -8 -28q6 0 12 -12v-4q0 -36 -36 -36 q-40 4 -40 36h20q3 -20 12 -20h12q6 0 12 12v8q0 12 -24 12v16l20 4v12q0 6 -12 12h-8q-11 0 -12 -20h-20q5 36 36 36zM256 236q56 0 56 -72q0 -80 -60 -80h-4q-40 8 -40 40h28q2 -16 12 -16h4q32 0 32 44q-16 -16 -44 -16q-36 12 -36 52q0 42 52 48zM152 232h24v-88h20v-24 h-20v-32h-28v32h-60v28q61 84 64 84zM232 184q0 -16 16 -24h16q6 0 16 16v20q0 6 -16 16h-16q-16 -6 -16 -28zM112 144h36v48q-8 -3 -36 -48z" />
<glyph unicode="]" horiz-adv-x="1620" d="M40 1528h1448q40 -5 40 -40v-1448q-5 -40 -40 -40h-1448q-40 5 -40 40v1448q5 40 40 40zM40 1488v-1448h1448v1448h-1448zM1432 1448q25 0 28 -40q0 -11 -48 -52h48v-16h-80q0 22 56 64q4 7 4 16q0 6 -12 12q-24 0 -24 -24h-20v4q0 36 48 36zM368 1436h12q44 -7 44 -44 q-7 -20 -20 -20q24 -19 24 -40q0 -48 -52 -48h-4q-43 0 -52 40v8q5 32 24 32v8q-20 0 -20 28q0 27 44 36zM776 1436h12q48 0 48 -76t-48 -76h-12q-48 0 -48 76t48 76zM140 1432h24v-144h-28v92h-36v24q40 0 40 28zM256 1432h24v-144h-28v92h-36v24q40 0 40 28zM492 1432h100 v-24q-48 -53 -48 -120h-28q0 50 44 116h-68v28zM664 1432h24v-144h-28v92h-36v24q40 0 40 28zM352 1400v-12q4 -12 24 -12q20 3 20 12v12q0 6 -12 12h-20q-6 0 -12 -12zM756 1372v-24q0 -40 28 -40q24 0 24 40v24q0 40 -28 40q-24 0 -24 -40zM348 1340v-16q0 -6 16 -16h20 q6 0 16 16v16q-6 16 -28 16q-16 0 -24 -16zM440 1320h32v-32h-32v32zM1420 1312q36 0 36 -32l-12 -20q16 -6 16 -28q-12 -28 -36 -28h-4q-36 0 -36 36l12 20q-12 13 -12 20q0 32 36 32zM1404 1284v-12l20 -4q8 4 12 4v12q0 6 -12 12h-8q-6 0 -12 -12zM1404 1240v-8 q0 -6 12 -12h12q6 0 12 12v8q0 6 -12 12h-12q-6 0 -12 -12zM1420 1176q36 0 36 -32l-12 -20q16 -6 16 -28q-12 -28 -36 -28h-4q-36 0 -36 36l12 20q-12 13 -12 20q0 32 36 32zM1336 1172h16v-104h-20v68h-24v16q28 0 28 20zM1404 1148v-12l20 -4q8 4 12 4v12q0 6 -12 12h-8 q-6 0 -12 -12zM1404 1104v-8q0 -6 12 -12h12q6 0 12 12v8q0 6 -12 12h-12q-6 0 -12 -12zM512 1104q180 0 236 -136l8 -60h-132q0 92 -124 92q-81 0 -92 -64v-12q0 -52 168 -80q200 -43 200 -188q0 -121 -136 -172q-52 -20 -124 -20q-163 0 -236 116q-24 44 -24 100h132 q0 -78 80 -104q30 -8 56 -8q120 9 120 68v8q0 73 -200 104q-119 37 -152 96q-16 43 -16 80q0 128 168 172q43 8 68 8zM1420 1040q36 0 36 -32l-12 -20q16 -6 16 -28q-12 -28 -36 -28h-4q-36 0 -36 36l12 20q-12 13 -12 20q0 32 36 32zM1336 1036h16v-104h-20v68h-24v16 q28 0 28 20zM1404 1012v-12l20 -4q8 4 12 4v12q0 6 -12 12h-8q-6 0 -12 -12zM1404 968v-8q0 -6 12 -12h12q6 0 12 12v8q0 6 -12 12h-12q-6 0 -12 -12zM1060 932q113 0 148 -88q12 -55 12 -112v-256h-124v260q0 100 -72 100h-4q-96 0 -96 -112v-248h-124v444h116v-60h8 q45 72 136 72zM1420 900h16v-64h12v-16h-12v-24h-20v24h-44v16q19 31 48 64zM1412 872q0 -8 -20 -32v-4h24v36h-4zM252 236h12q48 0 48 -76t-48 -76h-12q-48 0 -48 76t48 76zM108 232h80v-24h-60q0 -10 -4 -32q15 12 28 12q44 0 44 -56q-11 -48 -48 -48h-12q-48 11 -48 44 h32q0 -20 24 -20h8q16 7 16 28q0 22 -16 28h-8q-20 0 -20 -12h-28q0 13 12 80zM232 172v-24q0 -40 28 -40q24 0 24 40v24q0 40 -28 40q-24 0 -24 -40z" />
<glyph unicode="^" d="M40 1528h1448q40 -5 40 -40v-1448q-5 -40 -40 -40h-1448q-40 5 -40 40v1448q5 40 40 40zM40 1488v-1448h1448v1448h-1448zM1432 1448q25 0 28 -40q0 -11 -48 -52h48v-16h-80q0 22 56 64q4 7 4 16q0 6 -12 12q-24 0 -24 -24h-20v4q0 36 48 36zM264 1436q44 -8 44 -44v-4 q0 -30 -56 -64l-8 -12h64v-24h-104v4q0 27 72 84q4 7 4 16v4q0 6 -16 16q-28 0 -28 -36h-28v4q0 56 56 56zM672 1436h4q40 -5 40 -40h-20q-14 16 -28 16h-8q-12 0 -20 -36v-4q16 16 44 16q36 -10 36 -56q0 -42 -52 -48q-56 0 -56 76t60 76zM776 1436h12q48 0 48 -76t-48 -76 h-12q-48 0 -48 76t48 76zM140 1432h24v-144h-28v92h-36v24q40 0 40 28zM372 1432h24v-144h-28v92h-36v24q40 0 40 28zM492 1432h100v-24q-48 -53 -48 -120h-28q0 50 44 116h-68v28zM756 1372v-24q0 -40 28 -40q24 0 24 40v24q0 40 -28 40q-24 0 -24 -40zM644 1348v-24 q0 -6 16 -16h16q16 7 16 28q0 22 -16 28h-16q-6 0 -16 -16zM440 1320h32v-32h-32v32zM1420 1312q36 0 36 -32l-12 -20q16 -6 16 -28q-12 -28 -36 -28h-4q-36 0 -36 36l12 20q-12 13 -12 20q0 32 36 32zM1404 1284v-12l20 -4q8 4 12 4v12q0 6 -12 12h-8q-6 0 -12 -12z M1404 1240v-8q0 -6 12 -12h12q6 0 12 12v8q0 6 -12 12h-12q-6 0 -12 -12zM1420 1176q36 0 36 -32l-12 -20q16 -6 16 -28q-12 -28 -36 -28h-4q-36 0 -36 36l12 20q-12 13 -12 20q0 32 36 32zM1336 1172h16v-104h-20v68h-24v16q28 0 28 20zM1404 1148v-12l20 -4q8 4 12 4v12 q0 6 -12 12h-8q-6 0 -12 -12zM1404 1104v-8q0 -6 12 -12h12q6 0 12 12v8q0 6 -12 12h-12q-6 0 -12 -12zM504 1104q180 0 236 -136l8 -60h-132q0 92 -124 92q-81 0 -92 -64v-12q0 -52 168 -80q200 -43 200 -188q0 -121 -136 -172q-52 -20 -124 -20q-163 0 -236 116 q-24 44 -24 100h132q0 -78 80 -104q30 -8 56 -8q120 9 120 68v8q0 73 -200 104q-119 37 -152 96q-16 43 -16 80q0 128 168 172q43 8 68 8zM796 1092h124v-224q58 64 144 64q143 0 180 -188q4 -28 4 -48q0 -169 -136 -224q-30 -8 -56 -8q-92 0 -144 68v-56h-116v616z M1420 1040q36 0 36 -32l-12 -20q16 -6 16 -28q-12 -28 -36 -28h-4q-36 0 -36 36l12 20q-12 13 -12 20q0 32 36 32zM1336 1036h16v-104h-20v68h-24v16q28 0 28 20zM1404 1012v-12l20 -4q8 4 12 4v12q0 6 -12 12h-8q-6 0 -12 -12zM1404 968v-8q0 -6 12 -12h12q6 0 12 12v8 q0 6 -12 12h-12q-6 0 -12 -12zM1396 900h60v-16h-44l-4 -24q13 8 20 8q32 0 32 -36q-5 -36 -36 -36h-4q-36 6 -36 32h16q14 -16 28 -16q12 4 12 24q-6 16 -12 16h-12l-12 -8h-16q8 48 8 56zM916 704v-4q0 -144 108 -144q65 0 92 80q8 30 8 56v12q-13 136 -96 136h-12 q-64 0 -92 -80q-8 -30 -8 -56zM108 232h80v-24h-60q0 -10 -4 -32q15 12 28 12q44 0 44 -56q-11 -48 -48 -48h-12q-48 11 -48 44h32q0 -20 24 -20h8q16 7 16 28q0 22 -16 28h-8q-20 0 -20 -12h-28q0 13 12 80zM256 232h24v-144h-28v92h-36v24q40 0 40 28z" />
<glyph unicode="_" d="M40 1528h1448q40 -5 40 -40v-1448q-5 -40 -40 -40h-1448q-40 5 -40 40v1448q5 40 40 40zM40 1488v-1448h1448v1448h-1448zM1432 1448q25 0 28 -40q0 -11 -48 -52h48v-16h-80q0 22 56 64q4 7 4 16q0 6 -12 12q-24 0 -24 -24h-20v4q0 36 48 36zM264 1436q44 -8 44 -44v-4 q0 -30 -56 -64l-8 -12h64v-24h-104v4q0 27 72 84q4 7 4 16v4q0 6 -16 16q-28 0 -28 -36h-28v4q0 56 56 56zM560 1436h4q40 -5 40 -40h-20q-14 16 -28 16h-8q-12 0 -20 -36v-4q16 16 44 16q36 -10 36 -56q0 -42 -52 -48q-56 0 -56 76t60 76zM660 1436h12q48 0 48 -76t-48 -76 h-12q-48 0 -48 76t48 76zM140 1432h24v-144h-28v92h-36v24q40 0 40 28zM324 1432h100v-24q-48 -53 -48 -120h-28q0 50 44 116h-68v28zM640 1372v-24q0 -40 28 -40q24 0 24 40v24q0 40 -28 40q-24 0 -24 -40zM532 1348v-24q0 -6 16 -16h16q16 7 16 28q0 22 -16 28h-16 q-6 0 -16 -16zM452 1320h32v-32h-32v32zM1420 1312q36 0 36 -32l-12 -20q16 -6 16 -28q-12 -28 -36 -28h-4q-36 0 -36 36l12 20q-12 13 -12 20q0 32 36 32zM1404 1284v-12l20 -4q8 4 12 4v12q0 6 -12 12h-8q-6 0 -12 -12zM1404 1240v-8q0 -6 12 -12h12q6 0 12 12v8 q0 6 -12 12h-12q-6 0 -12 -12zM1420 1176q36 0 36 -32l-12 -20q16 -6 16 -28q-12 -28 -36 -28h-4q-36 0 -36 36l12 20q-12 13 -12 20q0 32 36 32zM1336 1172h16v-104h-20v68h-24v16q28 0 28 20zM1404 1148v-12l20 -4q8 4 12 4v12q0 6 -12 12h-8q-6 0 -12 -12zM1404 1104v-8 q0 -6 12 -12h12q6 0 12 12v8q0 6 -12 12h-12q-6 0 -12 -12zM272 1092h504v-112h-184v-504h-136v504h-184v112zM1420 1040q36 0 36 -32l-12 -20q16 -6 16 -28q-12 -28 -36 -28h-4q-36 0 -36 36l12 20q-12 13 -12 20q0 32 36 32zM1336 1036h16v-104h-20v68h-24v16q28 0 28 20z M1404 1012v-12l20 -4q8 4 12 4v12q0 6 -12 12h-8q-6 0 -12 -12zM1404 968v-8q0 -6 12 -12h12q6 0 12 12v8q0 6 -12 12h-12q-6 0 -12 -12zM1008 932q148 0 204 -160q8 -38 8 -60v-40h-320v-4q0 -90 80 -108q5 -4 28 -4h8q88 18 88 60h108q0 -42 -68 -108q-53 -44 -144 -44 q-190 0 -224 216v24q0 169 180 224q34 4 52 4zM1424 904q36 -6 36 -32h-16l-16 16h-8q-10 0 -16 -32h4q13 8 24 8q28 -8 28 -32q-5 -36 -36 -36q-40 0 -40 48v4q0 47 36 56h4zM1404 832q8 -18 16 -20h8q6 0 12 12v12q0 6 -12 12q-17 0 -24 -16zM900 748h200q-23 88 -76 88 q0 4 -24 4h-8q-92 -16 -92 -92zM264 236q44 -8 44 -44v-4q0 -30 -56 -64l-8 -12h64v-24h-104v4q0 27 72 84q4 7 4 16v4q0 6 -16 16q-28 0 -28 -36h-28v4q0 56 56 56zM108 232h80v-24h-60q0 -10 -4 -32q15 12 28 12q44 0 44 -56q-11 -48 -48 -48h-12q-48 11 -48 44h32 q0 -20 24 -20h8q16 7 16 28q0 22 -16 28h-8q-20 0 -20 -12h-28q0 13 12 80z" />
<glyph unicode="`" horiz-adv-x="1623" d="M40 1528h1448q40 -5 40 -40v-1448q-5 -40 -40 -40h-1448q-40 5 -40 40v1448q5 40 40 40zM40 1488v-1448h1448v1448h-1448zM1432 1448q25 0 28 -40q0 -11 -48 -52h48v-16h-80q0 22 56 64q4 7 4 16q0 6 -12 12q-24 0 -24 -24h-20v4q0 36 48 36zM260 1436h4q44 -8 44 -40 q0 -14 -16 -32v-4q20 0 20 -28q0 -48 -52 -48h-4q-52 6 -52 48v8h28q0 -27 16 -32h20q6 0 16 16v16q-5 16 -36 16v20q32 0 32 12v12q0 6 -12 12h-16q-13 0 -16 -28h-28q0 52 52 52zM380 1436q44 -8 44 -44v-4q0 -30 -56 -64l-8 -12h64v-24h-104v4q0 27 72 84q4 7 4 16v4 q0 6 -16 16q-28 0 -28 -36h-28v4q0 56 56 56zM540 1436q56 0 56 -72q0 -80 -60 -80h-4q-40 8 -40 40h28q2 -16 12 -16h4q32 0 32 44q-16 -16 -44 -16q-36 12 -36 52q0 42 52 48zM652 1436h12q48 0 48 -76t-48 -76h-12q-48 0 -48 76t48 76zM1228 1436q56 0 56 -72 q0 -80 -60 -80h-4q-40 8 -40 40h28q2 -16 12 -16h4q32 0 32 44q-16 -16 -44 -16q-36 12 -36 52q0 42 52 48zM140 1432h24v-144h-28v92h-36v24q40 0 40 28zM736 1432h80v-24h-60q0 -10 -4 -32q15 12 28 12q44 0 44 -56q-11 -48 -48 -48h-12q-48 11 -48 44h32q0 -20 24 -20h8 q16 7 16 28q0 22 -16 28h-8q-20 0 -20 -12h-28q0 13 12 80zM896 1432h24v-88h20v-24h-20v-32h-28v32h-60v28q61 84 64 84zM968 1432h80v-24h-60q0 -10 -4 -32q15 12 28 12q44 0 44 -56q-11 -48 -48 -48h-12q-48 11 -48 44h32q0 -20 24 -20h8q16 7 16 28q0 22 -16 28h-8 q-20 0 -20 -12h-28q0 13 12 80zM1112 1432h24v-144h-28v92h-36v24q40 0 40 28zM516 1384q0 -16 16 -24h16q6 0 16 16v20q0 6 -16 16h-16q-16 -6 -16 -28zM632 1372v-24q0 -40 28 -40q24 0 24 40v24q0 40 -28 40q-24 0 -24 -40zM1204 1384q0 -16 16 -24h16q6 0 16 16v20 q0 6 -16 16h-16q-16 -6 -16 -28zM856 1344h36v48q-8 -3 -36 -48zM440 1320h32v-32h-32v32zM1420 1312q36 0 36 -32l-12 -20q16 -6 16 -28q-12 -28 -36 -28h-4q-36 0 -36 36l12 20q-12 13 -12 20q0 32 36 32zM1404 1284v-12l20 -4q8 4 12 4v12q0 6 -12 12h-8q-6 0 -12 -12z M1404 1240v-8q0 -6 12 -12h12q6 0 12 12v8q0 6 -12 12h-12q-6 0 -12 -12zM1420 1176q36 0 36 -32l-12 -20q16 -6 16 -28q-12 -28 -36 -28h-4q-36 0 -36 36l12 20q-12 13 -12 20q0 32 36 32zM1336 1172h16v-104h-20v68h-24v16q28 0 28 20zM1404 1148v-12l20 -4q8 4 12 4v12 q0 6 -12 12h-8q-6 0 -12 -12zM1404 1104v-8q0 -6 12 -12h12q6 0 12 12v8q0 6 -12 12h-12q-6 0 -12 -12zM556 1104q191 0 256 -176q8 -34 8 -44h-132q0 74 -108 104q-15 4 -32 4q-114 0 -152 -136q-8 -32 -8 -76q0 -146 104 -192q32 -12 68 -12q81 0 120 84q14 52 20 52h124 q0 -135 -136 -216q-64 -32 -132 -32q-227 0 -296 236q-8 50 -8 84q0 235 216 308q35 8 88 12zM1420 1040q36 0 36 -32l-12 -20q16 -6 16 -28q-12 -28 -36 -28h-4q-36 0 -36 36l12 20q-12 13 -12 20q0 32 36 32zM1336 1036h16v-104h-20v68h-24v16q28 0 28 20zM1404 1012v-12 l20 -4q8 4 12 4v12q0 6 -12 12h-8q-6 0 -12 -12zM1404 968v-8q0 -6 12 -12h12q6 0 12 12v8q0 6 -12 12h-12q-6 0 -12 -12zM1052 932q163 0 196 -116l4 -24h-112l-24 40q-21 20 -68 20q-64 0 -64 -40v-4q0 -46 172 -72q108 -35 108 -120q0 -101 -112 -140q-46 -8 -92 -12 q-173 0 -204 124q-4 5 -4 28v4h116q0 -76 96 -76q76 10 76 52v16q0 33 -192 72q-88 36 -88 108q0 89 92 124q43 12 100 16zM1420 904q36 0 36 -32l-12 -20q16 -6 16 -28q-12 -28 -36 -28h-4q-36 0 -36 36l12 20q-12 13 -12 20q0 32 36 32zM1404 876v-12l20 -4q8 4 12 4v12 q0 6 -12 12h-8q-6 0 -12 -12zM1404 832v-8q0 -6 12 -12h12q6 0 12 12v8q0 6 -12 12h-12q-6 0 -12 -12zM1420 764h16v-104h-20v68h-24v16q28 0 28 20zM108 232h80v-24h-60q0 -10 -4 -32q15 12 28 12q44 0 44 -56q-11 -48 -48 -48h-12q-48 11 -48 44h32q0 -20 24 -20h8 q16 7 16 28q0 22 -16 28h-8q-20 0 -20 -12h-28q0 13 12 80zM224 232h80v-24h-60q0 -10 -4 -32q15 12 28 12q44 0 44 -56q-11 -48 -48 -48h-12q-48 11 -48 44h32q0 -20 24 -20h8q16 7 16 28q0 22 -16 28h-8q-20 0 -20 -12h-28q0 13 12 80z" />
<glyph unicode="a" horiz-adv-x="695" d="M460 996h14q92 0 111 -223v-418l42 -56h-14q-32 0 -111 125q-42 0 -42 42q-183 -84 -251 -84q-27 14 -42 14l-14 -27v-14q0 -42 56 -42v-14h-28q-152 0 -181 223v14q74 167 418 167l28 42v55q-23 56 -98 56h-55q-57 0 -182 -69h-13q-20 0 -42 41v70q0 20 42 42 q0 -15 13 -42l98 14h195q31 0 56 -14q24 14 56 14v14zM139 522q28 -45 28 -70h126q153 0 153 167q-14 27 -14 42q-275 -35 -293 -139z" />
<glyph unicode="b" horiz-adv-x="807" d="M168 1379q-76 -73 -92 -138l16 -30q91 -46 91 -122v-199q17 0 46 -15q82 91 199 91q198 0 198 -122q16 0 16 16q19 0 76 -92v-15h-46v-77q0 -30 31 -30l30 15l16 -31v-30l-107 -15v-31h91v-31q0 -97 -137 -137l-15 30v16l-184 -77h-15q-174 107 -214 107v-46 q-70 -48 -122 -137h-46q31 50 31 92v687l15 153q-15 0 -15 15h15q0 35 -15 61q21 107 61 107v-15l30 15h15zM550 661q0 198 -138 229q-229 -31 -229 -214v-30q0 -137 199 -214q137 0 168 168v61z" />
<glyph unicode="c" horiz-adv-x="692" d="M342 1024h57q239 -42 239 -211q-46 -28 -85 -28q-113 112 -182 112h-15q-182 0 -182 -210v-29q0 -154 211 -182h28q14 0 168 56h14q21 0 43 -42q-73 -169 -169 -169q98 78 98 127q-55 -29 -154 -29h-71q-116 15 -196 15q0 -58 140 -113v-14h-42q-187 0 -239 337 q0 311 253 366h14v-14q-56 0 -56 -28v-14h14l28 14l28 -14q120 28 141 28v14l-85 14v14z" />
<glyph unicode="d" horiz-adv-x="798" d="M611 1394h15l31 -15v15q40 0 61 -107q-15 -26 -15 -61h15q0 -15 -15 -15l15 -153v-687q0 -42 31 -92h-46q-52 89 -122 137v46q-40 0 -214 -107h-16l-183 77v-16l-15 -30q-138 40 -138 137v31h92v31l-107 15v30l15 31l31 -15q30 0 30 30v77h-45v15q57 92 76 92 q0 -16 15 -16q0 122 199 122q116 0 198 -91q30 15 46 15v199q0 76 92 122l15 30q-15 65 -91 138zM199 600q30 -168 168 -168q198 77 198 214v30q0 183 -229 214q-137 -31 -137 -229v-61z" />
<glyph unicode="e" horiz-adv-x="714" d="M342 1023h58q256 0 256 -328q-25 -14 -57 -14h-199q-229 0 -229 -43q0 -137 214 -171h29q15 0 171 57h14q21 0 43 -43q-74 -171 -171 -171q100 78 100 128q-56 -29 -157 -29h-72q-118 15 -199 15q0 -59 142 -114v-15h-42q-191 0 -243 343q0 315 257 371h14v-15 q-57 0 -57 -28v-14h14l29 14l28 -14q122 28 143 28v14l-86 15v14zM200 766l28 -14h243l43 28q-39 115 -143 115h-29q-142 -20 -142 -129z" />
<glyph unicode="f" horiz-adv-x="586" d="M471 1386q184 -35 184 -92v-15l-61 -77q-16 15 -200 31q-92 -36 -92 -62q15 0 15 -15h-15l15 -31v-30q0 -16 -15 -16l15 -30v-138h215q-40 -76 -61 -77h-154v-353q0 -77 -76 -107l46 -77h-215v15q77 0 77 138v384h-92l-77 15v16q0 34 169 46v15q0 55 -16 138 q49 184 92 184q16 -30 16 -46h15q74 74 292 107q0 46 -139 46v16q35 0 62 15z" />
<glyph unicode="g" horiz-adv-x="871" d="M419 1023h43q228 -53 228 -157v-100q0 -195 -314 -285q-211 0 -300 257q-14 23 -14 71q0 37 57 128q19 -14 72 -14l14 86h43v-15l-43 -57v-14h14q46 23 129 43l214 -57q-47 100 -143 100v14zM790 966l14 -29v-42q0 -21 -43 -43h-14q-28 0 -28 28v15q0 19 71 71zM248 723 v-28q0 -129 114 -129h43q87 0 157 100v72q-20 142 -143 142h-43q-128 0 -128 -157zM91 509h14q0 -14 -14 -14q0 -89 71 -128l100 14q46 -29 71 -29q180 15 214 15q164 0 229 -143q0 -160 -243 -186q-25 -14 -57 -14h-186q-28 0 -28 29h143q314 28 314 114q0 119 -172 142 q-177 -28 -285 -28q-214 68 -214 114v71q0 21 43 43zM62 224h14v-14q0 -33 -14 -58l57 -99h-28q-62 35 -86 99q28 66 57 72z" />
<glyph unicode="h" horiz-adv-x="777" d="M-5 1281h114q29 0 43 -171q71 -19 71 -43h-14l14 -29v-28q0 -15 -14 -15l14 -28v-14l-14 -100l28 -14q76 84 285 114q0 42 -128 42v15q32 0 57 14q228 0 228 -314v-242q0 -121 43 -171h-171l57 71q0 23 -100 57q-14 25 -14 57v357q-14 42 -86 42q-185 -30 -185 -185 q-14 -211 -14 -285q-57 0 -57 -28v-29q0 -28 43 -28v-29h-186q57 59 57 143v413q0 51 -14 128q14 18 14 100v57l-14 29h14q-17 99 -71 99v15z" />
<glyph unicode="i" horiz-adv-x="259" d="M93 1307h28q20 0 42 -42v-28q0 -28 -28 -28h-42q-10 0 -42 42q21 56 42 56zM121 1027q70 -18 70 -42q0 -70 -42 -70v-28h28v-505q0 -38 28 -84h-140l-28 14l14 28v280q0 192 42 239v42q0 33 -98 70q0 29 126 56z" />
<glyph unicode="j" horiz-adv-x="304" d="M119 1306h29q20 0 43 -43v-29q0 -29 -29 -29h-43q-12 0 -44 43q22 58 44 58zM148 1016q72 -18 72 -43q0 -73 -43 -73v-28h29v-522q0 -39 29 -87q-143 -99 -305 -116q0 -43 131 -43v-15q-33 0 -58 -14q-174 33 -174 87v14q0 9 58 73q14 -15 188 -29q47 29 73 29v14 q-66 0 -87 15l14 29v289q0 199 44 247v43q0 35 -102 72q0 31 131 58z" />
<glyph unicode="k" horiz-adv-x="798" d="M-5 1288h111q28 0 42 -167q70 -18 70 -42h-14l14 -27v-28q0 -14 -14 -14l14 -28v-307q4 -28 28 -28q164 175 237 195q21 -13 83 -13v-14q-153 -123 -153 -195q308 -307 321 -307v-14h-98l-84 14q-27 -14 -41 -14l55 56v14q-287 250 -320 251l-28 -42v-112q0 -69 -70 -97 l42 -70h-195v14q70 0 70 125v432q0 50 -14 126q14 18 14 97v56l-14 28h14q-17 97 -70 97v14zM511 982h125l28 -14v14q27 -14 42 -14v-14q-66 0 -98 -112h-14q-38 0 -83 28q0 -14 -14 -14v14q18 56 83 56v14l-69 28v14z" />
<glyph unicode="l" horiz-adv-x="304" d="M5 1291h111q28 0 42 -167q70 -18 70 -42h-14l14 -28v-28q0 -14 -14 -14l14 -27v-516q0 -69 -70 -97l42 -70h-195v14q70 0 70 125v432q0 50 -14 125q14 18 14 98v56l-14 28h14q-17 97 -70 97v14z" />
<glyph unicode="m" horiz-adv-x="1200" d="M436 1025q211 -35 211 -183h14q75 83 282 112q0 43 -127 43v14q32 0 57 14q225 0 225 -310v-239q0 -120 42 -169h-169q0 8 56 70q0 23 -98 57q-14 24 -14 56v352q-14 42 -85 42q-81 0 -169 -98v-310q0 -120 43 -169h-169q0 8 56 70q0 23 -98 57q-14 24 -14 56v352 q-15 42 -85 42q-183 -30 -183 -183q-14 -209 -14 -281q-56 0 -56 -29v-28q0 -28 42 -28v-28h-183q56 59 56 141v380l-14 28h14q-17 88 -56 141h56q71 0 141 -99q0 -56 28 -56q75 83 282 112q0 43 -127 43v14q32 0 56 14z" />
<glyph unicode="n" horiz-adv-x="763" d="M444 1028q227 0 227 -312v-242q0 -120 43 -170h-171l57 71q0 23 -99 57q-14 25 -14 57v354q-15 43 -86 43q-184 -30 -184 -185q-14 -210 -14 -283q-57 0 -57 -29v-28q0 -29 43 -29v-28h-185q57 59 57 142v383l-14 29h14q-18 88 -57 142h57q71 0 142 -100q0 -57 28 -57 q76 84 284 114q0 43 -128 43v14q32 0 57 14z" />
<glyph unicode="o" horiz-adv-x="722" d="M396 1025h41q184 0 235 -331q-65 -373 -221 -373q97 76 97 124q-54 -27 -152 -27h-69q-115 13 -194 13q0 -56 138 -110v-14h-41q-184 0 -235 332q65 373 221 373q-69 -57 -69 -69l28 -42l27 14h138q115 -14 194 -14q0 57 -138 111v13zM161 652q0 -152 207 -179h28 q110 0 110 193v14q0 152 -207 180h-28q-110 0 -110 -194v-14z" />
<glyph unicode="p" horiz-adv-x="807" d="M127 -69h-15l-30 15v-15q-40 0 -61 107q15 27 15 61h-15q0 15 15 15l-15 153v688q0 41 -31 91h46q52 -89 122 -137v-46q40 0 214 107h15l184 -77v16l15 30q137 -39 137 -137v-31h-91v-30l107 -16v-30l-16 -31l-30 16q-31 0 -31 -31v-76h46v-16q-57 -91 -76 -91 q0 15 -16 15q0 -122 -198 -122q-117 0 -199 91q-29 -15 -46 -15v-198q0 -77 -91 -123l-16 -30q16 -65 92 -138zM540 725q-31 168 -168 168q-199 -76 -199 -213v-31q0 -182 229 -214q138 31 138 229v61z" />
<glyph unicode="q" horiz-adv-x="807" d="M571 -54q76 73 91 138l-15 30q-92 46 -92 123v198q-16 0 -46 15q-82 -91 -198 -91q-199 0 -199 122q-15 0 -15 -15q-19 0 -76 91v16h45v76q0 31 -30 31l-31 -16l-15 31v30l107 16v30h-92v31q0 98 138 137l15 -30v-16l183 77h16q174 -107 214 -107v46q70 48 122 137h46 q-31 -50 -31 -91v-688l-15 -153q15 0 15 -15h-15q0 -34 15 -61q-21 -107 -61 -107v15l-31 -15h-15zM189 664q0 -198 137 -229q229 32 229 214v31q0 137 -198 213q-138 0 -168 -168v-61z" />
<glyph unicode="r" horiz-adv-x="662" d="M439 1024q170 -33 170 -85v-14l-57 -71q-14 14 -184 28q-156 -51 -156 -184q-14 -210 -14 -283q-56 0 -56 -28v-28q0 -29 42 -29v-28h-184q57 59 57 142v382l-15 28h15q-18 88 -57 142h57q70 0 141 -99q0 -57 29 -57q75 84 283 113q0 43 -128 43v14q32 0 57 14z" />
<glyph unicode="s" horiz-adv-x="702" d="M286 1024h42v-14l-107 -30v-14l164 -12l28 14q27 -14 42 -14v14q0 28 -56 28v14h42q93 0 183 -169h-169q-75 56 -127 56h-28q-105 -17 -112 -56q-75 -119 295 -126q189 -64 169 -155q-59 -253 -253 -253h-14v14q126 28 126 127q-126 -29 -183 -29h-70q-100 0 -155 29v-14 q0 -29 99 -113h-14q-88 0 -155 183l42 28h14q155 -56 169 -56h28q119 0 204 65q24 79 -213 101q-292 47 -272 129q68 253 281 253z" />
<glyph unicode="t" horiz-adv-x="526" d="M206 1311q0 -29 79 -98h-13l13 -32v-33q0 -16 -13 -16l13 -33v-146h185q-35 -80 -53 -82h-132v-374q0 -81 -66 -114l40 -81h-185v16q66 0 66 147v406h-79l-66 17v16q0 36 145 49v16q0 59 -13 147q42 195 79 195z" />
<glyph unicode="u" horiz-adv-x="763" d="M274 304q-227 0 -227 312v242q0 120 -43 170h170l-56 -71q0 -23 99 -57q14 -25 14 -57v-354q14 -43 85 -43q185 30 185 185q14 210 14 283q57 0 57 29v28q0 29 -43 29v28h185q-57 -59 -57 -142v-383l14 -29h-14q18 -88 57 -142h-57q-71 0 -142 100q0 57 -28 57 q-76 -84 -284 -114q0 -43 128 -43v-14q-32 0 -57 -14z" />
<glyph unicode="v" horiz-adv-x="803" d="M66 1024h141v-28q-32 0 -56 -57q76 0 155 -255q57 -53 57 -99h28q77 198 142 198h28q85 -38 85 -56q-175 -289 -226 -425h-71q-24 0 -43 71q15 56 15 99q-55 93 -184 212q-71 113 -85 227q-22 56 -57 56v43zM547 1024h142l70 -14v-43q-55 0 -84 -184l-29 -14h-42 q-85 38 -85 57q25 113 85 113q-25 57 -57 57v28z" />
<glyph unicode="w" horiz-adv-x="1202" d="M56 1024h141v-28q-28 0 -28 -57q95 -136 156 -340h14q34 184 156 184v14q-43 0 -43 15q0 127 57 127q271 88 29 59l-72 26h213v-57q-43 0 -43 -28q55 0 170 -340h14q35 184 141 130l15 68q-43 0 -43 15q0 106 57 141q137 41 -42 43v28h141l71 -14v-43q-55 0 -71 -184 q-23 -14 -71 -14l-28 -73q43 0 43 -28q-170 -337 -170 -366h-85q140 67 -43 71l14 85v28q-129 189 -184 212q-184 -371 -184 -396h-85q126 36 -32 76l4 80v28q-212 263 -212 326q-25 155 -71 155v43z" />
<glyph unicode="x" horiz-adv-x="813" d="M0 1025h236l-44 -59v-15l191 -177q0 73 133 103l89 -15v-14q-133 -144 -133 -207q113 -108 280 -339h-236l44 59v15l-191 177q0 -73 -133 -104l-89 15v15q133 144 133 206q-113 108 -280 340zM516 1025h148l73 -15v-15q-65 0 -88 -103q-26 -15 -59 -15q-11 0 -89 15 q0 74 74 74v14q-10 0 -59 30v15zM162 449q78 -14 89 -14q0 -74 -74 -74v-15q49 -29 59 -29v-15h-148l-73 15v14q65 0 88 104q26 14 59 14z" />
<glyph unicode="y" horiz-adv-x="813" d="M552 1019h142l70 -14v-43q-55 0 -84 -184l-29 -14h-42q-85 38 -85 57q25 113 85 113q-25 57 -57 57v28zM314 358q-2 5 -3 10q15 56 15 99q-55 93 -184 212q-71 113 -85 227q-22 56 -57 56v43l71 14h141v-28q-32 0 -56 -57q76 0 155 -255q57 -53 57 -99h28q77 198 142 198 h28q85 -38 85 -56q-150 -247 -209 -383h1q-65 -145 -36 -193q-143 -99 -305 -116q0 -43 131 -43v-15q-33 0 -58 -14q-174 33 -174 87v14q0 9 58 73q14 -15 188 -29q47 29 73 29v14q-66 0 -87 15z" />
<glyph unicode="z" horiz-adv-x="702" d="M635 995q14 -162 -202 -273q-290 -102 -265 -181q84 -65 203 -65h28q15 0 169 56h14l84 -231h-214q102 104 102 133v14q-55 -29 -155 -29h-70q-56 0 -183 29q0 -99 127 -127v-14h-14l-257 3q-9 259 172 393q215 92 314 181q-70 0 -142 -1h-28q-51 0 -293 -38l-20 153 l211 4l32 -6v-14q-56 0 -56 -28v-14q15 0 42 14l28 -14l163 12v14l-107 30z" />
<glyph unicode="{" horiz-adv-x="1620" d="M40 1528h1448q40 -5 40 -40v-1448q-5 -40 -40 -40h-1448q-40 5 -40 40v1448q5 40 40 40zM40 1488v-1448h1448v1448h-1448zM1432 1448q25 0 28 -40q0 -11 -48 -52h48v-16h-80q0 22 56 64q4 7 4 16q0 6 -12 12q-24 0 -24 -24h-20v4q0 36 48 36zM376 1436h12q44 -7 44 -44 q-7 -20 -20 -20q24 -19 24 -40q0 -48 -52 -48h-4q-43 0 -52 40v8q5 32 24 32v8q-20 0 -20 28q0 27 44 36zM664 1436q56 0 56 -72q0 -80 -60 -80h-4q-40 8 -40 40h28q2 -16 12 -16h4q32 0 32 44q-16 -16 -44 -16q-36 12 -36 52q0 42 52 48zM140 1432h24v-144h-28v92h-36v24 q40 0 40 28zM208 1432h100v-24q-48 -53 -48 -120h-28q0 50 44 116h-68v28zM564 1432h24v-88h20v-24h-20v-32h-28v32h-60v28q61 84 64 84zM360 1400v-12q4 -12 24 -12q20 3 20 12v12q0 6 -12 12h-20q-6 0 -12 -12zM640 1384q0 -16 16 -24h16q6 0 16 16v20q0 6 -16 16h-16 q-16 -6 -16 -28zM524 1344h36v48q-8 -3 -36 -48zM356 1340v-16q0 -6 16 -16h20q6 0 16 16v16q-6 16 -28 16q-16 0 -24 -16zM452 1320h32v-32h-32v32zM1420 1312q36 0 36 -32l-12 -20q16 -6 16 -28q-12 -28 -36 -28h-4q-36 0 -36 36l12 20q-12 13 -12 20q0 32 36 32z M1404 1284v-12l20 -4q8 4 12 4v12q0 6 -12 12h-8q-6 0 -12 -12zM1404 1240v-8q0 -6 12 -12h12q6 0 12 12v8q0 6 -12 12h-12q-6 0 -12 -12zM1420 1176q36 0 36 -32l-12 -20q16 -6 16 -28q-12 -28 -36 -28h-4q-36 0 -36 36l12 20q-12 13 -12 20q0 32 36 32zM1336 1172h16v-104 h-20v68h-24v16q28 0 28 20zM1404 1148v-12l20 -4q8 4 12 4v12q0 6 -12 12h-8q-6 0 -12 -12zM1404 1104v-8q0 -6 12 -12h12q6 0 12 12v8q0 6 -12 12h-12q-6 0 -12 -12zM368 1092h136v-236h248v236h136v-616h-136v268h-248v-268h-136v616zM1136 1092q58 -4 64 -4v-92l-20 4 h-28q-44 0 -44 -40v-40h84v-80h-84v-364h-124v364h-72v80h72v16q0 156 152 156zM1336 1040q36 -3 36 -28l-8 -28q6 0 12 -12v-4q0 -36 -36 -36q-40 4 -40 36h20q3 -20 12 -20h12q6 0 12 12v8q0 12 -24 12v16l20 4v12q0 6 -12 12h-8q-11 0 -12 -20h-20q5 36 36 36zM1432 1040 q25 0 28 -40q0 -11 -48 -52h48v-16h-80q0 22 56 64q4 7 4 16q0 6 -12 12q-24 0 -24 -24h-20v4q0 36 48 36zM1424 904q36 0 36 -48q0 -60 -40 -60q-36 0 -36 60q0 48 40 48zM1336 900h16v-104h-20v68h-24v16q28 0 28 20zM1404 860v-20q0 -21 16 -28h4q16 7 16 28v20 q0 22 -16 28h-4q-16 -6 -16 -28zM1432 768q25 0 28 -40q0 -11 -48 -52h48v-16h-80q0 22 56 64q4 7 4 16q0 6 -12 12q-24 0 -24 -24h-20v4q0 36 48 36zM272 236q44 -8 44 -44v-4q0 -30 -56 -64l-8 -12h64v-24h-104v4q0 27 72 84q4 7 4 16v4q0 6 -16 16q-28 0 -28 -36h-28v4 q0 56 56 56zM92 232h100v-24q-48 -53 -48 -120h-28q0 50 44 116h-68v28z" />
<glyph unicode="|" horiz-adv-x="1620" d="M40 1528h1448q40 -5 40 -40v-1448q-5 -40 -40 -40h-1448q-40 5 -40 40v1448q5 40 40 40zM40 1488v-1448h1448v1448h-1448zM1432 1448q25 0 28 -40q0 -11 -48 -52h48v-16h-80q0 22 56 64q4 7 4 16q0 6 -12 12q-24 0 -24 -24h-20v4q0 36 48 36zM252 1436h12q44 -7 44 -44 q-7 -20 -20 -20q24 -19 24 -40q0 -48 -52 -48h-4q-43 0 -52 40v8q5 32 24 32v8q-20 0 -20 28q0 27 44 36zM368 1436h12q48 0 48 -76t-48 -76h-12q-48 0 -48 76t48 76zM540 1436q56 0 56 -72q0 -80 -60 -80h-4q-40 8 -40 40h28q2 -16 12 -16h4q32 0 32 44q-16 -16 -44 -16 q-36 12 -36 52q0 42 52 48zM892 1436h12q44 -7 44 -44q-7 -20 -20 -20q24 -19 24 -40q0 -48 -52 -48h-4q-43 0 -52 40v8q5 32 24 32v8q-20 0 -20 28q0 27 44 36zM1004 1436h12q44 -7 44 -44q-7 -20 -20 -20q24 -19 24 -40q0 -48 -52 -48h-4q-43 0 -52 40v8q5 32 24 32v8 q-20 0 -20 28q0 27 44 36zM140 1432h24v-144h-28v92h-36v24q40 0 40 28zM668 1432h24v-88h20v-24h-20v-32h-28v32h-60v28q61 84 64 84zM720 1432h100v-24q-48 -53 -48 -120h-28q0 50 44 116h-68v28zM236 1400v-12q4 -12 24 -12q20 3 20 12v12q0 6 -12 12h-20q-6 0 -12 -12z M348 1372v-24q0 -40 28 -40q24 0 24 40v24q0 40 -28 40q-24 0 -24 -40zM516 1384q0 -16 16 -24h16q6 0 16 16v20q0 6 -16 16h-16q-16 -6 -16 -28zM876 1400v-12q4 -12 24 -12q20 3 20 12v12q0 6 -12 12h-20q-6 0 -12 -12zM988 1400v-12q4 -12 24 -12q20 3 20 12v12 q0 6 -12 12h-20q-6 0 -12 -12zM628 1344h36v48q-8 -3 -36 -48zM232 1340v-16q0 -6 16 -16h20q6 0 16 16v16q-6 16 -28 16q-16 0 -24 -16zM872 1340v-16q0 -6 16 -16h20q6 0 16 16v16q-6 16 -28 16q-16 0 -24 -16zM984 1340v-16q0 -6 16 -16h20q6 0 16 16v16q-6 16 -28 16 q-16 0 -24 -16zM440 1320h32v-32h-32v32zM1420 1312q36 0 36 -32l-12 -20q16 -6 16 -28q-12 -28 -36 -28h-4q-36 0 -36 36l12 20q-12 13 -12 20q0 32 36 32zM1404 1284v-12l20 -4q8 4 12 4v12q0 6 -12 12h-8q-6 0 -12 -12zM1404 1240v-8q0 -6 12 -12h12q6 0 12 12v8 q0 6 -12 12h-12q-6 0 -12 -12zM1420 1176q36 0 36 -32l-12 -20q16 -6 16 -28q-12 -28 -36 -28h-4q-36 0 -36 36l12 20q-12 13 -12 20q0 32 36 32zM1336 1172h16v-104h-20v68h-24v16q28 0 28 20zM1404 1148v-12l20 -4q8 4 12 4v12q0 6 -12 12h-8q-6 0 -12 -12zM1404 1104v-8 q0 -6 12 -12h12q6 0 12 12v8q0 6 -12 12h-12q-6 0 -12 -12zM272 1092h504v-112h-184v-504h-136v504h-184v112zM1336 1040q36 -3 36 -28l-8 -28q6 0 12 -12v-4q0 -36 -36 -36q-40 4 -40 36h20q3 -20 12 -20h12q6 0 12 12v8q0 12 -24 12v16l20 4v12q0 6 -12 12h-8 q-11 0 -12 -20h-20q5 36 36 36zM1432 1040q25 0 28 -40q0 -11 -48 -52h48v-16h-80q0 22 56 64q4 7 4 16q0 6 -12 12q-24 0 -24 -24h-20v4q0 36 48 36zM1008 932q192 0 192 -136v-228q0 -68 16 -92h-120q-12 3 -12 32v8h-4q-62 -52 -144 -52q-152 16 -152 108q-4 6 -4 24 q0 101 108 128q188 20 188 56v16q0 56 -80 56q-80 -7 -80 -68h-120q0 91 96 128q56 20 116 20zM1336 900h16v-104h-20v68h-24v16q28 0 28 20zM1420 900h16v-104h-20v68h-24v16q28 0 28 20zM1432 768q25 0 28 -40q0 -11 -48 -52h48v-16h-80q0 22 56 64q4 7 4 16q0 6 -12 12 q-24 0 -24 -24h-20v4q0 36 48 36zM904 604v-4q0 -56 76 -56q78 0 96 76v72q-19 -11 -140 -36q-32 -21 -32 -52zM268 236h4q44 -8 44 -40q0 -14 -16 -32v-4q20 0 20 -28q0 -48 -52 -48h-4q-52 6 -52 48v8h28q0 -27 16 -32h20q6 0 16 16v16q-5 16 -36 16v20q32 0 32 12v12 q0 6 -12 12h-16q-13 0 -16 -28h-28q0 52 52 52zM92 232h100v-24q-48 -53 -48 -120h-28q0 50 44 116h-68v28z" />
<glyph unicode="}" horiz-adv-x="1620" d="M40 1528h1448q40 -5 40 -40v-1448q-5 -40 -40 -40h-1448q-40 5 -40 40v1448q5 40 40 40zM40 1488v-1448h1448v1448h-1448zM1432 1448q25 0 28 -40q0 -11 -48 -52h48v-16h-80q0 22 56 64q4 7 4 16q0 6 -12 12q-24 0 -24 -24h-20v4q0 36 48 36zM252 1436h12q44 -7 44 -44 q-7 -20 -20 -20q24 -19 24 -40q0 -48 -52 -48h-4q-43 0 -52 40v8q5 32 24 32v8q-20 0 -20 28q0 27 44 36zM380 1436h4q40 -5 40 -40h-20q-14 16 -28 16h-8q-12 0 -20 -36v-4q16 16 44 16q36 -10 36 -56q0 -42 -52 -48q-56 0 -56 76t60 76zM548 1436q44 -8 44 -44v-4 q0 -30 -56 -64l-8 -12h64v-24h-104v4q0 27 72 84q4 7 4 16v4q0 6 -16 16q-28 0 -28 -36h-28v4q0 56 56 56zM652 1436h12q48 0 48 -76t-48 -76h-12q-48 0 -48 76t48 76zM140 1432h24v-144h-28v92h-36v24q40 0 40 28zM720 1432h100v-24q-48 -53 -48 -120h-28q0 50 44 116h-68 v28zM236 1400v-12q4 -12 24 -12q20 3 20 12v12q0 6 -12 12h-20q-6 0 -12 -12zM632 1372v-24q0 -40 28 -40q24 0 24 40v24q0 40 -28 40q-24 0 -24 -40zM352 1348v-24q0 -6 16 -16h16q16 7 16 28q0 22 -16 28h-16q-6 0 -16 -16zM232 1340v-16q0 -6 16 -16h20q6 0 16 16v16 q-6 16 -28 16q-16 0 -24 -16zM440 1320h32v-32h-32v32zM1420 1312q36 0 36 -32l-12 -20q16 -6 16 -28q-12 -28 -36 -28h-4q-36 0 -36 36l12 20q-12 13 -12 20q0 32 36 32zM1404 1284v-12l20 -4q8 4 12 4v12q0 6 -12 12h-8q-6 0 -12 -12zM1404 1240v-8q0 -6 12 -12h12 q6 0 12 12v8q0 6 -12 12h-12q-6 0 -12 -12zM1420 1176q36 0 36 -32l-12 -20q16 -6 16 -28q-12 -28 -36 -28h-4q-36 0 -36 36l12 20q-12 13 -12 20q0 32 36 32zM1336 1172h16v-104h-20v68h-24v16q28 0 28 20zM1404 1148v-12l20 -4q8 4 12 4v12q0 6 -12 12h-8q-6 0 -12 -12z M1404 1104v-8q0 -6 12 -12h12q6 0 12 12v8q0 6 -12 12h-12q-6 0 -12 -12zM268 1092h312q138 0 184 -96q16 -34 16 -84q0 -97 -88 -140q-8 -1 -8 -8q84 -33 84 -124q12 -139 28 -164h-136q-22 179 -40 212q-32 28 -76 28h-140v-240h-136v616zM1336 1040q36 -3 36 -28l-8 -28 q6 0 12 -12v-4q0 -36 -36 -36q-40 4 -40 36h20q3 -20 12 -20h12q6 0 12 12v8q0 12 -24 12v16l20 4v12q0 6 -12 12h-8q-11 0 -12 -20h-20q5 36 36 36zM1432 1040q25 0 28 -40q0 -11 -48 -52h48v-16h-80q0 22 56 64q4 7 4 16q0 6 -12 12q-24 0 -24 -24h-20v4q0 36 48 36z M404 988v-176h144q96 0 96 88t-92 88h-148zM1060 932q148 0 204 -160q8 -38 8 -60v-40h-320v-4q0 -90 80 -108q5 -4 28 -4h8q88 18 88 60h108q0 -42 -68 -108q-53 -44 -144 -44q-190 0 -224 216v24q0 169 180 224q34 4 52 4zM1420 904q36 -3 36 -28q-8 -25 -8 -28 q6 0 12 -12v-4q0 -36 -36 -36q-40 4 -40 36h20q3 -20 12 -20h12q6 0 12 12v8q0 12 -24 12v16l20 4v12q0 6 -12 12h-8q-11 0 -12 -20h-20q5 36 36 36zM1336 900h16v-104h-20v68h-24v16q28 0 28 20zM952 748h200q-23 88 -76 88q0 4 -24 4h-8q-92 -16 -92 -92zM1432 768 q25 0 28 -40q0 -11 -48 -52h48v-16h-80q0 22 56 64q4 7 4 16q0 6 -12 12q-24 0 -24 -24h-20v4q0 36 48 36zM92 232h100v-24q-48 -53 -48 -120h-28q0 50 44 116h-68v28zM232 232h80v-24h-60q0 -10 -4 -32q15 12 28 12q44 0 44 -56q-11 -48 -48 -48h-12q-48 11 -48 44h32 q0 -20 24 -20h8q16 7 16 28q0 22 -16 28h-8q-20 0 -20 -12h-28q0 13 12 80z" />
<glyph unicode="~" d="M40 1528h1448q40 -5 40 -40v-1448q-5 -40 -40 -40h-1448q-40 5 -40 40v1448q5 40 40 40zM40 1488v-1448h1448v1448h-1448zM1432 1448q25 0 28 -40q0 -11 -48 -52h48v-16h-80q0 22 56 64q4 7 4 16q0 6 -12 12q-24 0 -24 -24h-20v4q0 36 48 36zM256 1436q56 0 56 -72 q0 -80 -60 -80h-4q-40 8 -40 40h28q2 -16 12 -16h4q32 0 32 44q-16 -16 -44 -16q-36 12 -36 52q0 42 52 48zM368 1436h12q48 0 48 -76t-48 -76h-12q-48 0 -48 76t48 76zM548 1436q44 -8 44 -44v-4q0 -30 -56 -64l-8 -12h64v-24h-104v4q0 27 72 84q4 7 4 16v4q0 6 -16 16 q-28 0 -28 -36h-28v4q0 56 56 56zM660 1436h4q44 -8 44 -40q0 -14 -16 -32v-4q20 0 20 -28q0 -48 -52 -48h-4q-52 6 -52 48v8h28q0 -27 16 -32h20q6 0 16 16v16q-5 16 -36 16v20q32 0 32 12v12q0 6 -12 12h-16q-13 0 -16 -28h-28q0 52 52 52zM140 1432h24v-144h-28v92h-36 v24q40 0 40 28zM232 1384q0 -16 16 -24h16q6 0 16 16v20q0 6 -16 16h-16q-16 -6 -16 -28zM348 1372v-24q0 -40 28 -40q24 0 24 40v24q0 40 -28 40q-24 0 -24 -40zM440 1320h32v-32h-32v32zM1420 1312q36 0 36 -32l-12 -20q16 -6 16 -28q-12 -28 -36 -28h-4q-36 0 -36 36 l12 20q-12 13 -12 20q0 32 36 32zM1404 1284v-12l20 -4q8 4 12 4v12q0 6 -12 12h-8q-6 0 -12 -12zM1404 1240v-8q0 -6 12 -12h12q6 0 12 12v8q0 6 -12 12h-12q-6 0 -12 -12zM1420 1176q36 0 36 -32l-12 -20q16 -6 16 -28q-12 -28 -36 -28h-4q-36 0 -36 36l12 20 q-12 13 -12 20q0 32 36 32zM1336 1172h16v-104h-20v68h-24v16q28 0 28 20zM1404 1148v-12l20 -4q8 4 12 4v12q0 6 -12 12h-8q-6 0 -12 -12zM1404 1104v-8q0 -6 12 -12h12q6 0 12 12v8q0 6 -12 12h-12q-6 0 -12 -12zM536 1104q209 0 288 -208q16 -65 16 -120 q0 -220 -212 -300q-44 -8 -92 -12q-226 0 -296 236q-8 50 -8 84q0 234 216 308q41 8 88 12zM1336 1040q36 -3 36 -28l-8 -28q6 0 12 -12v-4q0 -36 -36 -36q-40 4 -40 36h20q3 -20 12 -20h12q6 0 12 12v8q0 12 -24 12v16l20 4v12q0 6 -12 12h-8q-11 0 -12 -20h-20q5 36 36 36 zM1432 1040q25 0 28 -40q0 -11 -48 -52h48v-16h-80q0 22 56 64q4 7 4 16q0 6 -12 12q-24 0 -24 -24h-20v4q0 36 48 36zM368 780q0 -146 104 -192q32 -12 68 -12q139 0 164 180v24q0 174 -132 208q-21 4 -40 4q-124 0 -160 -152q-4 -35 -4 -60zM1072 932q163 0 196 -116 l4 -24h-112l-24 40q-21 20 -68 20q-64 0 -64 -40v-4q0 -46 172 -72q108 -35 108 -120q0 -101 -112 -140q-46 -8 -92 -12q-173 0 -204 124q-4 5 -4 28v4h116q0 -76 96 -76q76 10 76 52v16q0 33 -192 72q-88 36 -88 108q0 89 92 124q43 12 100 16zM1324 900h16v-104h-20v68 h-24v16q28 0 28 20zM1420 900h16v-64h12v-16h-12v-24h-20v24h-44v16q19 31 48 64zM1412 872q0 -8 -20 -32v-4h24v36h-4zM1432 768q25 0 28 -40q0 -11 -48 -52h48v-16h-80q0 22 56 64q4 7 4 16q0 6 -12 12q-24 0 -24 -24h-20v4q0 36 48 36zM272 236h4q40 -5 40 -40h-20 q-14 16 -28 16h-8q-12 0 -20 -36v-4q16 16 44 16q36 -10 36 -56q0 -42 -52 -48q-56 0 -56 76t60 76zM92 232h100v-24q-48 -53 -48 -120h-28q0 50 44 116h-68v28zM244 148v-24q0 -6 16 -16h16q16 7 16 28q0 22 -16 28h-16q-6 0 -16 -16z" />
<glyph unicode="&#xa1;" d="M40 1528h1448q40 -5 40 -40v-1448q-5 -40 -40 -40h-1448q-40 5 -40 40v1448q5 40 40 40zM40 1488v-1448h1448v1448h-1448zM1432 1448q25 0 28 -40q0 -11 -48 -52h48v-16h-80q0 22 56 64q4 7 4 16q0 6 -12 12q-24 0 -24 -24h-20v4q0 36 48 36zM256 1436q56 0 56 -72 q0 -80 -60 -80h-4q-40 8 -40 40h28q2 -16 12 -16h4q32 0 32 44q-16 -16 -44 -16q-36 12 -36 52q0 42 52 48zM380 1436q44 -8 44 -44v-4q0 -30 -56 -64l-8 -12h64v-24h-104v4q0 27 72 84q4 7 4 16v4q0 6 -16 16q-28 0 -28 -36h-28v4q0 56 56 56zM548 1436q44 -8 44 -44v-4 q0 -30 -56 -64l-8 -12h64v-24h-104v4q0 27 72 84q4 7 4 16v4q0 6 -16 16q-28 0 -28 -36h-28v4q0 56 56 56zM140 1432h24v-144h-28v92h-36v24q40 0 40 28zM656 1432h24v-144h-28v92h-36v24q40 0 40 28zM720 1432h100v-24q-48 -53 -48 -120h-28q0 50 44 116h-68v28zM232 1384 q0 -16 16 -24h16q6 0 16 16v20q0 6 -16 16h-16q-16 -6 -16 -28zM440 1320h32v-32h-32v32zM1420 1312q36 0 36 -32l-12 -20q16 -6 16 -28q-12 -28 -36 -28h-4q-36 0 -36 36l12 20q-12 13 -12 20q0 32 36 32zM1404 1284v-12l20 -4q8 4 12 4v12q0 6 -12 12h-8q-6 0 -12 -12z M1404 1240v-8q0 -6 12 -12h12q6 0 12 12v8q0 6 -12 12h-12q-6 0 -12 -12zM1420 1176q36 0 36 -32l-12 -20q16 -6 16 -28q-12 -28 -36 -28h-4q-36 0 -36 36l12 20q-12 13 -12 20q0 32 36 32zM1336 1172h16v-104h-20v68h-24v16q28 0 28 20zM1404 1148v-12l20 -4q8 4 12 4v12 q0 6 -12 12h-8q-6 0 -12 -12zM1404 1104v-8q0 -6 12 -12h12q6 0 12 12v8q0 6 -12 12h-12q-6 0 -12 -12zM532 1092h136v-616h-136v616zM1336 1040q36 -3 36 -28l-8 -28q6 0 12 -12v-4q0 -36 -36 -36q-40 4 -40 36h20q3 -20 12 -20h12q6 0 12 12v8q0 12 -24 12v16l20 4v12 q0 6 -12 12h-8q-11 0 -12 -20h-20q5 36 36 36zM1432 1040q25 0 28 -40q0 -11 -48 -52h48v-16h-80q0 22 56 64q4 7 4 16q0 6 -12 12q-24 0 -24 -24h-20v4q0 36 48 36zM1008 932l24 -4v-112l-48 4q-112 -15 -112 -108q-4 0 -4 -28v-208h-124v444h116v-84h4q46 96 144 96z M1336 900h16v-104h-20v68h-24v16q28 0 28 20zM1396 900h60v-16h-44l-4 -24q13 8 20 8q32 0 32 -36q-5 -36 -36 -36h-4q-36 6 -36 32h16q14 -16 28 -16q12 4 12 24q-6 16 -12 16h-12l-12 -8h-16q8 48 8 56zM1432 768q25 0 28 -40q0 -11 -48 -52h48v-16h-80q0 22 56 64 q4 7 4 16q0 6 -12 12q-24 0 -24 -24h-20v4q0 36 48 36zM92 232h100v-24q-48 -53 -48 -120h-28q0 50 44 116h-68v28zM216 232h100v-24q-48 -53 -48 -120h-28q0 50 44 116h-68v28z" />
<glyph unicode="&#xa2;" horiz-adv-x="1620" d="M40 1528h1448q40 -5 40 -40v-1448q-5 -40 -40 -40h-1448q-40 5 -40 40v1448q5 40 40 40zM40 1488v-1448h1448v1448h-1448zM1432 1448q25 0 28 -40q0 -11 -48 -52h48v-16h-80q0 22 56 64q4 7 4 16q0 6 -12 12q-24 0 -24 -24h-20v4q0 36 48 36zM256 1436q56 0 56 -72 q0 -80 -60 -80h-4q-40 8 -40 40h28q2 -16 12 -16h4q32 0 32 44q-16 -16 -44 -16q-36 12 -36 52q0 42 52 48zM536 1436h12q48 0 48 -76t-48 -76h-12q-48 0 -48 76t48 76zM652 1436h12q44 -7 44 -44q-7 -20 -20 -20q24 -19 24 -40q0 -48 -52 -48h-4q-43 0 -52 40v8q5 32 24 32 v8q-20 0 -20 28q0 27 44 36zM140 1432h24v-144h-28v92h-36v24q40 0 40 28zM340 1432h80v-24h-60q0 -10 -4 -32q15 12 28 12q44 0 44 -56q-11 -48 -48 -48h-12q-48 11 -48 44h32q0 -20 24 -20h8q16 7 16 28q0 22 -16 28h-8q-20 0 -20 -12h-28q0 13 12 80zM780 1432h24v-88h20 v-24h-20v-32h-28v32h-60v28q61 84 64 84zM232 1384q0 -16 16 -24h16q6 0 16 16v20q0 6 -16 16h-16q-16 -6 -16 -28zM516 1372v-24q0 -40 28 -40q24 0 24 40v24q0 40 -28 40q-24 0 -24 -40zM636 1400v-12q4 -12 24 -12q20 3 20 12v12q0 6 -12 12h-20q-6 0 -12 -12zM740 1344 h36v48q-8 -3 -36 -48zM632 1340v-16q0 -6 16 -16h20q6 0 16 16v16q-6 16 -28 16q-16 0 -24 -16zM440 1320h32v-32h-32v32zM1420 1312q36 0 36 -32l-12 -20q16 -6 16 -28q-12 -28 -36 -28h-4q-36 0 -36 36l12 20q-12 13 -12 20q0 32 36 32zM1404 1284v-12l20 -4q8 4 12 4v12 q0 6 -12 12h-8q-6 0 -12 -12zM1404 1240v-8q0 -6 12 -12h12q6 0 12 12v8q0 6 -12 12h-12q-6 0 -12 -12zM1420 1176q36 0 36 -32l-12 -20q16 -6 16 -28q-12 -28 -36 -28h-4q-36 0 -36 36l12 20q-12 13 -12 20q0 32 36 32zM1336 1172h16v-104h-20v68h-24v16q28 0 28 20z M1404 1148v-12l20 -4q8 4 12 4v12q0 6 -12 12h-8q-6 0 -12 -12zM1404 1104v-8q0 -6 12 -12h12q6 0 12 12v8q0 6 -12 12h-12q-6 0 -12 -12zM388 1092h268q162 0 212 -120q8 -36 8 -52h76v132h124v-132h88v-80h-88v-236q0 -36 44 -36h24l20 4v-96q-40 -4 -60 -4h-8 q-144 0 -144 108v260h-72v28h-4q0 -114 -128 -160q-30 -12 -88 -12h-136v-220h-136v616zM1336 1040q36 -3 36 -28l-8 -28q6 0 12 -12v-4q0 -36 -36 -36q-40 4 -40 36h20q3 -20 12 -20h12q6 0 12 12v8q0 12 -24 12v16l20 4v12q0 6 -12 12h-8q-11 0 -12 -20h-20q5 36 36 36z M1432 1040q25 0 28 -40q0 -11 -48 -52h48v-16h-80q0 22 56 64q4 7 4 16q0 6 -12 12q-24 0 -24 -24h-20v4q0 36 48 36zM524 988v-188h112q112 0 112 92v12q0 84 -124 84h-100zM1324 900h16v-104h-20v68h-24v16q28 0 28 20zM1372 900h72v-4q0 -9 -28 -56q-8 -28 -8 -44h-20 q0 33 32 84h-48v20zM1420 764h16v-104h-20v68h-24v16q28 0 28 20zM260 236h12q44 -7 44 -44q-7 -20 -20 -20q24 -19 24 -40q0 -48 -52 -48h-4q-43 0 -52 40v8q5 32 24 32v8q-20 0 -20 28q0 27 44 36zM92 232h100v-24q-48 -53 -48 -120h-28q0 50 44 116h-68v28zM244 200v-12 q4 -12 24 -12q20 3 20 12v12q0 6 -12 12h-20q-6 0 -12 -12zM240 140v-16q0 -6 16 -16h20q6 0 16 16v16q-6 16 -28 16q-16 0 -24 -16z" />
<glyph unicode="&#xa3;" horiz-adv-x="1620" d="M40 1528h1448q40 -5 40 -40v-1448q-5 -40 -40 -40h-1448q-40 5 -40 40v1448q5 40 40 40zM40 1488v-1448h1448v1448h-1448zM1432 1448q25 0 28 -40q0 -11 -48 -52h48v-16h-80q0 22 56 64q4 7 4 16q0 6 -12 12q-24 0 -24 -24h-20v4q0 36 48 36zM256 1436q56 0 56 -72 q0 -80 -60 -80h-4q-40 8 -40 40h28q2 -16 12 -16h4q32 0 32 44q-16 -16 -44 -16q-36 12 -36 52q0 42 52 48zM380 1436h4q40 -5 40 -40h-20q-14 16 -28 16h-8q-12 0 -20 -36v-4q16 16 44 16q36 -10 36 -56q0 -42 -52 -48q-56 0 -56 76t60 76zM540 1436q56 0 56 -72 q0 -80 -60 -80h-4q-40 8 -40 40h28q2 -16 12 -16h4q32 0 32 44q-16 -16 -44 -16q-36 12 -36 52q0 42 52 48zM664 1436h4q40 -5 40 -40h-20q-14 16 -28 16h-8q-12 0 -20 -36v-4q16 16 44 16q36 -10 36 -56q0 -42 -52 -48q-56 0 -56 76t60 76zM776 1436h4q40 -5 40 -40h-20 q-14 16 -28 16h-8q-12 0 -20 -36v-4q16 16 44 16q36 -10 36 -56q0 -42 -52 -48q-56 0 -56 76t60 76zM1008 1436h4q40 -5 40 -40h-20q-14 16 -28 16h-8q-12 0 -20 -36v-4q16 16 44 16q36 -10 36 -56q0 -42 -52 -48q-56 0 -56 76t60 76zM1112 1436q56 0 56 -72q0 -80 -60 -80 h-4q-40 8 -40 40h28q2 -16 12 -16h4q32 0 32 44q-16 -16 -44 -16q-36 12 -36 52q0 42 52 48zM140 1432h24v-144h-28v92h-36v24q40 0 40 28zM852 1432h80v-24h-60q0 -10 -4 -32q15 12 28 12q44 0 44 -56q-11 -48 -48 -48h-12q-48 11 -48 44h32q0 -20 24 -20h8q16 7 16 28 q0 22 -16 28h-8q-20 0 -20 -12h-28q0 13 12 80zM232 1384q0 -16 16 -24h16q6 0 16 16v20q0 6 -16 16h-16q-16 -6 -16 -28zM516 1384q0 -16 16 -24h16q6 0 16 16v20q0 6 -16 16h-16q-16 -6 -16 -28zM1088 1384q0 -16 16 -24h16q6 0 16 16v20q0 6 -16 16h-16q-16 -6 -16 -28z M352 1348v-24q0 -6 16 -16h16q16 7 16 28q0 22 -16 28h-16q-6 0 -16 -16zM636 1348v-24q0 -6 16 -16h16q16 7 16 28q0 22 -16 28h-16q-6 0 -16 -16zM748 1348v-24q0 -6 16 -16h16q16 7 16 28q0 22 -16 28h-16q-6 0 -16 -16zM980 1348v-24q0 -6 16 -16h16q16 7 16 28 q0 22 -16 28h-16q-6 0 -16 -16zM440 1320h32v-32h-32v32zM1420 1312q36 0 36 -32l-12 -20q16 -6 16 -28q-12 -28 -36 -28h-4q-36 0 -36 36l12 20q-12 13 -12 20q0 32 36 32zM1404 1284v-12l20 -4q8 4 12 4v12q0 6 -12 12h-8q-6 0 -12 -12zM1404 1240v-8q0 -6 12 -12h12 q6 0 12 12v8q0 6 -12 12h-12q-6 0 -12 -12zM1420 1176q36 0 36 -32l-12 -20q16 -6 16 -28q-12 -28 -36 -28h-4q-36 0 -36 36l12 20q-12 13 -12 20q0 32 36 32zM1336 1172h16v-104h-20v68h-24v16q28 0 28 20zM1404 1148v-12l20 -4q8 4 12 4v12q0 6 -12 12h-8q-6 0 -12 -12z M1404 1104v-8q0 -6 12 -12h12q6 0 12 12v8q0 6 -12 12h-12q-6 0 -12 -12zM440 1092h136q10 0 112 -292q8 -12 124 -324h-136q-8 0 -52 136h-232l-44 -136h-140q232 606 232 616zM1336 1040q36 -3 36 -28l-8 -28q6 0 12 -12v-4q0 -36 -36 -36q-40 4 -40 36h20q3 -20 12 -20 h12q6 0 12 12v8q0 12 -24 12v16l20 4v12q0 6 -12 12h-8q-11 0 -12 -20h-20q5 36 36 36zM1432 1040q25 0 28 -40q0 -11 -48 -52h48v-16h-80q0 22 56 64q4 7 4 16q0 6 -12 12q-24 0 -24 -24h-20v4q0 36 48 36zM508 940l-76 -228h156l-76 228h-4zM820 920h124v-260 q0 -100 72 -100h4q96 0 96 112v248h124v-444h-116v60h-8q-45 -72 -136 -72q-160 0 -160 180v276zM1420 904q36 0 36 -32l-12 -20q16 -6 16 -28q-12 -28 -36 -28h-4q-36 0 -36 36l12 20q-12 13 -12 20q0 32 36 32zM1336 900h16v-104h-20v68h-24v16q28 0 28 20zM1404 876v-12 l20 -4q8 4 12 4v12q0 6 -12 12h-8q-6 0 -12 -12zM1404 832v-8q0 -6 12 -12h12q6 0 12 12v8q0 6 -12 12h-12q-6 0 -12 -12zM1420 764h16v-104h-20v68h-24v16q28 0 28 20zM264 236q56 0 56 -72q0 -80 -60 -80h-4q-40 8 -40 40h28q2 -16 12 -16h4q32 0 32 44q-16 -16 -44 -16 q-36 12 -36 52q0 42 52 48zM92 232h100v-24q-48 -53 -48 -120h-28q0 50 44 116h-68v28zM240 184q0 -16 16 -24h16q6 0 16 16v20q0 6 -16 16h-16q-16 -6 -16 -28z" />
<glyph unicode="&#xa4;" horiz-adv-x="1620" d="M40 1528h1448q40 -5 40 -40v-1448q-5 -40 -40 -40h-1448q-40 5 -40 40v1448q5 40 40 40zM40 1488v-1448h1448v1448h-1448zM1432 1448q25 0 28 -40q0 -11 -48 -52h48v-16h-80q0 22 56 64q4 7 4 16q0 6 -12 12q-24 0 -24 -24h-20v4q0 36 48 36zM148 1436q44 -8 44 -44v-4 q0 -30 -56 -64l-8 -12h64v-24h-104v4q0 27 72 84q4 7 4 16v4q0 6 -16 16q-28 0 -28 -36h-28v4q0 56 56 56zM252 1436h12q48 0 48 -76t-48 -76h-12q-48 0 -48 76t48 76zM368 1436h12q48 0 48 -76t-48 -76h-12q-48 0 -48 76t48 76zM656 1436q56 0 56 -72q0 -80 -60 -80h-4 q-40 8 -40 40h28q2 -16 12 -16h4q32 0 32 44q-16 -16 -44 -16q-36 12 -36 52q0 42 52 48zM508 1432h80v-24h-60q0 -10 -4 -32q15 12 28 12q44 0 44 -56q-11 -48 -48 -48h-12q-48 11 -48 44h32q0 -20 24 -20h8q16 7 16 28q0 22 -16 28h-8q-20 0 -20 -12h-28q0 13 12 80z M232 1372v-24q0 -40 28 -40q24 0 24 40v24q0 40 -28 40q-24 0 -24 -40zM348 1372v-24q0 -40 28 -40q24 0 24 40v24q0 40 -28 40q-24 0 -24 -40zM632 1384q0 -16 16 -24h16q6 0 16 16v20q0 6 -16 16h-16q-16 -6 -16 -28zM440 1320h32v-32h-32v32zM1420 1312q36 0 36 -32 l-12 -20q16 -6 16 -28q-12 -28 -36 -28h-4q-36 0 -36 36l12 20q-12 13 -12 20q0 32 36 32zM1404 1284v-12l20 -4q8 4 12 4v12q0 6 -12 12h-8q-6 0 -12 -12zM1404 1240v-8q0 -6 12 -12h12q6 0 12 12v8q0 6 -12 12h-12q-6 0 -12 -12zM1420 1176q36 0 36 -32l-12 -20 q16 -6 16 -28q-12 -28 -36 -28h-4q-36 0 -36 36l12 20q-12 13 -12 20q0 32 36 32zM1336 1172h16v-104h-20v68h-24v16q28 0 28 20zM1404 1148v-12l20 -4q8 4 12 4v12q0 6 -12 12h-8q-6 0 -12 -12zM1404 1104v-8q0 -6 12 -12h12q6 0 12 12v8q0 6 -12 12h-12q-6 0 -12 -12z M248 1092h136v-236h248v236h136v-616h-136v268h-248v-268h-136v616zM1336 1040q36 -3 36 -28l-8 -28q6 0 12 -12v-4q0 -36 -36 -36q-40 4 -40 36h20q3 -20 12 -20h12q6 0 12 12v8q0 12 -24 12v16l20 4v12q0 6 -12 12h-8q-11 0 -12 -20h-20q5 36 36 36zM1432 1040 q25 0 28 -40q0 -11 -48 -52h48v-16h-80q0 22 56 64q4 7 4 16q0 6 -12 12q-24 0 -24 -24h-20v4q0 36 48 36zM1024 932q86 0 124 -72h4v60h116v-412q0 -200 -228 -200q-156 0 -196 116q-4 7 -4 20v4h124q0 -51 88 -60q100 0 100 112v56q-51 -68 -140 -68q-135 0 -180 144 q-8 60 -8 84q0 160 148 212q34 4 52 4zM1420 904q36 0 36 -32l-12 -20q16 -6 16 -28q-12 -28 -36 -28h-4q-36 0 -36 36l12 20q-12 13 -12 20q0 32 36 32zM1336 900h16v-104h-20v68h-24v16q28 0 28 20zM1404 876v-12l20 -4q8 4 12 4v12q0 6 -12 12h-8q-6 0 -12 -12zM1404 832 v-8q0 -6 12 -12h12q6 0 12 12v8q0 6 -12 12h-12q-6 0 -12 -12zM948 708q0 -100 72 -124q7 -4 20 -4h4q80 0 104 84q4 22 4 36q0 140 -108 140q-96 -13 -96 -120v-12zM1432 768q25 0 28 -40q0 -11 -48 -52h48v-16h-80q0 22 56 64q4 7 4 16q0 6 -12 12q-24 0 -24 -24h-20v4 q0 36 48 36zM136 236h12q44 -7 44 -44q-7 -20 -20 -20q24 -19 24 -40q0 -48 -52 -48h-4q-43 0 -52 40v8q5 32 24 32v8q-20 0 -20 28q0 27 44 36zM252 236h12q48 0 48 -76t-48 -76h-12q-48 0 -48 76t48 76zM120 200v-12q4 -12 24 -12q20 3 20 12v12q0 6 -12 12h-20 q-6 0 -12 -12zM232 172v-24q0 -40 28 -40q24 0 24 40v24q0 40 -28 40q-24 0 -24 -40zM116 140v-16q0 -6 16 -16h20q6 0 16 16v16q-6 16 -28 16q-16 0 -24 -16z" />
<glyph unicode="&#xa5;" horiz-adv-x="1620" d="M40 1528h1448q40 -5 40 -40v-1448q-5 -40 -40 -40h-1448q-40 5 -40 40v1448q5 40 40 40zM40 1488v-1448h1448v1448h-1448zM1432 1448q25 0 28 -40q0 -11 -48 -52h48v-16h-80q0 22 56 64q4 7 4 16q0 6 -12 12q-24 0 -24 -24h-20v4q0 36 48 36zM148 1436q44 -8 44 -44v-4 q0 -30 -56 -64l-8 -12h64v-24h-104v4q0 27 72 84q4 7 4 16v4q0 6 -16 16q-28 0 -28 -36h-28v4q0 56 56 56zM252 1436h12q48 0 48 -76t-48 -76h-12q-48 0 -48 76t48 76zM544 1436h4q44 -8 44 -40q0 -14 -16 -32v-4q20 0 20 -28q0 -48 -52 -48h-4q-52 6 -52 48v8h28 q0 -27 16 -32h20q6 0 16 16v16q-5 16 -36 16v20q32 0 32 12v12q0 6 -12 12h-16q-13 0 -16 -28h-28q0 52 52 52zM652 1436h12q44 -7 44 -44q-7 -20 -20 -20q24 -19 24 -40q0 -48 -52 -48h-4q-43 0 -52 40v8q5 32 24 32v8q-20 0 -20 28q0 27 44 36zM772 1436h4q44 -8 44 -40 q0 -14 -16 -32v-4q20 0 20 -28q0 -48 -52 -48h-4q-52 6 -52 48v8h28q0 -27 16 -32h20q6 0 16 16v16q-5 16 -36 16v20q32 0 32 12v12q0 6 -12 12h-16q-13 0 -16 -28h-28q0 52 52 52zM888 1436h4q44 -8 44 -40q0 -14 -16 -32v-4q20 0 20 -28q0 -48 -52 -48h-4q-52 6 -52 48v8 h28q0 -27 16 -32h20q6 0 16 16v16q-5 16 -36 16v20q32 0 32 12v12q0 6 -12 12h-16q-13 0 -16 -28h-28q0 52 52 52zM384 1432h24v-88h20v-24h-20v-32h-28v32h-60v28q61 84 64 84zM232 1372v-24q0 -40 28 -40q24 0 24 40v24q0 40 -28 40q-24 0 -24 -40zM636 1400v-12 q4 -12 24 -12q20 3 20 12v12q0 6 -12 12h-20q-6 0 -12 -12zM344 1344h36v48q-8 -3 -36 -48zM632 1340v-16q0 -6 16 -16h20q6 0 16 16v16q-6 16 -28 16q-16 0 -24 -16zM440 1320h32v-32h-32v32zM1420 1312q36 0 36 -32l-12 -20q16 -6 16 -28q-12 -28 -36 -28h-4q-36 0 -36 36 l12 20q-12 13 -12 20q0 32 36 32zM1404 1284v-12l20 -4q8 4 12 4v12q0 6 -12 12h-8q-6 0 -12 -12zM1404 1240v-8q0 -6 12 -12h12q6 0 12 12v8q0 6 -12 12h-12q-6 0 -12 -12zM1420 1176q36 0 36 -32l-12 -20q16 -6 16 -28q-12 -28 -36 -28h-4q-36 0 -36 36l12 20 q-12 13 -12 20q0 32 36 32zM1336 1172h16v-104h-20v68h-24v16q28 0 28 20zM1404 1148v-12l20 -4q8 4 12 4v12q0 6 -12 12h-8q-6 0 -12 -12zM1404 1104v-8q0 -6 12 -12h12q6 0 12 12v8q0 6 -12 12h-12q-6 0 -12 -12zM412 1092h504v-112h-184v-504h-136v504h-184v112z M940 1092h124v-616h-124v616zM1336 1040q36 -3 36 -28l-8 -28q6 0 12 -12v-4q0 -36 -36 -36q-40 4 -40 36h20q3 -20 12 -20h12q6 0 12 12v8q0 12 -24 12v16l20 4v12q0 6 -12 12h-8q-11 0 -12 -20h-20q5 36 36 36zM1432 1040q25 0 28 -40q0 -11 -48 -52h48v-16h-80 q0 22 56 64q4 7 4 16q0 6 -12 12q-24 0 -24 -24h-20v4q0 36 48 36zM1420 904q36 0 36 -32l-12 -20q16 -6 16 -28q-12 -28 -36 -28h-4q-36 0 -36 36l12 20q-12 13 -12 20q0 32 36 32zM1336 900h16v-104h-20v68h-24v16q28 0 28 20zM1404 876v-12l20 -4q8 4 12 4v12q0 6 -12 12 h-8q-6 0 -12 -12zM1404 832v-8q0 -6 12 -12h12q6 0 12 12v8q0 6 -12 12h-12q-6 0 -12 -12zM1420 768q36 -3 36 -28q-8 -25 -8 -28q6 0 12 -12v-4q0 -36 -36 -36q-40 4 -40 36h20q3 -20 12 -20h12q6 0 12 12v8q0 12 -24 12v16l20 4v12q0 6 -12 12h-8q-11 0 -12 -20h-20 q5 36 36 36zM136 236h12q44 -7 44 -44q-7 -20 -20 -20q24 -19 24 -40q0 -48 -52 -48h-4q-43 0 -52 40v8q5 32 24 32v8q-20 0 -20 28q0 27 44 36zM256 232h24v-144h-28v92h-36v24q40 0 40 28zM120 200v-12q4 -12 24 -12q20 3 20 12v12q0 6 -12 12h-20q-6 0 -12 -12zM116 140 v-16q0 -6 16 -16h20q6 0 16 16v16q-6 16 -28 16q-16 0 -24 -16z" />
<glyph unicode="&#xa6;" d="M40 1528h1448q40 -5 40 -40v-1448q-5 -40 -40 -40h-1448q-40 5 -40 40v1448q5 40 40 40zM40 1488v-1448h1448v1448h-1448zM1432 1448q25 0 28 -40q0 -11 -48 -52h48v-16h-80q0 22 56 64q4 7 4 16q0 6 -12 12q-24 0 -24 -24h-20v4q0 36 48 36zM148 1436q44 -8 44 -44v-4 q0 -30 -56 -64l-8 -12h64v-24h-104v4q0 27 72 84q4 7 4 16v4q0 6 -16 16q-28 0 -28 -36h-28v4q0 56 56 56zM252 1436h12q48 0 48 -76t-48 -76h-12q-48 0 -48 76t48 76zM560 1436q44 -8 44 -44v-4q0 -30 -56 -64l-8 -12h64v-24h-104v4q0 27 72 84q4 7 4 16v4q0 6 -16 16 q-28 0 -28 -36h-28v4q0 56 56 56zM324 1432h100v-24q-48 -53 -48 -120h-28q0 50 44 116h-68v28zM232 1372v-24q0 -40 28 -40q24 0 24 40v24q0 40 -28 40q-24 0 -24 -40zM452 1320h32v-32h-32v32zM1420 1312q36 0 36 -32l-12 -20q16 -6 16 -28q-12 -28 -36 -28h-4 q-36 0 -36 36l12 20q-12 13 -12 20q0 32 36 32zM1404 1284v-12l20 -4q8 4 12 4v12q0 6 -12 12h-8q-6 0 -12 -12zM1404 1240v-8q0 -6 12 -12h12q6 0 12 12v8q0 6 -12 12h-12q-6 0 -12 -12zM1420 1176q36 0 36 -32l-12 -20q16 -6 16 -28q-12 -28 -36 -28h-4q-36 0 -36 36 l12 20q-12 13 -12 20q0 32 36 32zM1336 1172h16v-104h-20v68h-24v16q28 0 28 20zM1404 1148v-12l20 -4q8 4 12 4v12q0 6 -12 12h-8q-6 0 -12 -12zM1404 1104v-8q0 -6 12 -12h12q6 0 12 12v8q0 6 -12 12h-12q-6 0 -12 -12zM280 1092h268q162 0 212 -120q12 -52 12 -80 q0 -146 -144 -188q-32 -8 -76 -8h-136v-220h-136v616zM808 1092h124v-224q58 64 144 64q143 0 180 -188q4 -28 4 -48q0 -169 -136 -224q-30 -8 -56 -8q-92 0 -144 68v-56h-116v616zM1336 1040q36 -3 36 -28l-8 -28q6 0 12 -12v-4q0 -36 -36 -36q-40 4 -40 36h20 q3 -20 12 -20h12q6 0 12 12v8q0 12 -24 12v16l20 4v12q0 6 -12 12h-8q-11 0 -12 -20h-20q5 36 36 36zM1432 1040q25 0 28 -40q0 -11 -48 -52h48v-16h-80q0 22 56 64q4 7 4 16q0 6 -12 12q-24 0 -24 -24h-20v4q0 36 48 36zM416 988v-188h112q112 0 112 92v12q0 84 -124 84 h-100zM1420 904q36 0 36 -32l-12 -20q16 -6 16 -28q-12 -28 -36 -28h-4q-36 0 -36 36l12 20q-12 13 -12 20q0 32 36 32zM1336 900h16v-104h-20v68h-24v16q28 0 28 20zM1404 876v-12l20 -4q8 4 12 4v12q0 6 -12 12h-8q-6 0 -12 -12zM1404 832v-8q0 -6 12 -12h12q6 0 12 12v8 q0 6 -12 12h-12q-6 0 -12 -12zM928 704v-4q0 -144 108 -144q65 0 92 80q8 30 8 56v12q-13 136 -96 136h-12q-64 0 -92 -80q-8 -30 -8 -56zM1420 764h16v-64h12v-16h-12v-24h-20v24h-44v16q19 31 48 64zM1412 736q0 -8 -20 -32v-4h24v36h-4zM136 236h12q44 -7 44 -44 q-7 -20 -20 -20q24 -19 24 -40q0 -48 -52 -48h-4q-43 0 -52 40v8q5 32 24 32v8q-20 0 -20 28q0 27 44 36zM264 236q44 -8 44 -44v-4q0 -30 -56 -64l-8 -12h64v-24h-104v4q0 27 72 84q4 7 4 16v4q0 6 -16 16q-28 0 -28 -36h-28v4q0 56 56 56zM120 200v-12q4 -12 24 -12 q20 3 20 12v12q0 6 -12 12h-20q-6 0 -12 -12zM116 140v-16q0 -6 16 -16h20q6 0 16 16v16q-6 16 -28 16q-16 0 -24 -16z" />
<glyph unicode="&#xa7;" horiz-adv-x="1615" d="M40 1528h1448q40 -5 40 -40v-1448q-5 -40 -40 -40h-1448q-40 5 -40 40v1448q5 40 40 40zM40 1488v-1448h1448v1448h-1448zM1432 1448q25 0 28 -40q0 -11 -48 -52h48v-16h-80q0 22 56 64q4 7 4 16q0 6 -12 12q-24 0 -24 -24h-20v4q0 36 48 36zM148 1436q44 -8 44 -44v-4 q0 -30 -56 -64l-8 -12h64v-24h-104v4q0 27 72 84q4 7 4 16v4q0 6 -16 16q-28 0 -28 -36h-28v4q0 56 56 56zM252 1436h12q48 0 48 -76t-48 -76h-12q-48 0 -48 76t48 76zM368 1436h12q44 -7 44 -44q-7 -20 -20 -20q24 -19 24 -40q0 -48 -52 -48h-4q-43 0 -52 40v8q5 32 24 32 v8q-20 0 -20 28q0 27 44 36zM540 1436q56 0 56 -72q0 -80 -60 -80h-4q-40 8 -40 40h28q2 -16 12 -16h4q32 0 32 44q-16 -16 -44 -16q-36 12 -36 52q0 42 52 48zM652 1436h12q44 -7 44 -44q-7 -20 -20 -20q24 -19 24 -40q0 -48 -52 -48h-4q-43 0 -52 40v8q5 32 24 32v8 q-20 0 -20 28q0 27 44 36zM764 1436h12q48 0 48 -76t-48 -76h-12q-48 0 -48 76t48 76zM996 1436h12q48 0 48 -76t-48 -76h-12q-48 0 -48 76t48 76zM896 1432h24v-88h20v-24h-20v-32h-28v32h-60v28q61 84 64 84zM232 1372v-24q0 -40 28 -40q24 0 24 40v24q0 40 -28 40 q-24 0 -24 -40zM352 1400v-12q4 -12 24 -12q20 3 20 12v12q0 6 -12 12h-20q-6 0 -12 -12zM516 1384q0 -16 16 -24h16q6 0 16 16v20q0 6 -16 16h-16q-16 -6 -16 -28zM636 1400v-12q4 -12 24 -12q20 3 20 12v12q0 6 -12 12h-20q-6 0 -12 -12zM744 1372v-24q0 -40 28 -40 q24 0 24 40v24q0 40 -28 40q-24 0 -24 -40zM976 1372v-24q0 -40 28 -40q24 0 24 40v24q0 40 -28 40q-24 0 -24 -40zM856 1344h36v48q-8 -3 -36 -48zM348 1340v-16q0 -6 16 -16h20q6 0 16 16v16q-6 16 -28 16q-16 0 -24 -16zM632 1340v-16q0 -6 16 -16h20q6 0 16 16v16 q-6 16 -28 16q-16 0 -24 -16zM440 1320h32v-32h-32v32zM1420 1312q36 0 36 -32l-12 -20q16 -6 16 -28q-12 -28 -36 -28h-4q-36 0 -36 36l12 20q-12 13 -12 20q0 32 36 32zM1404 1284v-12l20 -4q8 4 12 4v12q0 6 -12 12h-8q-6 0 -12 -12zM1404 1240v-8q0 -6 12 -12h12 q6 0 12 12v8q0 6 -12 12h-12q-6 0 -12 -12zM1420 1176q36 0 36 -32l-12 -20q16 -6 16 -28q-12 -28 -36 -28h-4q-36 0 -36 36l12 20q-12 13 -12 20q0 32 36 32zM1336 1172h16v-104h-20v68h-24v16q28 0 28 20zM1404 1148v-12l20 -4q8 4 12 4v12q0 6 -12 12h-8q-6 0 -12 -12z M1404 1104v-8q0 -6 12 -12h12q6 0 12 12v8q0 6 -12 12h-12q-6 0 -12 -12zM420 1092h256q152 0 196 -48q36 -41 36 -112q0 -69 -80 -120v-4q92 -37 92 -80q16 -24 16 -72q0 -131 -144 -172q-51 -8 -96 -8h-276v616zM980 1092h124v-100h-124v100zM1336 1040q36 -3 36 -28 l-8 -28q6 0 12 -12v-4q0 -36 -36 -36q-40 4 -40 36h20q3 -20 12 -20h12q6 0 12 12v8q0 12 -24 12v16l20 4v12q0 6 -12 12h-8q-11 0 -12 -20h-20q5 36 36 36zM1432 1040q25 0 28 -40q0 -11 -48 -52h48v-16h-80q0 22 56 64q4 7 4 16q0 6 -12 12q-24 0 -24 -24h-20v4 q0 36 48 36zM556 988v-144h136q84 0 84 68v8q0 68 -96 68h-124zM980 920h124v-444h-124v444zM1420 904q36 0 36 -32l-12 -20q16 -6 16 -28q-12 -28 -36 -28h-4q-36 0 -36 36l12 20q-12 13 -12 20q0 32 36 32zM1336 900h16v-104h-20v68h-24v16q28 0 28 20zM1404 876v-12 l20 -4q8 4 12 4v12q0 6 -12 12h-8q-6 0 -12 -12zM1404 832v-8q0 -6 12 -12h12q6 0 12 12v8q0 6 -12 12h-12q-6 0 -12 -12zM1396 764h60v-16h-44l-4 -24q13 8 20 8q32 0 32 -36q-5 -36 -36 -36h-4q-36 6 -36 32h16q14 -16 28 -16q12 4 12 24q-6 16 -12 16h-12l-12 -8h-16 q8 48 8 56zM556 752v-172h140q104 0 104 76v16q0 61 -72 80h-172zM136 236h12q44 -7 44 -44q-7 -20 -20 -20q24 -19 24 -40q0 -48 -52 -48h-4q-43 0 -52 40v8q5 32 24 32v8q-20 0 -20 28q0 27 44 36zM260 236h4q44 -8 44 -40q0 -14 -16 -32v-4q20 0 20 -28q0 -48 -52 -48h-4 q-52 6 -52 48v8h28q0 -27 16 -32h20q6 0 16 16v16q-5 16 -36 16v20q32 0 32 12v12q0 6 -12 12h-16q-13 0 -16 -28h-28q0 52 52 52zM120 200v-12q4 -12 24 -12q20 3 20 12v12q0 6 -12 12h-20q-6 0 -12 -12zM116 140v-16q0 -6 16 -16h20q6 0 16 16v16q-6 16 -28 16 q-16 0 -24 -16z" />
<glyph unicode="&#xa8;" horiz-adv-x="1620" d="M40 1528h1448q40 -5 40 -40v-1448q-5 -40 -40 -40h-1448q-40 5 -40 40v1448q5 40 40 40zM40 1488v-1448h1448v1448h-1448zM1432 1448q25 0 28 -40q0 -11 -48 -52h48v-16h-80q0 22 56 64q4 7 4 16q0 6 -12 12q-24 0 -24 -24h-20v4q0 36 48 36zM148 1436q44 -8 44 -44v-4 q0 -30 -56 -64l-8 -12h64v-24h-104v4q0 27 72 84q4 7 4 16v4q0 6 -16 16q-28 0 -28 -36h-28v4q0 56 56 56zM252 1436h12q48 0 48 -76t-48 -76h-12q-48 0 -48 76t48 76zM368 1436h12q44 -7 44 -44q-7 -20 -20 -20q24 -19 24 -40q0 -48 -52 -48h-4q-43 0 -52 40v8q5 32 24 32 v8q-20 0 -20 28q0 27 44 36zM540 1436q56 0 56 -72q0 -80 -60 -80h-4q-40 8 -40 40h28q2 -16 12 -16h4q32 0 32 44q-16 -16 -44 -16q-36 12 -36 52q0 42 52 48zM652 1436h12q44 -7 44 -44q-7 -20 -20 -20q24 -19 24 -40q0 -48 -52 -48h-4q-43 0 -52 40v8q5 32 24 32v8 q-20 0 -20 28q0 27 44 36zM776 1436q44 -8 44 -44v-4q0 -30 -56 -64l-8 -12h64v-24h-104v4q0 27 72 84q4 7 4 16v4q0 6 -16 16q-28 0 -28 -36h-28v4q0 56 56 56zM896 1432h24v-88h20v-24h-20v-32h-28v32h-60v28q61 84 64 84zM232 1372v-24q0 -40 28 -40q24 0 24 40v24 q0 40 -28 40q-24 0 -24 -40zM352 1400v-12q4 -12 24 -12q20 3 20 12v12q0 6 -12 12h-20q-6 0 -12 -12zM516 1384q0 -16 16 -24h16q6 0 16 16v20q0 6 -16 16h-16q-16 -6 -16 -28zM636 1400v-12q4 -12 24 -12q20 3 20 12v12q0 6 -12 12h-20q-6 0 -12 -12zM856 1344h36v48 q-8 -3 -36 -48zM348 1340v-16q0 -6 16 -16h20q6 0 16 16v16q-6 16 -28 16q-16 0 -24 -16zM632 1340v-16q0 -6 16 -16h20q6 0 16 16v16q-6 16 -28 16q-16 0 -24 -16zM440 1320h32v-32h-32v32zM1420 1312q36 0 36 -32l-12 -20q16 -6 16 -28q-12 -28 -36 -28h-4q-36 0 -36 36 l12 20q-12 13 -12 20q0 32 36 32zM1404 1284v-12l20 -4q8 4 12 4v12q0 6 -12 12h-8q-6 0 -12 -12zM1404 1240v-8q0 -6 12 -12h12q6 0 12 12v8q0 6 -12 12h-12q-6 0 -12 -12zM1420 1176q36 0 36 -32l-12 -20q16 -6 16 -28q-12 -28 -36 -28h-4q-36 0 -36 36l12 20 q-12 13 -12 20q0 32 36 32zM1336 1172h16v-104h-20v68h-24v16q28 0 28 20zM1404 1148v-12l20 -4q8 4 12 4v12q0 6 -12 12h-8q-6 0 -12 -12zM1404 1104v-8q0 -6 12 -12h12q6 0 12 12v8q0 6 -12 12h-12q-6 0 -12 -12zM280 1092h268q162 0 212 -120q12 -52 12 -80 q0 -146 -144 -188q-32 -8 -76 -8h-136v-220h-136v616zM1336 1040q36 -3 36 -28l-8 -28q6 0 12 -12v-4q0 -36 -36 -36q-40 4 -40 36h20q3 -20 12 -20h12q6 0 12 12v8q0 12 -24 12v16l20 4v12q0 6 -12 12h-8q-11 0 -12 -20h-20q5 36 36 36zM1432 1040q25 0 28 -40 q0 -11 -48 -52h48v-16h-80q0 22 56 64q4 7 4 16q0 6 -12 12q-24 0 -24 -24h-20v4q0 36 48 36zM416 988v-188h112q112 0 112 92v12q0 84 -124 84h-100zM1028 932q169 0 224 -164q8 -52 8 -76q0 -164 -164 -220q-43 -8 -76 -8q-159 0 -216 164q-8 43 -8 76q0 145 132 208 q0 11 100 20zM1420 904q36 0 36 -32l-12 -20q16 -6 16 -28q-12 -28 -36 -28h-4q-36 0 -36 36l12 20q-12 13 -12 20q0 32 36 32zM1336 900h16v-104h-20v68h-24v16q28 0 28 20zM1404 876v-12l20 -4q8 4 12 4v12q0 6 -12 12h-8q-6 0 -12 -12zM1404 832v-8q0 -6 12 -12h12 q6 0 12 12v8q0 6 -12 12h-12q-6 0 -12 -12zM920 696q0 -140 108 -140h8q77 0 100 108v36q0 140 -112 140q-104 0 -104 -144zM1424 768q36 -6 36 -32h-16l-16 16h-8q-10 0 -16 -32h4q13 8 24 8q28 -8 28 -32q-5 -36 -36 -36q-40 0 -40 48v4q0 47 36 56h4zM1404 696 q8 -18 16 -20h8q6 0 12 12v12q0 6 -12 12q-17 0 -24 -16zM136 236h12q44 -7 44 -44q-7 -20 -20 -20q24 -19 24 -40q0 -48 -52 -48h-4q-43 0 -52 40v8q5 32 24 32v8q-20 0 -20 28q0 27 44 36zM268 232h24v-88h20v-24h-20v-32h-28v32h-60v28q61 84 64 84zM120 200v-12 q4 -12 24 -12q20 3 20 12v12q0 6 -12 12h-20q-6 0 -12 -12zM228 144h36v48q-8 -3 -36 -48zM116 140v-16q0 -6 16 -16h20q6 0 16 16v16q-6 16 -28 16q-16 0 -24 -16z" />
<glyph unicode="&#xa9;" horiz-adv-x="1620" d="M40 1528h1448q40 -5 40 -40v-1448q-5 -40 -40 -40h-1448q-40 5 -40 40v1448q5 40 40 40zM40 1488v-1448h1448v1448h-1448zM1432 1448q25 0 28 -40q0 -11 -48 -52h48v-16h-80q0 22 56 64q4 7 4 16q0 6 -12 12q-24 0 -24 -24h-20v4q0 36 48 36zM252 1436h12q48 0 48 -76 t-48 -76h-12q-48 0 -48 76t48 76zM548 1436h12q44 -7 44 -44q-7 -20 -20 -20q24 -19 24 -40q0 -48 -52 -48h-4q-43 0 -52 40v8q5 32 24 32v8q-20 0 -20 28q0 27 44 36zM672 1436h4q40 -5 40 -40h-20q-14 16 -28 16h-8q-12 0 -20 -36v-4q16 16 44 16q36 -10 36 -56 q0 -42 -52 -48q-56 0 -56 76t60 76zM776 1436h12q44 -7 44 -44q-7 -20 -20 -20q24 -19 24 -40q0 -48 -52 -48h-4q-43 0 -52 40v8q5 32 24 32v8q-20 0 -20 28q0 27 44 36zM904 1436q44 -8 44 -44v-4q0 -30 -56 -64l-8 -12h64v-24h-104v4q0 27 72 84q4 7 4 16v4q0 6 -16 16 q-28 0 -28 -36h-28v4q0 56 56 56zM140 1432h24v-144h-28v92h-36v24q40 0 40 28zM324 1432h100v-24q-48 -53 -48 -120h-28q0 50 44 116h-68v28zM232 1372v-24q0 -40 28 -40q24 0 24 40v24q0 40 -28 40q-24 0 -24 -40zM532 1400v-12q4 -12 24 -12q20 3 20 12v12q0 6 -12 12 h-20q-6 0 -12 -12zM760 1400v-12q4 -12 24 -12q20 3 20 12v12q0 6 -12 12h-20q-6 0 -12 -12zM644 1348v-24q0 -6 16 -16h16q16 7 16 28q0 22 -16 28h-16q-6 0 -16 -16zM528 1340v-16q0 -6 16 -16h20q6 0 16 16v16q-6 16 -28 16q-16 0 -24 -16zM756 1340v-16q0 -6 16 -16h20 q6 0 16 16v16q-6 16 -28 16q-16 0 -24 -16zM452 1320h32v-32h-32v32zM1420 1312q36 0 36 -32l-12 -20q16 -6 16 -28q-12 -28 -36 -28h-4q-36 0 -36 36l12 20q-12 13 -12 20q0 32 36 32zM1404 1284v-12l20 -4q8 4 12 4v12q0 6 -12 12h-8q-6 0 -12 -12zM1404 1240v-8 q0 -6 12 -12h12q6 0 12 12v8q0 6 -12 12h-12q-6 0 -12 -12zM1420 1176q36 0 36 -32l-12 -20q16 -6 16 -28q-12 -28 -36 -28h-4q-36 0 -36 36l12 20q-12 13 -12 20q0 32 36 32zM1336 1172h16v-104h-20v68h-24v16q28 0 28 20zM1404 1148v-12l20 -4q8 4 12 4v12q0 6 -12 12h-8 q-6 0 -12 -12zM1404 1104v-8q0 -6 12 -12h12q6 0 12 12v8q0 6 -12 12h-12q-6 0 -12 -12zM432 1092h136q10 0 112 -292q8 -12 124 -324h-136q-8 0 -52 136h-232l-44 -136h-140q232 606 232 616zM1420 1040q36 0 36 -32l-12 -20q16 -6 16 -28q-12 -28 -36 -28h-4q-36 0 -36 36 l12 20q-12 13 -12 20q0 32 36 32zM1336 1036h16v-104h-20v68h-24v16q28 0 28 20zM1404 1012v-12l20 -4q8 4 12 4v12q0 6 -12 12h-8q-6 0 -12 -12zM1404 968v-8q0 -6 12 -12h12q6 0 12 12v8q0 6 -12 12h-12q-6 0 -12 -12zM500 940l-76 -228h156l-76 228h-4zM1004 932 q86 0 124 -72h4v60h116v-412q0 -200 -228 -200q-156 0 -196 116q-4 7 -4 20v4h124q0 -51 88 -60q100 0 100 112v56q-51 -68 -140 -68q-135 0 -180 144q-8 60 -8 84q0 160 148 212q34 4 52 4zM1420 900h16v-104h-20v68h-24v16q28 0 28 20zM928 708q0 -100 72 -124q7 -4 20 -4 h4q80 0 104 84q4 22 4 36q0 140 -108 140q-96 -13 -96 -120v-12zM152 232h24v-88h20v-24h-20v-32h-28v32h-60v28q61 84 64 84zM208 232h100v-24q-48 -53 -48 -120h-28q0 50 44 116h-68v28zM112 144h36v48q-8 -3 -36 -48z" />
<glyph unicode="&#xaa;" d="M40 1528h1448q40 -5 40 -40v-1448q-5 -40 -40 -40h-1448q-40 5 -40 40v1448q5 40 40 40zM40 1488v-1448h1448v1448h-1448zM1432 1448q25 0 28 -40q0 -11 -48 -52h48v-16h-80q0 22 56 64q4 7 4 16q0 6 -12 12q-24 0 -24 -24h-20v4q0 36 48 36zM148 1436q44 -8 44 -44v-4 q0 -30 -56 -64l-8 -12h64v-24h-104v4q0 27 72 84q4 7 4 16v4q0 6 -16 16q-28 0 -28 -36h-28v4q0 56 56 56zM264 1436q44 -8 44 -44v-4q0 -30 -56 -64l-8 -12h64v-24h-104v4q0 27 72 84q4 7 4 16v4q0 6 -16 16q-28 0 -28 -36h-28v4q0 56 56 56zM380 1436q44 -8 44 -44v-4 q0 -30 -56 -64l-8 -12h64v-24h-104v4q0 27 72 84q4 7 4 16v4q0 6 -16 16q-28 0 -28 -36h-28v4q0 56 56 56zM536 1436h12q48 0 48 -76t-48 -76h-12q-48 0 -48 76t48 76zM904 1436h4q40 -5 40 -40h-20q-14 16 -28 16h-8q-12 0 -20 -36v-4q16 16 44 16q36 -10 36 -56 q0 -42 -52 -48q-56 0 -56 76t60 76zM656 1432h24v-144h-28v92h-36v24q40 0 40 28zM720 1432h100v-24q-48 -53 -48 -120h-28q0 50 44 116h-68v28zM516 1372v-24q0 -40 28 -40q24 0 24 40v24q0 40 -28 40q-24 0 -24 -40zM876 1348v-24q0 -6 16 -16h16q16 7 16 28q0 22 -16 28 h-16q-6 0 -16 -16zM440 1320h32v-32h-32v32zM1420 1312q36 0 36 -32l-12 -20q16 -6 16 -28q-12 -28 -36 -28h-4q-36 0 -36 36l12 20q-12 13 -12 20q0 32 36 32zM1404 1284v-12l20 -4q8 4 12 4v12q0 6 -12 12h-8q-6 0 -12 -12zM1404 1240v-8q0 -6 12 -12h12q6 0 12 12v8 q0 6 -12 12h-12q-6 0 -12 -12zM1420 1176q36 0 36 -32l-12 -20q16 -6 16 -28q-12 -28 -36 -28h-4q-36 0 -36 36l12 20q-12 13 -12 20q0 32 36 32zM1336 1172h16v-104h-20v68h-24v16q28 0 28 20zM1404 1148v-12l20 -4q8 4 12 4v12q0 6 -12 12h-8q-6 0 -12 -12zM1404 1104v-8 q0 -6 12 -12h12q6 0 12 12v8q0 6 -12 12h-12q-6 0 -12 -12zM260 1092h312q138 0 184 -96q16 -34 16 -84q0 -97 -88 -140q-8 -1 -8 -8q84 -33 84 -124q12 -139 28 -164h-136q-22 179 -40 212q-32 28 -76 28h-140v-240h-136v616zM1336 1040q36 -3 36 -28l-8 -28q6 0 12 -12v-4 q0 -36 -36 -36q-40 4 -40 36h20q3 -20 12 -20h12q6 0 12 12v8q0 12 -24 12v16l20 4v12q0 6 -12 12h-8q-11 0 -12 -20h-20q5 36 36 36zM1432 1040q25 0 28 -40q0 -11 -48 -52h48v-16h-80q0 22 56 64q4 7 4 16q0 6 -12 12q-24 0 -24 -24h-20v4q0 36 48 36zM396 988v-176h144 q96 0 96 88t-92 88h-148zM1096 932q113 0 148 -88q12 -55 12 -112v-256h-124v260q0 100 -72 100h-4q-96 0 -96 -112v-248h-124v444h116v-60h8q45 72 136 72zM1420 904q36 0 36 -32l-12 -20q16 -6 16 -28q-12 -28 -36 -28h-4q-36 0 -36 36l12 20q-12 13 -12 20q0 32 36 32z M1336 900h16v-104h-20v68h-24v16q28 0 28 20zM1404 876v-12l20 -4q8 4 12 4v12q0 6 -12 12h-8q-6 0 -12 -12zM1404 832v-8q0 -6 12 -12h12q6 0 12 12v8q0 6 -12 12h-12q-6 0 -12 -12zM1420 768q36 0 36 -32l-12 -20q16 -6 16 -28q-12 -28 -36 -28h-4q-36 0 -36 36l12 20 q-12 13 -12 20q0 32 36 32zM1404 740v-12l20 -4q8 4 12 4v12q0 6 -12 12h-8q-6 0 -12 -12zM1404 696v-8q0 -6 12 -12h12q6 0 12 12v8q0 6 -12 12h-12q-6 0 -12 -12zM136 236h12q44 -7 44 -44q-7 -20 -20 -20q24 -19 24 -40q0 -48 -52 -48h-4q-43 0 -52 40v8q5 32 24 32v8 q-20 0 -20 28q0 27 44 36zM264 236h4q40 -5 40 -40h-20q-14 16 -28 16h-8q-12 0 -20 -36v-4q16 16 44 16q36 -10 36 -56q0 -42 -52 -48q-56 0 -56 76t60 76zM120 200v-12q4 -12 24 -12q20 3 20 12v12q0 6 -12 12h-20q-6 0 -12 -12zM236 148v-24q0 -6 16 -16h16q16 7 16 28 q0 22 -16 28h-16q-6 0 -16 -16zM116 140v-16q0 -6 16 -16h20q6 0 16 16v16q-6 16 -28 16q-16 0 -24 -16z" />
<glyph unicode="&#xab;" horiz-adv-x="1630" d="M40 1528h1448q40 -5 40 -40v-1448q-5 -40 -40 -40h-1448q-40 5 -40 40v1448q5 40 40 40zM40 1488v-1448h1448v1448h-1448zM1432 1448q25 0 28 -40q0 -11 -48 -52h48v-16h-80q0 22 56 64q4 7 4 16q0 6 -12 12q-24 0 -24 -24h-20v4q0 36 48 36zM148 1436q44 -8 44 -44v-4 q0 -30 -56 -64l-8 -12h64v-24h-104v4q0 27 72 84q4 7 4 16v4q0 6 -16 16q-28 0 -28 -36h-28v4q0 56 56 56zM264 1436q44 -8 44 -44v-4q0 -30 -56 -64l-8 -12h64v-24h-104v4q0 27 72 84q4 7 4 16v4q0 6 -16 16q-28 0 -28 -36h-28v4q0 56 56 56zM376 1436h4q44 -8 44 -40 q0 -14 -16 -32v-4q20 0 20 -28q0 -48 -52 -48h-4q-52 6 -52 48v8h28q0 -27 16 -32h20q6 0 16 16v16q-5 16 -36 16v20q32 0 32 12v12q0 6 -12 12h-16q-13 0 -16 -28h-28q0 52 52 52zM1420 1312q36 0 36 -32l-12 -20q16 -6 16 -28q-12 -28 -36 -28h-4q-36 0 -36 36l12 20 q-12 13 -12 20q0 32 36 32zM1404 1284v-12l20 -4q8 4 12 4v12q0 6 -12 12h-8q-6 0 -12 -12zM1404 1240v-8q0 -6 12 -12h12q6 0 12 12v8q0 6 -12 12h-12q-6 0 -12 -12zM1420 1176q36 0 36 -32l-12 -20q16 -6 16 -28q-12 -28 -36 -28h-4q-36 0 -36 36l12 20q-12 13 -12 20 q0 32 36 32zM1336 1172h16v-104h-20v68h-24v16q28 0 28 20zM1404 1148v-12l20 -4q8 4 12 4v12q0 6 -12 12h-8q-6 0 -12 -12zM1404 1104v-8q0 -6 12 -12h12q6 0 12 12v8q0 6 -12 12h-12q-6 0 -12 -12zM404 1092h432v-112h-296v-144h256v-104h-256v-256h-136v616zM1336 1040 q36 -3 36 -28l-8 -28q6 0 12 -12v-4q0 -36 -36 -36q-40 4 -40 36h20q3 -20 12 -20h12q6 0 12 12v8q0 12 -24 12v16l20 4v12q0 6 -12 12h-8q-11 0 -12 -20h-20q5 36 36 36zM1432 1040q25 0 28 -40q0 -11 -48 -52h48v-16h-80q0 22 56 64q4 7 4 16q0 6 -12 12q-24 0 -24 -24 h-20v4q0 36 48 36zM1136 932l24 -4v-112l-48 4q-112 -15 -112 -108q-4 0 -4 -28v-208h-124v444h116v-84h4q46 96 144 96zM1420 904q36 0 36 -32l-12 -20q16 -6 16 -28q-12 -28 -36 -28h-4q-36 0 -36 36l12 20q-12 13 -12 20q0 32 36 32zM1336 900h16v-104h-20v68h-24v16 q28 0 28 20zM1404 876v-12l20 -4q8 4 12 4v12q0 6 -12 12h-8q-6 0 -12 -12zM1404 832v-8q0 -6 12 -12h12q6 0 12 12v8q0 6 -12 12h-12q-6 0 -12 -12zM1420 768q36 0 36 -32l-12 -20q16 -6 16 -28q-12 -28 -36 -28h-4q-36 0 -36 36l12 20q-12 13 -12 20q0 32 36 32zM1404 740 v-12l20 -4q8 4 12 4v12q0 6 -12 12h-8q-6 0 -12 -12zM1404 696v-8q0 -6 12 -12h12q6 0 12 12v8q0 6 -12 12h-12q-6 0 -12 -12zM1420 632h16v-104h-20v68h-24v16q28 0 28 20zM136 236h12q44 -7 44 -44q-7 -20 -20 -20q24 -19 24 -40q0 -48 -52 -48h-4q-43 0 -52 40v8 q5 32 24 32v8q-20 0 -20 28q0 27 44 36zM208 232h100v-24q-48 -53 -48 -120h-28q0 50 44 116h-68v28zM120 200v-12q4 -12 24 -12q20 3 20 12v12q0 6 -12 12h-20q-6 0 -12 -12zM116 140v-16q0 -6 16 -16h20q6 0 16 16v16q-6 16 -28 16q-16 0 -24 -16z" />
</font>
</defs>
</svg>
